<svg width="70" height="70" viewBox="0 0 70 70" fill="none" xmlns="http://www.w3.org/2000/svg">
<path d="M62.5 0H7.5C3.35938 0 0 3.35938 0 7.5V62.5C0 66.6406 3.35938 70 7.5 70H62.5C66.6406 70 70 66.6406 70 62.5V7.5C70 3.35938 66.6406 0 62.5 0ZM19.8438 55.0781C18.9844 56.5781 17.0625 57.0781 15.5781 56.2188C14.0781 55.3594 13.5781 53.4375 14.4375 51.9531L16.6719 48.0938C19.1875 47.3281 21.25 47.9219 22.8594 49.875L19.8438 55.0781ZM41.5469 46.6562H13.125C11.4062 46.6562 10 45.25 10 43.5312C10 41.8125 11.4062 40.4062 13.125 40.4062H21.0938L31.3125 22.7188L28.1094 17.1875C27.25 15.6875 27.7656 13.7812 29.25 12.9219C30.75 12.0625 32.6562 12.5781 33.5156 14.0625L34.9062 16.4688L36.2969 14.0625C37.1562 12.5625 39.0781 12.0625 40.5625 12.9219C42.0625 13.7812 42.5625 15.7031 41.7031 17.1875L28.2969 40.4062H38C41.1562 40.4062 42.9219 44.1094 41.5469 46.6562ZM56.875 46.6562H52.3438L55.4062 51.9531C56.2656 53.4531 55.75 55.3594 54.2656 56.2188C52.7656 57.0781 50.8594 56.5625 50 55.0781C44.8594 46.1875 41.0156 39.5 38.4375 35.0625C35.8281 30.5312 37.6875 26 39.5469 24.4688C41.5938 28.0156 44.6562 33.3281 48.75 40.4062H56.875C58.5938 40.4062 60 41.8125 60 43.5312C60 45.2656 58.5938 46.6562 56.875 46.6562Z" fill="white"/>
</svg>
