<svg width="50" height="80" viewBox="0 0 50 80" fill="none" xmlns="http://www.w3.org/2000/svg">
<path fill-rule="evenodd" clip-rule="evenodd" d="M10.9222 28.5284C9.48902 28.5284 8.06984 28.8143 6.74571 29.3698C5.42159 29.9252 4.21847 30.7394 3.20503 31.7657C2.19159 32.792 1.38769 34.0105 0.839218 35.3515C0.290749 36.6925 0.00845597 38.1297 0.00845597 39.5812C0.00845597 41.0327 0.290749 42.4699 0.839218 43.8109C1.38769 45.1519 2.19159 46.3703 3.20503 47.3967C4.21847 48.423 5.42159 49.2372 6.74571 49.7926C8.06984 50.3481 9.48902 50.634 10.9222 50.634H21.836V39.8037C21.8343 39.6554 21.8343 39.507 21.836 39.3587V28.5284H10.9222ZM21.836 22.1098H10.9222C8.02716 22.1098 5.25066 20.9451 3.20353 18.8719C1.15641 16.7987 0.0063425 13.9869 0.0063425 11.0549C0.0063425 8.12297 1.15641 5.31111 3.20353 3.23791C5.25066 1.16471 8.02716 0 10.9222 0H21.836V22.1098ZM28.1739 0V22.1098H39.0877C41.9455 22.0529 44.6674 20.8632 46.6686 18.7962C48.6699 16.7292 49.7909 13.9498 49.7909 11.0549C49.7909 8.16008 48.6699 5.38068 46.6686 3.31368C44.6674 1.24668 41.9455 0.0569453 39.0877 0H28.1739ZM39.0877 28.5241C36.2229 28.5238 33.4729 29.6641 31.4311 31.6991C29.3892 33.7342 28.2193 36.5006 28.1739 39.4015V39.7566C28.2088 41.9347 28.8785 44.0537 30.0988 45.8475C31.3191 47.6413 33.0356 49.03 35.0326 49.839C37.0297 50.6481 39.2183 50.8415 41.3235 50.395C43.4288 49.9484 45.3568 48.8818 46.8654 47.3291C48.374 45.7765 49.396 43.8069 49.8029 41.668C50.2098 39.529 49.9836 37.3159 49.1526 35.3067C48.3216 33.2976 46.9229 31.5818 45.1322 30.3751C43.3415 29.1684 41.2386 28.5244 39.0877 28.5241ZM10.9222 57.0525C8.76268 57.0517 6.65138 57.6995 4.85537 58.9139C3.05935 60.1284 1.65931 61.8549 0.832303 63.8753C0.0052969 65.8956 -0.21152 68.119 0.209276 70.2641C0.630072 72.4092 1.66958 74.3798 3.19632 75.9266C4.72306 77.4734 6.66846 78.5269 8.78646 78.9539C10.9045 79.3809 13.0999 79.1622 15.0952 78.3254C17.0904 77.4886 18.7958 76.0714 19.9957 74.253C21.1956 72.4346 21.836 70.2967 21.836 68.1096V57.0525H10.9222Z" fill="white"/>
</svg>
