<svg width="998" height="234" viewBox="0 0 998 234" fill="none" xmlns="http://www.w3.org/2000/svg">
<g filter="url(#filter0_f_170_14353)">
<path d="M4.09091 226V7.81818H10.9091V113.5H149.83V7.81818H156.648V226H149.83V120.318H10.9091V226H4.09091ZM374.696 7.81818H381.515V152.278C381.515 167.051 378.07 180.261 371.181 191.909C364.363 203.486 355.059 212.648 343.269 219.395C331.479 226.071 318.091 229.409 303.105 229.409C288.262 229.409 274.909 226.036 263.049 219.288C251.188 212.541 241.813 203.379 234.924 191.803C228.034 180.155 224.625 166.98 224.696 152.278V7.81818H231.515V152.278C231.515 165.773 234.604 177.811 240.783 188.393C247.033 198.976 255.556 207.321 266.351 213.429C277.147 219.537 289.398 222.591 303.105 222.591C316.813 222.591 329.064 219.537 339.86 213.429C350.655 207.321 359.142 198.976 365.321 188.393C371.571 177.811 374.696 165.773 374.696 152.278V7.81818ZM449.696 226V7.81818H517.878C530.094 7.81818 540.534 10.0554 549.199 14.5298C557.935 18.9332 564.611 25.2898 569.228 33.5994C573.915 41.8381 576.259 51.7102 576.259 63.2159C576.259 71.7386 574.945 79.5866 572.317 86.7599C569.76 93.9332 565.996 99.9702 561.025 104.871C556.053 109.7 550.051 113.003 543.02 114.778V115.631C550.904 116.27 558.006 119.004 564.327 123.834C570.648 128.663 575.62 135.055 579.242 143.01C582.935 150.964 584.782 160.02 584.782 170.176C584.782 181.398 582.402 191.199 577.644 199.58C572.956 207.96 566.138 214.459 557.189 219.075C548.311 223.692 537.623 226 525.123 226H449.696ZM456.515 219.182H525.123C541.103 219.182 553.887 214.707 563.475 205.759C573.134 196.739 577.963 184.878 577.963 170.176C577.963 160.091 575.691 151.178 571.145 143.436C566.6 135.695 560.35 129.622 552.395 125.219C544.512 120.815 535.421 118.614 525.123 118.614H456.515V219.182ZM456.515 111.795H525.123C535.066 111.795 543.304 109.558 549.838 105.084C556.373 100.609 561.273 94.679 564.54 87.2926C567.807 79.9062 569.441 71.8807 569.441 63.2159C569.441 47.733 564.824 35.7656 555.591 27.3139C546.358 18.8622 533.787 14.6364 517.878 14.6364H456.515V111.795ZM791.884 7.81818H798.702V152.278C798.702 167.051 795.257 180.261 788.368 191.909C781.55 203.486 772.246 212.648 760.456 219.395C748.667 226.071 735.279 229.409 720.293 229.409C705.449 229.409 692.097 226.036 680.236 219.288C668.375 212.541 659 203.379 652.111 191.803C645.222 180.155 641.813 166.98 641.884 152.278V7.81818H648.702V152.278C648.702 165.773 651.792 177.811 657.971 188.393C664.221 198.976 672.743 207.321 683.539 213.429C694.334 219.537 706.586 222.591 720.293 222.591C734 222.591 746.252 219.537 757.047 213.429C767.843 207.321 776.33 198.976 782.509 188.393C788.759 177.811 791.884 165.773 791.884 152.278V7.81818ZM983.645 62.3636C982.58 47.4489 976.863 35.1974 966.493 25.6094C956.195 16.0213 942.594 11.2273 925.691 11.2273C914.611 11.2273 904.703 13.3579 895.968 17.6193C887.232 21.8807 880.343 27.74 875.3 35.1974C870.257 42.5838 867.736 51.071 867.736 60.6591C867.736 66.1989 868.659 71.3125 870.506 76C872.353 80.6875 875.158 84.9844 878.922 88.8906C882.757 92.7259 887.551 96.206 893.304 99.331C899.128 102.385 905.946 105.119 913.759 107.534L938.475 115.205C947.921 118.116 956.088 121.384 962.978 125.006C969.867 128.628 975.549 132.712 980.023 137.257C984.569 141.732 987.942 146.739 990.144 152.278C992.346 157.747 993.446 163.855 993.446 170.602C993.446 181.966 990.534 192.087 984.711 200.964C978.887 209.842 970.755 216.803 960.314 221.845C949.874 226.888 937.765 229.409 923.986 229.409C910.705 229.409 899.093 227.101 889.15 222.484C879.206 217.797 871.323 211.369 865.499 203.202C859.746 194.963 856.515 185.517 855.804 174.864H862.623C863.333 184.239 866.28 192.513 871.465 199.686C876.65 206.859 883.681 212.47 892.559 216.518C901.507 220.567 911.983 222.591 923.986 222.591C936.486 222.591 947.424 220.425 956.799 216.092C966.245 211.689 973.56 205.581 978.745 197.768C984 189.956 986.628 180.901 986.628 170.602C986.628 162.79 984.924 155.936 981.515 150.041C978.105 144.075 972.743 138.82 965.428 134.274C958.113 129.729 948.56 125.645 936.77 122.023L912.054 114.352C894.938 108.955 882.118 101.817 873.596 92.9389C865.144 84.0611 860.918 73.3011 860.918 60.6591C860.918 49.9347 863.723 40.3466 869.334 31.8949C874.945 23.3722 882.615 16.6605 892.346 11.7599C902.147 6.85937 913.262 4.40909 925.691 4.40909C938.191 4.40909 949.164 6.89488 958.61 11.8665C968.056 16.8381 975.549 23.6918 981.088 32.4276C986.628 41.1634 989.753 51.142 990.463 62.3636H983.645Z" fill="white"/>
</g>
<defs>
<filter id="filter0_f_170_14353" x="0.0908203" y="0.409058" width="997.355" height="233" filterUnits="userSpaceOnUse" color-interpolation-filters="sRGB">
<feFlood flood-opacity="0" result="BackgroundImageFix"/>
<feBlend mode="normal" in="SourceGraphic" in2="BackgroundImageFix" result="shape"/>
<feGaussianBlur stdDeviation="2" result="effect1_foregroundBlur_170_14353"/>
</filter>
</defs>
</svg>
