<svg width="1920" height="505" viewBox="0 0 1920 505" fill="none" xmlns="http://www.w3.org/2000/svg">
<mask id="path-1-outside-1_170_14349" maskUnits="userSpaceOnUse" x="-28" y="-1" width="1948" height="506" fill="black">
<rect fill="white" x="-28" y="-1" width="1948" height="506"/>
<path d="M136.727 422.7H41.6006V499.5H-27V289.5H41.6006V365.7H136.727V289.5H205.632V499.5H136.727V422.7ZM354.667 504C318.283 504 290.132 496.5 270.212 481.5C250.292 466.5 240.333 442 240.333 408V289.5H309.238V403.8C309.238 419.8 312.694 431 319.605 437.4C326.515 443.6 338.203 446.7 354.667 446.7C371.131 446.7 382.819 443.6 389.73 437.4C396.64 431 400.096 419.8 400.096 403.8V289.5H468.696V408C468.696 442 458.737 466.5 438.817 481.5C419.101 496.5 391.051 504 354.667 504ZM503.88 289.5H640.167C665.168 289.5 683.97 294 696.572 303C709.377 311.8 715.78 325 715.78 342.6C715.78 353.6 713.036 363 707.548 370.8C702.263 378.6 694.539 384.4 684.376 388.2C696.572 391.8 706.227 397.9 713.341 406.5C720.455 415.1 724.012 426.1 724.012 439.5C724.012 459.7 716.593 474.8 701.755 484.8C687.12 494.6 665.676 499.5 637.423 499.5H503.88V289.5ZM631.02 450.6C646.671 450.6 654.497 444.5 654.497 432.3C654.497 420.1 646.671 414 631.02 414H572.176V450.6H631.02ZM627.666 370.5C634.171 370.5 639.151 369.1 642.606 366.3C646.062 363.5 647.789 359.5 647.789 354.3C647.789 349.3 646.062 345.4 642.606 342.6C639.151 339.6 634.171 338.1 627.666 338.1H572.176V370.5H627.666ZM862.323 504C825.94 504 797.788 496.5 777.868 481.5C757.949 466.5 747.989 442 747.989 408V289.5H816.894V403.8C816.894 419.8 820.35 431 827.261 437.4C834.172 443.6 845.859 446.7 862.323 446.7C878.787 446.7 890.475 443.6 897.386 437.4C904.297 431 907.752 419.8 907.752 403.8V289.5H976.353V408C976.353 442 966.393 466.5 946.473 481.5C926.757 496.5 898.707 504 862.323 504ZM1106.34 504C1065.69 504 1032.36 497.5 1006.34 484.5V426C1020.16 433.8 1035.3 439.7 1051.77 443.7C1068.23 447.5 1085.2 449.4 1102.69 449.4C1116.3 449.4 1125.65 448.6 1130.73 447C1136.02 445.2 1138.66 442.3 1138.66 438.3C1138.66 434.7 1135.41 431.7 1128.91 429.3C1122.4 426.9 1112.34 424.2 1098.72 421.2C1080.02 416.8 1064.37 412.5 1051.77 408.3C1039.17 403.9 1028.09 397.3 1018.54 388.5C1009.19 379.7 1004.51 368.3 1004.51 354.3C1004.51 331.1 1013.05 313.8 1030.12 302.4C1047.4 290.8 1071.89 285 1103.6 285C1121.49 285 1138.87 286.5 1155.74 289.5C1172.61 292.3 1186.84 296.3 1198.42 301.5V358.5C1173.42 345.9 1144.86 339.6 1112.75 339.6C1098.92 339.6 1089.47 340.4 1084.39 342C1079.31 343.6 1076.77 346.1 1076.77 349.5C1076.77 353.3 1080.02 356.4 1086.53 358.8C1093.03 361.2 1103.7 364.1 1118.54 367.5C1137.24 371.9 1152.79 376.3 1165.19 380.7C1177.79 384.9 1188.66 391.2 1197.81 399.6C1207.16 407.8 1211.84 418.4 1211.84 431.4C1211.84 457.8 1202.89 476.5 1185.01 487.5C1167.32 498.5 1141.1 504 1106.34 504Z"/>
<path d="M843.059 422.7H747.933V499.5H679.332V289.5H747.933V365.7H843.059V289.5H911.964V499.5H843.059V422.7ZM1061 504C1024.62 504 996.464 496.5 976.544 481.5C956.625 466.5 946.665 442 946.665 408V289.5H1015.57V403.8C1015.57 419.8 1019.03 431 1025.94 437.4C1032.85 443.6 1044.53 446.7 1061 446.7C1077.46 446.7 1089.15 443.6 1096.06 437.4C1102.97 431 1106.43 419.8 1106.43 403.8V289.5H1175.03V408C1175.03 442 1165.07 466.5 1145.15 481.5C1125.43 496.5 1097.38 504 1061 504ZM1210.21 289.5H1346.5C1371.5 289.5 1390.3 294 1402.9 303C1415.71 311.8 1422.11 325 1422.11 342.6C1422.11 353.6 1419.37 363 1413.88 370.8C1408.6 378.6 1400.87 384.4 1390.71 388.2C1402.9 391.8 1412.56 397.9 1419.67 406.5C1426.79 415.1 1430.34 426.1 1430.34 439.5C1430.34 459.7 1422.93 474.8 1408.09 484.8C1393.45 494.6 1372.01 499.5 1343.76 499.5H1210.21V289.5ZM1337.35 450.6C1353 450.6 1360.83 444.5 1360.83 432.3C1360.83 420.1 1353 414 1337.35 414H1278.51V450.6H1337.35ZM1334 370.5C1340.5 370.5 1345.48 369.1 1348.94 366.3C1352.39 363.5 1354.12 359.5 1354.12 354.3C1354.12 349.3 1352.39 345.4 1348.94 342.6C1345.48 339.6 1340.5 338.1 1334 338.1H1278.51V370.5H1334ZM1568.66 504C1532.27 504 1504.12 496.5 1484.2 481.5C1464.28 466.5 1454.32 442 1454.32 408V289.5H1523.23V403.8C1523.23 419.8 1526.68 431 1533.59 437.4C1540.5 443.6 1552.19 446.7 1568.66 446.7C1585.12 446.7 1596.81 443.6 1603.72 437.4C1610.63 431 1614.08 419.8 1614.08 403.8V289.5H1682.68V408C1682.68 442 1672.72 466.5 1652.81 481.5C1633.09 496.5 1605.04 504 1568.66 504ZM1812.68 504C1772.02 504 1738.69 497.5 1712.67 484.5V426C1726.49 433.8 1741.64 439.7 1758.1 443.7C1774.56 447.5 1791.54 449.4 1809.02 449.4C1822.64 449.4 1831.99 448.6 1837.07 447C1842.35 445.2 1844.99 442.3 1844.99 438.3C1844.99 434.7 1841.74 431.7 1835.24 429.3C1828.73 426.9 1818.67 424.2 1805.05 421.2C1786.35 416.8 1770.7 412.5 1758.1 408.3C1745.5 403.9 1734.42 397.3 1724.87 388.5C1715.52 379.7 1710.84 368.3 1710.84 354.3C1710.84 331.1 1719.38 313.8 1736.45 302.4C1753.73 290.8 1778.22 285 1809.93 285C1827.82 285 1845.2 286.5 1862.07 289.5C1878.94 292.3 1893.17 296.3 1904.75 301.5V358.5C1879.75 345.9 1851.19 339.6 1819.08 339.6C1805.26 339.6 1795.81 340.4 1790.72 342C1785.64 343.6 1783.1 346.1 1783.1 349.5C1783.1 353.3 1786.35 356.4 1792.86 358.8C1799.36 361.2 1810.03 364.1 1824.87 367.5C1843.57 371.9 1859.12 376.3 1871.52 380.7C1884.12 384.9 1895 391.2 1904.14 399.6C1913.49 407.8 1918.17 418.4 1918.17 431.4C1918.17 457.8 1909.22 476.5 1891.34 487.5C1873.65 498.5 1847.43 504 1812.68 504Z"/>
<path d="M822.022 272.2H726.896V349H658.295V139H726.896V215.2H822.022V139H890.928V349H822.022V272.2ZM1039.96 353.5C1003.58 353.5 975.427 346 955.507 331C935.588 316 925.628 291.5 925.628 257.5V139H994.534V253.3C994.534 269.3 997.989 280.5 1004.9 286.9C1011.81 293.1 1023.5 296.2 1039.96 296.2C1056.43 296.2 1068.11 293.1 1075.02 286.9C1081.94 280.5 1085.39 269.3 1085.39 253.3V139H1153.99V257.5C1153.99 291.5 1144.03 316 1124.11 331C1104.4 346 1076.35 353.5 1039.96 353.5ZM1189.18 139H1325.46C1350.46 139 1369.27 143.5 1381.87 152.5C1394.67 161.3 1401.08 174.5 1401.08 192.1C1401.08 203.1 1398.33 212.5 1392.84 220.3C1387.56 228.1 1379.83 233.9 1369.67 237.7C1381.87 241.3 1391.52 247.4 1398.64 256C1405.75 264.6 1409.31 275.6 1409.31 289C1409.31 309.2 1401.89 324.3 1387.05 334.3C1372.42 344.1 1350.97 349 1322.72 349H1189.18V139ZM1316.32 300.1C1331.97 300.1 1339.79 294 1339.79 281.8C1339.79 269.6 1331.97 263.5 1316.32 263.5H1257.47V300.1H1316.32ZM1312.96 220C1319.47 220 1324.45 218.6 1327.9 215.8C1331.36 213 1333.08 209 1333.08 203.8C1333.08 198.8 1331.36 194.9 1327.9 192.1C1324.45 189.1 1319.47 187.6 1312.96 187.6H1257.47V220H1312.96ZM1547.62 353.5C1511.23 353.5 1483.08 346 1463.16 331C1443.24 316 1433.28 291.5 1433.28 257.5V139H1502.19V253.3C1502.19 269.3 1505.65 280.5 1512.56 286.9C1519.47 293.1 1531.15 296.2 1547.62 296.2C1564.08 296.2 1575.77 293.1 1582.68 286.9C1589.59 280.5 1593.05 269.3 1593.05 253.3V139H1661.65V257.5C1661.65 291.5 1651.69 316 1631.77 331C1612.05 346 1584 353.5 1547.62 353.5ZM1791.64 353.5C1750.99 353.5 1717.65 347 1691.63 334V275.5C1705.46 283.3 1720.6 289.2 1737.06 293.2C1753.53 297 1770.5 298.9 1787.98 298.9C1801.6 298.9 1810.95 298.1 1816.03 296.5C1821.32 294.7 1823.96 291.8 1823.96 287.8C1823.96 284.2 1820.71 281.2 1814.2 278.8C1807.7 276.4 1797.64 273.7 1784.02 270.7C1765.32 266.3 1749.67 262 1737.06 257.8C1724.46 253.4 1713.38 246.8 1703.83 238C1694.48 229.2 1689.81 217.8 1689.81 203.8C1689.81 180.6 1698.34 163.3 1715.42 151.9C1732.69 140.3 1757.19 134.5 1788.9 134.5C1806.78 134.5 1824.16 136 1841.03 139C1857.9 141.8 1872.13 145.8 1883.72 151V208C1858.72 195.4 1830.16 189.1 1798.04 189.1C1784.22 189.1 1774.77 189.9 1769.69 191.5C1764.61 193.1 1762.06 195.6 1762.06 199C1762.06 202.8 1765.32 205.9 1771.82 208.3C1778.33 210.7 1789 213.6 1803.83 217C1822.53 221.4 1838.08 225.8 1850.48 230.2C1863.09 234.4 1873.96 240.7 1883.11 249.1C1892.46 257.3 1897.13 267.9 1897.13 280.9C1897.13 307.3 1888.19 326 1870.3 337C1852.62 348 1826.4 353.5 1791.64 353.5Z"/>
<path d="M138.049 139.2H42.9226V216H-25.678V6H42.9226V82.2H138.049V6H206.954V216H138.049V139.2ZM355.989 220.5C319.605 220.5 291.454 213 271.534 198C251.614 183 241.655 158.5 241.655 124.5V6H310.56V120.3C310.56 136.3 314.016 147.5 320.927 153.9C327.837 160.1 339.525 163.2 355.989 163.2C372.453 163.2 384.141 160.1 391.052 153.9C397.962 147.5 401.418 136.3 401.418 120.3V6H470.018V124.5C470.018 158.5 460.059 183 440.139 198C420.423 213 392.373 220.5 355.989 220.5ZM505.202 6H641.489C666.49 6 685.292 10.5 697.894 19.5C710.699 28.3 717.102 41.5 717.102 59.1C717.102 70.1 714.358 79.5 708.87 87.3C703.585 95.1 695.861 100.9 685.698 104.7C697.894 108.3 707.549 114.4 714.663 123C721.777 131.6 725.334 142.6 725.334 156C725.334 176.2 717.915 191.3 703.077 201.3C688.442 211.1 666.998 216 638.745 216H505.202V6ZM632.342 167.1C647.993 167.1 655.819 161 655.819 148.8C655.819 136.6 647.993 130.5 632.342 130.5H573.498V167.1H632.342ZM628.988 87C635.493 87 640.473 85.6 643.928 82.8C647.384 80 649.111 76 649.111 70.8C649.111 65.8 647.384 61.9 643.928 59.1C640.473 56.1 635.493 54.6 628.988 54.6H573.498V87H628.988ZM863.645 220.5C827.262 220.5 799.11 213 779.19 198C759.271 183 749.311 158.5 749.311 124.5V6H818.216V120.3C818.216 136.3 821.672 147.5 828.583 153.9C835.494 160.1 847.181 163.2 863.645 163.2C880.109 163.2 891.797 160.1 898.708 153.9C905.619 147.5 909.074 136.3 909.074 120.3V6H977.675V124.5C977.675 158.5 967.715 183 947.795 198C928.079 213 900.029 220.5 863.645 220.5ZM1107.67 220.5C1067.01 220.5 1033.68 214 1007.66 201V142.5C1021.48 150.3 1036.63 156.2 1053.09 160.2C1069.55 164 1086.53 165.9 1104.01 165.9C1117.63 165.9 1126.98 165.1 1132.06 163.5C1137.34 161.7 1139.98 158.8 1139.98 154.8C1139.98 151.2 1136.73 148.2 1130.23 145.8C1123.72 143.4 1113.66 140.7 1100.04 137.7C1081.34 133.3 1065.69 129 1053.09 124.8C1040.49 120.4 1029.41 113.8 1019.86 105C1010.51 96.2 1005.83 84.8 1005.83 70.8C1005.83 47.6 1014.37 30.3 1031.44 18.9C1048.72 7.30002 1073.21 1.5 1104.92 1.5C1122.81 1.5 1140.19 3 1157.06 6C1173.93 8.8 1188.16 12.8 1199.74 18V75C1174.74 62.4 1146.18 56.1 1114.07 56.1C1100.25 56.1 1090.8 56.9 1085.71 58.5C1080.63 60.1 1078.09 62.6 1078.09 66C1078.09 69.8 1081.34 72.9 1087.85 75.3C1094.35 77.7 1105.02 80.6 1119.86 84C1138.56 88.4 1154.11 92.8 1166.51 97.2C1179.11 101.4 1189.99 107.7 1199.13 116.1C1208.48 124.3 1213.16 134.9 1213.16 147.9C1213.16 174.3 1204.21 193 1186.33 204C1168.64 215 1142.42 220.5 1107.67 220.5Z"/>
</mask>
<path d="M1419.3 43.7H1419.8V43.2H1419.3V43.7ZM1324.18 43.7V43.2H1323.68V43.7H1324.18ZM1324.18 120.5V121H1324.68V120.5H1324.18ZM1255.58 120.5L1255.08 120.498L1255.07 121H1255.58V120.5ZM1488.21 120.5V121H1488.71V120.5H1488.21ZM1419.3 120.5H1418.8V121H1419.3V120.5ZM1552.79 102.5L1553.09 102.101L1552.79 102.5ZM1602.18 58.4L1601.84 58.7669L1601.85 58.7722L1602.18 58.4ZM1672.31 58.4L1672.64 58.7722L1672.65 58.7669L1672.31 58.4ZM1721.39 102.5L1721.09 102.101L1721.09 102.102L1721.39 102.5ZM1786.46 120.5H1785.96V121H1786.46V120.5ZM1854.75 35V34.5H1854.25V35H1854.75ZM1854.75 71.6H1854.25V72.1H1854.75V71.6ZM1419.3 43.2H1324.18V44.2H1419.3V43.2ZM1323.68 43.7V120.5H1324.68V43.7H1323.68ZM1324.18 120H1255.58V121H1324.18V120ZM1488.21 120H1419.3V121H1488.21V120ZM1419.8 120.5V43.7H1418.8V120.5H1419.8ZM1637.24 124.5C1600.92 124.5 1572.89 117.011 1553.09 102.101L1552.49 102.899C1572.53 117.989 1600.8 125.5 1637.24 125.5V124.5ZM1553.09 102.101C1533.34 87.2267 1523.41 62.9043 1523.41 29H1522.41C1522.41 63.0957 1532.4 87.7733 1552.49 102.899L1553.09 102.101ZM1591.32 24.8C1591.32 40.847 1594.78 52.2238 1601.84 58.7669L1602.52 58.0331C1595.76 51.7762 1592.32 40.7531 1592.32 24.8H1591.32ZM1601.85 58.7722C1608.9 65.098 1620.74 68.2 1637.24 68.2V67.2C1620.82 67.2 1609.29 64.102 1602.52 58.0278L1601.85 58.7722ZM1637.24 68.2C1653.75 68.2 1665.59 65.098 1672.64 58.7722L1671.97 58.0278C1665.2 64.102 1653.67 67.2 1637.24 67.2V68.2ZM1672.65 58.7669C1679.71 52.2238 1683.17 40.847 1683.17 24.8H1682.17C1682.17 40.7531 1678.72 51.7762 1671.97 58.0331L1672.65 58.7669ZM1750.77 29C1750.77 62.9043 1740.85 87.2267 1721.09 102.101L1721.69 102.899C1741.78 87.7733 1751.77 63.0957 1751.77 29H1750.77ZM1721.09 102.102C1701.49 117.011 1673.57 124.5 1637.24 124.5V125.5C1673.69 125.5 1701.86 117.989 1721.7 102.898L1721.09 102.102ZM1920 120H1786.46V121H1920V120ZM1913.6 34.5H1854.75V35.5H1913.6V34.5ZM1854.25 35V71.6H1855.25V35H1854.25ZM1854.75 72.1H1913.6V71.1H1854.75V72.1ZM1488.71 120.5V0H1487.71V120.5H1488.71ZM1523.41 29V0H1522.41V29H1523.41ZM1592.32 24.8V0H1591.32V24.8H1592.32ZM1682.17 0V24.8H1683.17V0H1682.17ZM1751.77 29V0H1750.77V29H1751.77ZM1256.08 120.502L1256.59 0.0021085L1255.59 -0.0021085L1255.08 120.498L1256.08 120.502ZM1786.96 120.5V0H1785.96V120.5H1786.96ZM136.727 422.7H137.727V421.7H136.727V422.7ZM41.6006 422.7V421.7H40.6006V422.7H41.6006ZM41.6006 499.5V500.5H42.6006V499.5H41.6006ZM-27 499.5H-28V500.5H-27V499.5ZM-27 289.5V288.5H-28V289.5H-27ZM41.6006 289.5H42.6006V288.5H41.6006V289.5ZM41.6006 365.7H40.6006V366.7H41.6006V365.7ZM136.727 365.7V366.7H137.727V365.7H136.727ZM136.727 289.5V288.5H135.727V289.5H136.727ZM205.632 289.5H206.632V288.5H205.632V289.5ZM205.632 499.5V500.5H206.632V499.5H205.632ZM136.727 499.5H135.727V500.5H136.727V499.5ZM270.212 481.5L270.814 480.701L270.212 481.5ZM240.333 289.5V288.5H239.333V289.5H240.333ZM309.238 289.5H310.238V288.5H309.238V289.5ZM319.605 437.4L318.925 438.134L318.931 438.139L318.937 438.144L319.605 437.4ZM389.73 437.4L390.397 438.144L390.403 438.139L390.409 438.134L389.73 437.4ZM400.096 289.5V288.5H399.096V289.5H400.096ZM468.696 289.5H469.696V288.5H468.696V289.5ZM438.817 481.5L438.216 480.701L438.212 480.704L438.817 481.5ZM503.88 289.5V288.5H502.88V289.5H503.88ZM696.572 303L695.991 303.814L695.998 303.819L696.005 303.824L696.572 303ZM707.548 370.8L706.73 370.225L706.725 370.232L706.72 370.239L707.548 370.8ZM684.376 388.2L684.026 387.263L681.222 388.312L684.093 389.159L684.376 388.2ZM713.341 406.5L712.57 407.137L713.341 406.5ZM701.755 484.8L702.311 485.631L702.314 485.629L701.755 484.8ZM503.88 499.5H502.88V500.5H503.88V499.5ZM572.176 414V413H571.176V414H572.176ZM572.176 450.6H571.176V451.6H572.176V450.6ZM642.606 366.3L641.977 365.523L642.606 366.3ZM642.606 342.6L641.951 343.355L641.963 343.366L641.977 343.377L642.606 342.6ZM572.176 338.1V337.1H571.176V338.1H572.176ZM572.176 370.5H571.176V371.5H572.176V370.5ZM777.868 481.5L778.47 480.701L777.868 481.5ZM747.989 289.5V288.5H746.989V289.5H747.989ZM816.894 289.5H817.894V288.5H816.894V289.5ZM827.261 437.4L826.581 438.134L826.587 438.139L826.593 438.144L827.261 437.4ZM897.386 437.4L898.054 438.144L898.06 438.139L898.065 438.134L897.386 437.4ZM907.752 289.5V288.5H906.752V289.5H907.752ZM976.353 289.5H977.353V288.5H976.353V289.5ZM946.473 481.5L945.872 480.701L945.868 480.704L946.473 481.5ZM1006.34 484.5H1005.34V485.118L1005.89 485.395L1006.34 484.5ZM1006.34 426L1006.83 425.129L1005.34 424.287V426H1006.34ZM1051.77 443.7L1051.53 444.672L1051.54 444.674L1051.77 443.7ZM1130.73 447L1131.04 447.954L1131.05 447.95L1131.06 447.947L1130.73 447ZM1128.91 429.3L1129.25 428.362L1128.91 429.3ZM1098.72 421.2L1098.49 422.173L1098.5 422.175L1098.51 422.177L1098.72 421.2ZM1051.77 408.3L1051.44 409.244L1051.45 409.246L1051.45 409.249L1051.77 408.3ZM1018.54 388.5L1017.85 389.228L1017.86 389.236L1018.54 388.5ZM1030.12 302.4L1030.68 303.232L1030.68 303.23L1030.12 302.4ZM1155.74 289.5L1155.56 290.485L1155.57 290.487L1155.74 289.5ZM1198.42 301.5H1199.42V300.853L1198.83 300.588L1198.42 301.5ZM1198.42 358.5L1197.97 359.393L1199.42 360.124V358.5H1198.42ZM1086.53 358.8L1086.18 359.738L1086.53 358.8ZM1118.54 367.5L1118.77 366.527L1118.76 366.525L1118.54 367.5ZM1165.19 380.7L1164.85 381.642L1164.86 381.646L1164.87 381.649L1165.19 380.7ZM1197.81 399.6L1197.13 400.337L1197.14 400.344L1197.15 400.352L1197.81 399.6ZM1185.01 487.5L1184.48 486.648L1184.48 486.651L1185.01 487.5ZM843.059 422.7H844.059V421.7H843.059V422.7ZM747.933 422.7V421.7H746.933V422.7H747.933ZM747.933 499.5V500.5H748.933V499.5H747.933ZM679.332 499.5H678.332V500.5H679.332V499.5ZM679.332 289.5V288.5H678.332V289.5H679.332ZM747.933 289.5H748.933V288.5H747.933V289.5ZM747.933 365.7H746.933V366.7H747.933V365.7ZM843.059 365.7V366.7H844.059V365.7H843.059ZM843.059 289.5V288.5H842.059V289.5H843.059ZM911.964 289.5H912.964V288.5H911.964V289.5ZM911.964 499.5V500.5H912.964V499.5H911.964ZM843.059 499.5H842.059V500.5H843.059V499.5ZM976.544 481.5L977.146 480.701L976.544 481.5ZM946.665 289.5V288.5H945.665V289.5H946.665ZM1015.57 289.5H1016.57V288.5H1015.57V289.5ZM1025.94 437.4L1025.26 438.134L1025.26 438.139L1025.27 438.144L1025.94 437.4ZM1096.06 437.4L1096.73 438.144L1096.74 438.139L1096.74 438.134L1096.06 437.4ZM1106.43 289.5V288.5H1105.43V289.5H1106.43ZM1175.03 289.5H1176.03V288.5H1175.03V289.5ZM1145.15 481.5L1144.55 480.701L1144.54 480.704L1145.15 481.5ZM1210.21 289.5V288.5H1209.21V289.5H1210.21ZM1402.9 303L1402.32 303.814L1402.33 303.819L1402.34 303.824L1402.9 303ZM1413.88 370.8L1413.06 370.225L1413.06 370.232L1413.05 370.239L1413.88 370.8ZM1390.71 388.2L1390.36 387.263L1387.55 388.312L1390.43 389.159L1390.71 388.2ZM1419.67 406.5L1418.9 407.137L1419.67 406.5ZM1408.09 484.8L1408.64 485.631L1408.65 485.629L1408.09 484.8ZM1210.21 499.5H1209.21V500.5H1210.21V499.5ZM1278.51 414V413H1277.51V414H1278.51ZM1278.51 450.6H1277.51V451.6H1278.51V450.6ZM1348.94 366.3L1348.31 365.523L1348.94 366.3ZM1348.94 342.6L1348.28 343.355L1348.3 343.366L1348.31 343.377L1348.94 342.6ZM1278.51 338.1V337.1H1277.51V338.1H1278.51ZM1278.51 370.5H1277.51V371.5H1278.51V370.5ZM1484.2 481.5L1484.8 480.701L1484.2 481.5ZM1454.32 289.5V288.5H1453.32V289.5H1454.32ZM1523.23 289.5H1524.23V288.5H1523.23V289.5ZM1533.59 437.4L1532.91 438.134L1532.92 438.139L1532.93 438.144L1533.59 437.4ZM1603.72 437.4L1604.39 438.144L1604.39 438.139L1604.4 438.134L1603.72 437.4ZM1614.08 289.5V288.5H1613.08V289.5H1614.08ZM1682.68 289.5H1683.68V288.5H1682.68V289.5ZM1652.81 481.5L1652.2 480.701L1652.2 480.704L1652.81 481.5ZM1712.67 484.5H1711.67V485.118L1712.22 485.395L1712.67 484.5ZM1712.67 426L1713.16 425.129L1711.67 424.287V426H1712.67ZM1758.1 443.7L1757.86 444.672L1757.88 444.674L1758.1 443.7ZM1837.07 447L1837.37 447.954L1837.38 447.95L1837.39 447.947L1837.07 447ZM1835.24 429.3L1835.58 428.362L1835.24 429.3ZM1805.05 421.2L1804.82 422.173L1804.83 422.175L1804.84 422.177L1805.05 421.2ZM1758.1 408.3L1757.77 409.244L1757.78 409.246L1757.78 409.249L1758.1 408.3ZM1724.87 388.5L1724.18 389.228L1724.19 389.236L1724.87 388.5ZM1736.45 302.4L1737.01 303.232L1737.01 303.23L1736.45 302.4ZM1862.07 289.5L1861.89 290.485L1861.9 290.487L1862.07 289.5ZM1904.75 301.5H1905.75V300.853L1905.16 300.588L1904.75 301.5ZM1904.75 358.5L1904.3 359.393L1905.75 360.124V358.5H1904.75ZM1792.86 358.8L1792.51 359.738L1792.86 358.8ZM1824.87 367.5L1825.1 366.527L1825.09 366.525L1824.87 367.5ZM1871.52 380.7L1871.19 381.642L1871.19 381.646L1871.2 381.649L1871.52 380.7ZM1904.14 399.6L1903.47 400.337L1903.48 400.344L1903.48 400.352L1904.14 399.6ZM1891.34 487.5L1890.81 486.648L1890.81 486.651L1891.34 487.5ZM822.022 272.2H823.022V271.2H822.022V272.2ZM726.896 272.2V271.2H725.896V272.2H726.896ZM726.896 349V350H727.896V349H726.896ZM658.295 349H657.295V350H658.295V349ZM658.295 139V138H657.295V139H658.295ZM726.896 139H727.896V138H726.896V139ZM726.896 215.2H725.896V216.2H726.896V215.2ZM822.022 215.2V216.2H823.022V215.2H822.022ZM822.022 139V138H821.022V139H822.022ZM890.928 139H891.928V138H890.928V139ZM890.928 349V350H891.928V349H890.928ZM822.022 349H821.022V350H822.022V349ZM955.507 331L956.109 330.201L955.507 331ZM925.628 139V138H924.628V139H925.628ZM994.534 139H995.534V138H994.534V139ZM1004.9 286.9L1004.22 287.634L1004.23 287.639L1004.23 287.644L1004.9 286.9ZM1075.02 286.9L1075.69 287.644L1075.7 287.639L1075.7 287.634L1075.02 286.9ZM1085.39 139V138H1084.39V139H1085.39ZM1153.99 139H1154.99V138H1153.99V139ZM1124.11 331L1123.51 330.201L1123.51 330.204L1124.11 331ZM1189.18 139V138H1188.18V139H1189.18ZM1381.87 152.5L1381.29 153.314L1381.29 153.319L1381.3 153.324L1381.87 152.5ZM1392.84 220.3L1392.03 219.725L1392.02 219.732L1392.02 219.739L1392.84 220.3ZM1369.67 237.7L1369.32 236.763L1366.52 237.812L1369.39 238.659L1369.67 237.7ZM1398.64 256L1397.87 256.637L1398.64 256ZM1387.05 334.3L1387.61 335.131L1387.61 335.129L1387.05 334.3ZM1189.18 349H1188.18V350H1189.18V349ZM1257.47 263.5V262.5H1256.47V263.5H1257.47ZM1257.47 300.1H1256.47V301.1H1257.47V300.1ZM1327.9 215.8L1327.27 215.023L1327.9 215.8ZM1327.9 192.1L1327.25 192.855L1327.26 192.866L1327.27 192.877L1327.9 192.1ZM1257.47 187.6V186.6H1256.47V187.6H1257.47ZM1257.47 220H1256.47V221H1257.47V220ZM1463.16 331L1463.77 330.201L1463.16 331ZM1433.28 139V138H1432.28V139H1433.28ZM1502.19 139H1503.19V138H1502.19V139ZM1512.56 286.9L1511.88 287.634L1511.88 287.639L1511.89 287.644L1512.56 286.9ZM1582.68 286.9L1583.35 287.644L1583.35 287.639L1583.36 287.634L1582.68 286.9ZM1593.05 139V138H1592.05V139H1593.05ZM1661.65 139H1662.65V138H1661.65V139ZM1631.77 331L1631.17 330.201L1631.16 330.204L1631.77 331ZM1691.63 334H1690.63V334.618L1691.19 334.895L1691.63 334ZM1691.63 275.5L1692.13 274.629L1690.63 273.787V275.5H1691.63ZM1737.06 293.2L1736.83 294.172L1736.84 294.174L1737.06 293.2ZM1816.03 296.5L1816.33 297.454L1816.34 297.45L1816.35 297.447L1816.03 296.5ZM1814.2 278.8L1814.55 277.862L1814.2 278.8ZM1784.02 270.7L1783.79 271.673L1783.79 271.675L1783.8 271.677L1784.02 270.7ZM1737.06 257.8L1736.73 258.744L1736.74 258.746L1736.75 258.749L1737.06 257.8ZM1703.83 238L1703.14 238.728L1703.15 238.736L1703.83 238ZM1715.42 151.9L1715.97 152.732L1715.97 152.73L1715.42 151.9ZM1841.03 139L1840.86 139.985L1840.87 139.987L1841.03 139ZM1883.72 151H1884.72V150.353L1884.13 150.088L1883.72 151ZM1883.72 208L1883.27 208.893L1884.72 209.624V208H1883.72ZM1771.82 208.3L1771.47 209.238L1771.82 208.3ZM1803.83 217L1804.06 216.027L1804.06 216.025L1803.83 217ZM1850.48 230.2L1850.15 231.142L1850.16 231.146L1850.17 231.149L1850.48 230.2ZM1883.11 249.1L1882.43 249.837L1882.44 249.844L1882.45 249.852L1883.11 249.1ZM1870.3 337L1869.78 336.148L1869.77 336.151L1870.3 337ZM138.049 139.2H139.049V138.2H138.049V139.2ZM42.9226 139.2V138.2H41.9226V139.2H42.9226ZM42.9226 216V217H43.9226V216H42.9226ZM-25.678 216H-26.678V217H-25.678V216ZM-25.678 6V5H-26.678V6H-25.678ZM42.9226 6H43.9226V5H42.9226V6ZM42.9226 82.2H41.9226V83.2H42.9226V82.2ZM138.049 82.2V83.2H139.049V82.2H138.049ZM138.049 6V5H137.049V6H138.049ZM206.954 6H207.954V5H206.954V6ZM206.954 216V217H207.954V216H206.954ZM138.049 216H137.049V217H138.049V216ZM271.534 198L272.136 197.201L271.534 198ZM241.655 6V5H240.655V6H241.655ZM310.56 6H311.56V5H310.56V6ZM320.927 153.9L320.247 154.634L320.253 154.639L320.259 154.644L320.927 153.9ZM391.052 153.9L391.719 154.644L391.725 154.639L391.731 154.634L391.052 153.9ZM401.418 6V5H400.418V6H401.418ZM470.018 6H471.018V5H470.018V6ZM440.139 198L439.538 197.201L439.534 197.204L440.139 198ZM505.202 6V5H504.202V6H505.202ZM697.894 19.5L697.313 20.3138L697.32 20.319L697.328 20.3242L697.894 19.5ZM708.87 87.3L708.052 86.7246L708.047 86.7318L708.042 86.7391L708.87 87.3ZM685.698 104.7L685.348 103.763L682.544 104.812L685.415 105.659L685.698 104.7ZM714.663 123L713.892 123.637L714.663 123ZM703.077 201.3L703.633 202.131L703.636 202.129L703.077 201.3ZM505.202 216H504.202V217H505.202V216ZM573.498 130.5V129.5H572.498V130.5H573.498ZM573.498 167.1H572.498V168.1H573.498V167.1ZM643.928 82.8L643.299 82.023V82.0231L643.928 82.8ZM643.928 59.1L643.273 59.8551L643.285 59.8663L643.299 59.877L643.928 59.1ZM573.498 54.6V53.6H572.498V54.6H573.498ZM573.498 87H572.498V88H573.498V87ZM779.19 198L779.792 197.201L779.19 198ZM749.311 6V5H748.311V6H749.311ZM818.216 6H819.216V5H818.216V6ZM828.583 153.9L827.903 154.634L827.909 154.639L827.915 154.644L828.583 153.9ZM898.708 153.9L899.376 154.644L899.382 154.639L899.387 154.634L898.708 153.9ZM909.074 6V5H908.074V6H909.074ZM977.675 6H978.675V5H977.675V6ZM947.795 198L947.194 197.201L947.19 197.204L947.795 198ZM1007.66 201H1006.66V201.618L1007.21 201.895L1007.66 201ZM1007.66 142.5L1008.15 141.629L1006.66 140.787V142.5H1007.66ZM1053.09 160.2L1052.85 161.172L1052.87 161.174L1053.09 160.2ZM1132.06 163.5L1132.36 164.454L1132.37 164.45L1132.38 164.447L1132.06 163.5ZM1130.23 145.8L1130.57 144.862L1130.23 145.8ZM1100.04 137.7L1099.81 138.673L1099.82 138.675L1099.83 138.677L1100.04 137.7ZM1053.09 124.8L1052.76 125.744L1052.77 125.746L1052.77 125.749L1053.09 124.8ZM1019.86 105L1019.17 105.728L1019.18 105.736L1019.86 105ZM1031.44 18.9L1032 19.7317L1032 19.7303L1031.44 18.9ZM1157.06 6L1156.88 6.98462L1156.89 6.98651L1157.06 6ZM1199.74 18H1200.74V17.3527L1200.15 17.0877L1199.74 18ZM1199.74 75L1199.29 75.893L1200.74 76.6238V75H1199.74ZM1087.85 75.3L1087.5 76.2382L1087.85 75.3ZM1119.86 84L1120.09 83.0266L1120.08 83.0253L1119.86 84ZM1166.51 97.2L1166.18 98.1424L1166.18 98.1457L1166.19 98.1487L1166.51 97.2ZM1199.13 116.1L1198.46 116.837L1198.47 116.844L1198.47 116.852L1199.13 116.1ZM1186.33 204L1185.8 203.148L1185.8 203.151L1186.33 204ZM136.727 421.7H41.6006V423.7H136.727V421.7ZM40.6006 422.7V499.5H42.6006V422.7H40.6006ZM41.6006 498.5H-27V500.5H41.6006V498.5ZM-26 499.5V289.5H-28V499.5H-26ZM-27 290.5H41.6006V288.5H-27V290.5ZM40.6006 289.5V365.7H42.6006V289.5H40.6006ZM41.6006 366.7H136.727V364.7H41.6006V366.7ZM137.727 365.7V289.5H135.727V365.7H137.727ZM136.727 290.5H205.632V288.5H136.727V290.5ZM204.632 289.5V499.5H206.632V289.5H204.632ZM205.632 498.5H136.727V500.5H205.632V498.5ZM137.727 499.5V422.7H135.727V499.5H137.727ZM354.667 503C318.405 503 290.496 495.523 270.814 480.701L269.611 482.299C289.767 497.477 318.162 505 354.667 505V503ZM270.814 480.701C251.229 465.953 241.333 441.809 241.333 408H239.333C239.333 442.191 249.356 467.047 269.611 482.299L270.814 480.701ZM241.333 408V289.5H239.333V408H241.333ZM240.333 290.5H309.238V288.5H240.333V290.5ZM308.238 289.5V403.8H310.238V289.5H308.238ZM308.238 403.8C308.238 419.894 311.705 431.448 318.925 438.134L320.284 436.666C313.682 430.552 310.238 419.706 310.238 403.8H308.238ZM318.937 438.144C326.128 444.596 338.129 447.7 354.667 447.7V445.7C338.277 445.7 326.903 442.604 320.272 436.656L318.937 438.144ZM354.667 447.7C371.205 447.7 383.206 444.596 390.397 438.144L389.062 436.656C382.432 442.604 371.057 445.7 354.667 445.7V447.7ZM390.409 438.134C397.629 431.448 401.096 419.894 401.096 403.8H399.096C399.096 419.706 395.652 430.552 389.05 436.666L390.409 438.134ZM401.096 403.8V289.5H399.096V403.8H401.096ZM400.096 290.5H468.696V288.5H400.096V290.5ZM467.696 289.5V408H469.696V289.5H467.696ZM467.696 408C467.696 441.809 457.8 465.953 438.216 480.701L439.419 482.299C459.673 467.047 469.696 442.191 469.696 408H467.696ZM438.212 480.704C418.734 495.522 390.93 503 354.667 503V505C391.171 505 419.467 497.478 439.423 482.296L438.212 480.704ZM503.88 290.5H640.167V288.5H503.88V290.5ZM640.167 290.5C665.077 290.5 683.634 294.989 695.991 303.814L697.153 302.186C684.306 293.011 665.259 288.5 640.167 288.5V290.5ZM696.005 303.824C708.5 312.411 714.78 325.279 714.78 342.6H716.78C716.78 324.721 710.255 311.189 697.138 302.176L696.005 303.824ZM714.78 342.6C714.78 353.427 712.082 362.618 706.73 370.225L708.366 371.375C713.99 363.382 716.78 353.773 716.78 342.6H714.78ZM706.72 370.239C701.569 377.842 694.025 383.525 684.026 387.263L684.727 389.137C695.053 385.275 702.958 379.358 708.376 371.361L706.72 370.239ZM684.093 389.159C696.125 392.711 705.6 398.711 712.57 407.137L714.112 405.863C706.853 397.089 697.018 390.889 684.659 387.241L684.093 389.159ZM712.57 407.137C719.508 415.524 723.012 426.284 723.012 439.5H725.012C725.012 425.916 721.402 414.676 714.112 405.863L712.57 407.137ZM723.012 439.5C723.012 459.418 715.719 474.183 701.196 483.971L702.314 485.629C717.467 475.417 725.012 459.982 725.012 439.5H723.012ZM701.199 483.969C686.8 493.611 665.587 498.5 637.423 498.5V500.5C665.765 500.5 687.44 495.589 702.311 485.631L701.199 483.969ZM637.423 498.5H503.88V500.5H637.423V498.5ZM504.88 499.5V289.5H502.88V499.5H504.88ZM631.02 451.6C638.948 451.6 645.078 450.06 649.242 446.814C653.454 443.531 655.497 438.63 655.497 432.3H653.497C653.497 438.17 651.627 442.419 648.013 445.236C644.352 448.09 638.743 449.6 631.02 449.6V451.6ZM655.497 432.3C655.497 425.97 653.454 421.069 649.242 417.786C645.078 414.54 638.948 413 631.02 413V415C638.743 415 644.352 416.51 648.013 419.364C651.627 422.181 653.497 426.43 653.497 432.3H655.497ZM631.02 413H572.176V415H631.02V413ZM571.176 414V450.6H573.176V414H571.176ZM572.176 451.6H631.02V449.6H572.176V451.6ZM627.666 371.5C634.297 371.5 639.536 370.075 643.236 367.077L641.977 365.523C638.765 368.125 634.044 369.5 627.666 369.5V371.5ZM643.236 367.077C646.966 364.054 648.789 359.745 648.789 354.3H646.789C646.789 359.255 645.157 362.946 641.977 365.523L643.236 367.077ZM648.789 354.3C648.789 349.041 646.956 344.838 643.236 341.823L641.977 343.377C645.167 345.962 646.789 349.559 646.789 354.3H648.789ZM643.262 341.845C639.561 338.632 634.311 337.1 627.666 337.1V339.1C634.03 339.1 638.741 340.568 641.951 343.355L643.262 341.845ZM627.666 337.1H572.176V339.1H627.666V337.1ZM571.176 338.1V370.5H573.176V338.1H571.176ZM572.176 371.5H627.666V369.5H572.176V371.5ZM862.323 503C826.061 503 798.153 495.523 778.47 480.701L777.267 482.299C797.423 497.477 825.818 505 862.323 505V503ZM778.47 480.701C758.885 465.953 748.989 441.809 748.989 408H746.989C746.989 442.191 757.012 467.047 777.267 482.299L778.47 480.701ZM748.989 408V289.5H746.989V408H748.989ZM747.989 290.5H816.894V288.5H747.989V290.5ZM815.894 289.5V403.8H817.894V289.5H815.894ZM815.894 403.8C815.894 419.894 819.362 431.448 826.581 438.134L827.94 436.666C821.338 430.552 817.894 419.706 817.894 403.8H815.894ZM826.593 438.144C833.784 444.596 845.785 447.7 862.323 447.7V445.7C845.933 445.7 834.559 442.604 827.929 436.656L826.593 438.144ZM862.323 447.7C878.861 447.7 890.862 444.596 898.054 438.144L896.718 436.656C890.088 442.604 878.714 445.7 862.323 445.7V447.7ZM898.065 438.134C905.285 431.448 908.752 419.894 908.752 403.8H906.752C906.752 419.706 903.308 430.552 896.706 436.666L898.065 438.134ZM908.752 403.8V289.5H906.752V403.8H908.752ZM907.752 290.5H976.353V288.5H907.752V290.5ZM975.353 289.5V408H977.353V289.5H975.353ZM975.353 408C975.353 441.809 965.456 465.953 945.872 480.701L947.075 482.299C967.329 467.047 977.353 442.191 977.353 408H975.353ZM945.868 480.704C926.39 495.522 898.587 503 862.323 503V505C898.827 505 927.124 497.478 947.079 482.296L945.868 480.704ZM1106.34 503C1065.79 503 1032.62 496.514 1006.79 483.605L1005.89 485.395C1032.09 498.486 1065.59 505 1106.34 505V503ZM1007.34 484.5V426H1005.34V484.5H1007.34ZM1005.85 426.871C1019.75 434.719 1034.98 440.651 1051.53 444.672L1052 442.728C1035.62 438.749 1020.57 432.881 1006.83 425.129L1005.85 426.871ZM1051.54 444.674C1068.08 448.492 1085.13 450.4 1102.69 450.4V448.4C1085.28 448.4 1068.38 446.508 1051.99 442.726L1051.54 444.674ZM1102.69 450.4C1116.3 450.4 1125.79 449.606 1131.04 447.954L1130.43 446.046C1125.52 447.594 1116.31 448.4 1102.69 448.4V450.4ZM1131.06 447.947C1133.8 447.014 1135.95 445.765 1137.42 444.148C1138.91 442.51 1139.66 440.544 1139.66 438.3H1137.66C1137.66 440.056 1137.09 441.54 1135.94 442.801C1134.77 444.085 1132.96 445.186 1130.41 446.053L1131.06 447.947ZM1139.66 438.3C1139.66 436.159 1138.68 434.258 1136.9 432.615C1135.14 430.99 1132.56 429.584 1129.25 428.362L1128.56 430.238C1131.75 431.416 1134.05 432.71 1135.55 434.085C1137.02 435.442 1137.66 436.841 1137.66 438.3H1139.66ZM1129.25 428.362C1122.68 425.937 1112.56 423.226 1098.94 420.223L1098.51 422.177C1112.12 425.174 1122.12 427.863 1128.56 430.238L1129.25 428.362ZM1098.95 420.227C1080.27 415.831 1064.65 411.539 1052.08 407.351L1051.45 409.249C1064.09 413.461 1079.77 417.769 1098.49 422.173L1098.95 420.227ZM1052.1 407.356C1039.62 403 1028.66 396.469 1019.21 387.764L1017.86 389.236C1027.51 398.131 1038.71 404.8 1051.44 409.244L1052.1 407.356ZM1019.22 387.772C1010.09 379.179 1005.51 368.052 1005.51 354.3H1003.51C1003.51 368.548 1008.28 380.221 1017.85 389.228L1019.22 387.772ZM1005.51 354.3C1005.51 331.383 1013.92 314.42 1030.68 303.232L1029.57 301.568C1012.17 313.18 1003.51 330.817 1003.51 354.3H1005.51ZM1030.68 303.23C1047.73 291.785 1071.99 286 1103.6 286V284C1071.79 284 1047.07 289.815 1029.56 301.57L1030.68 303.23ZM1103.6 286C1121.43 286 1138.75 287.495 1155.56 290.485L1155.91 288.515C1138.98 285.505 1121.54 284 1103.6 284V286ZM1155.57 290.487C1172.39 293.277 1186.53 297.257 1198.01 302.412L1198.83 300.588C1187.14 295.343 1172.83 291.323 1155.9 288.513L1155.57 290.487ZM1197.42 301.5V358.5H1199.42V301.5H1197.42ZM1198.87 357.607C1173.71 344.927 1144.99 338.6 1112.75 338.6V340.6C1144.73 340.6 1173.13 346.873 1197.97 359.393L1198.87 357.607ZM1112.75 338.6C1098.93 338.6 1089.34 339.394 1084.09 341.046L1084.69 342.954C1089.61 341.406 1098.91 340.6 1112.75 340.6V338.6ZM1084.09 341.046C1081.47 341.872 1079.4 342.96 1077.97 344.362C1076.52 345.79 1075.77 347.518 1075.77 349.5H1077.77C1077.77 348.082 1078.29 346.86 1079.38 345.788C1080.49 344.69 1082.23 343.728 1084.69 342.954L1084.09 341.046ZM1075.77 349.5C1075.77 353.996 1079.63 357.322 1086.18 359.738L1086.87 357.862C1080.41 355.478 1077.77 352.604 1077.77 349.5H1075.77ZM1086.18 359.738C1092.75 362.162 1103.47 365.074 1118.32 368.475L1118.76 366.525C1103.93 363.126 1093.31 360.238 1086.87 357.862L1086.18 359.738ZM1118.31 368.473C1136.99 372.868 1152.5 377.259 1164.85 381.642L1165.52 379.758C1153.08 375.341 1137.49 370.932 1118.77 366.527L1118.31 368.473ZM1164.87 381.649C1177.35 385.807 1188.1 392.038 1197.13 400.337L1198.49 398.863C1189.23 390.362 1178.23 383.993 1165.5 379.751L1164.87 381.649ZM1197.15 400.352C1206.27 408.352 1210.84 418.673 1210.84 431.4H1212.84C1212.84 418.127 1208.05 407.248 1198.47 398.848L1197.15 400.352ZM1210.84 431.4C1210.84 457.555 1201.99 475.878 1184.48 486.648L1185.53 488.352C1203.79 477.122 1212.84 458.045 1212.84 431.4H1210.84ZM1184.48 486.651C1167.03 497.507 1141.03 503 1106.34 503V505C1141.18 505 1167.62 499.493 1185.53 488.349L1184.48 486.651ZM843.059 421.7H747.933V423.7H843.059V421.7ZM746.933 422.7V499.5H748.933V422.7H746.933ZM747.933 498.5H679.332V500.5H747.933V498.5ZM680.332 499.5V289.5H678.332V499.5H680.332ZM679.332 290.5H747.933V288.5H679.332V290.5ZM746.933 289.5V365.7H748.933V289.5H746.933ZM747.933 366.7H843.059V364.7H747.933V366.7ZM844.059 365.7V289.5H842.059V365.7H844.059ZM843.059 290.5H911.964V288.5H843.059V290.5ZM910.964 289.5V499.5H912.964V289.5H910.964ZM911.964 498.5H843.059V500.5H911.964V498.5ZM844.059 499.5V422.7H842.059V499.5H844.059ZM1061 503C1024.74 503 996.828 495.523 977.146 480.701L975.943 482.299C996.099 497.477 1024.49 505 1061 505V503ZM977.146 480.701C957.561 465.953 947.665 441.809 947.665 408H945.665C945.665 442.191 955.688 467.047 975.943 482.299L977.146 480.701ZM947.665 408V289.5H945.665V408H947.665ZM946.665 290.5H1015.57V288.5H946.665V290.5ZM1014.57 289.5V403.8H1016.57V289.5H1014.57ZM1014.57 403.8C1014.57 419.894 1018.04 431.448 1025.26 438.134L1026.62 436.666C1020.01 430.552 1016.57 419.706 1016.57 403.8H1014.57ZM1025.27 438.144C1032.46 444.596 1044.46 447.7 1061 447.7V445.7C1044.61 445.7 1033.23 442.604 1026.6 436.656L1025.27 438.144ZM1061 447.7C1077.54 447.7 1089.54 444.596 1096.73 438.144L1095.39 436.656C1088.76 442.604 1077.39 445.7 1061 445.7V447.7ZM1096.74 438.134C1103.96 431.448 1107.43 419.894 1107.43 403.8H1105.43C1105.43 419.706 1101.98 430.552 1095.38 436.666L1096.74 438.134ZM1107.43 403.8V289.5H1105.43V403.8H1107.43ZM1106.43 290.5H1175.03V288.5H1106.43V290.5ZM1174.03 289.5V408H1176.03V289.5H1174.03ZM1174.03 408C1174.03 441.809 1164.13 465.953 1144.55 480.701L1145.75 482.299C1166.01 467.047 1176.03 442.191 1176.03 408H1174.03ZM1144.54 480.704C1125.07 495.522 1097.26 503 1061 503V505C1097.5 505 1125.8 497.478 1145.75 482.296L1144.54 480.704ZM1210.21 290.5H1346.5V288.5H1210.21V290.5ZM1346.5 290.5C1371.41 290.5 1389.97 294.989 1402.32 303.814L1403.49 302.186C1390.64 293.011 1371.59 288.5 1346.5 288.5V290.5ZM1402.34 303.824C1414.83 312.411 1421.11 325.279 1421.11 342.6H1423.11C1423.11 324.721 1416.59 311.189 1403.47 302.176L1402.34 303.824ZM1421.11 342.6C1421.11 353.427 1418.41 362.618 1413.06 370.225L1414.7 371.375C1420.32 363.382 1423.11 353.773 1423.11 342.6H1421.11ZM1413.05 370.239C1407.9 377.842 1400.36 383.525 1390.36 387.263L1391.06 389.137C1401.39 385.275 1409.29 379.358 1414.71 371.361L1413.05 370.239ZM1390.43 389.159C1402.46 392.711 1411.93 398.711 1418.9 407.137L1420.44 405.863C1413.19 397.089 1403.35 390.889 1390.99 387.241L1390.43 389.159ZM1418.9 407.137C1425.84 415.524 1429.34 426.284 1429.34 439.5H1431.34C1431.34 425.916 1427.73 414.676 1420.44 405.863L1418.9 407.137ZM1429.34 439.5C1429.34 459.418 1422.05 474.183 1407.53 483.971L1408.65 485.629C1423.8 475.417 1431.34 459.982 1431.34 439.5H1429.34ZM1407.53 483.969C1393.13 493.611 1371.92 498.5 1343.76 498.5V500.5C1372.1 500.5 1393.77 495.589 1408.64 485.631L1407.53 483.969ZM1343.76 498.5H1210.21V500.5H1343.76V498.5ZM1211.21 499.5V289.5H1209.21V499.5H1211.21ZM1337.35 451.6C1345.28 451.6 1351.41 450.06 1355.57 446.814C1359.79 443.531 1361.83 438.63 1361.83 432.3H1359.83C1359.83 438.17 1357.96 442.419 1354.34 445.236C1350.68 448.09 1345.08 449.6 1337.35 449.6V451.6ZM1361.83 432.3C1361.83 425.97 1359.79 421.069 1355.57 417.786C1351.41 414.54 1345.28 413 1337.35 413V415C1345.08 415 1350.68 416.51 1354.34 419.364C1357.96 422.181 1359.83 426.43 1359.83 432.3H1361.83ZM1337.35 413H1278.51V415H1337.35V413ZM1277.51 414V450.6H1279.51V414H1277.51ZM1278.51 451.6H1337.35V449.6H1278.51V451.6ZM1334 371.5C1340.63 371.5 1345.87 370.075 1349.57 367.077L1348.31 365.523C1345.1 368.125 1340.38 369.5 1334 369.5V371.5ZM1349.57 367.077C1353.3 364.054 1355.12 359.745 1355.12 354.3H1353.12C1353.12 359.255 1351.49 362.946 1348.31 365.523L1349.57 367.077ZM1355.12 354.3C1355.12 349.041 1353.29 344.838 1349.57 341.823L1348.31 343.377C1351.5 345.962 1353.12 349.559 1353.12 354.3H1355.12ZM1349.59 341.845C1345.89 338.632 1340.64 337.1 1334 337.1V339.1C1340.36 339.1 1345.07 340.568 1348.28 343.355L1349.59 341.845ZM1334 337.1H1278.51V339.1H1334V337.1ZM1277.51 338.1V370.5H1279.51V338.1H1277.51ZM1278.51 371.5H1334V369.5H1278.51V371.5ZM1568.66 503C1532.39 503 1504.48 495.523 1484.8 480.701L1483.6 482.299C1503.76 497.477 1532.15 505 1568.66 505V503ZM1484.8 480.701C1465.22 465.953 1455.32 441.809 1455.32 408H1453.32C1453.32 442.191 1463.34 467.047 1483.6 482.299L1484.8 480.701ZM1455.32 408V289.5H1453.32V408H1455.32ZM1454.32 290.5H1523.23V288.5H1454.32V290.5ZM1522.23 289.5V403.8H1524.23V289.5H1522.23ZM1522.23 403.8C1522.23 419.894 1525.69 431.448 1532.91 438.134L1534.27 436.666C1527.67 430.552 1524.23 419.706 1524.23 403.8H1522.23ZM1532.93 438.144C1540.12 444.596 1552.12 447.7 1568.66 447.7V445.7C1552.27 445.7 1540.89 442.604 1534.26 436.656L1532.93 438.144ZM1568.66 447.7C1585.19 447.7 1597.19 444.596 1604.39 438.144L1603.05 436.656C1596.42 442.604 1585.05 445.7 1568.66 445.7V447.7ZM1604.4 438.134C1611.62 431.448 1615.08 419.894 1615.08 403.8H1613.08C1613.08 419.706 1609.64 430.552 1603.04 436.666L1604.4 438.134ZM1615.08 403.8V289.5H1613.08V403.8H1615.08ZM1614.08 290.5H1682.68V288.5H1614.08V290.5ZM1681.68 289.5V408H1683.68V289.5H1681.68ZM1681.68 408C1681.68 441.809 1671.79 465.953 1652.2 480.701L1653.41 482.299C1673.66 467.047 1683.68 442.191 1683.68 408H1681.68ZM1652.2 480.704C1632.72 495.522 1604.92 503 1568.66 503V505C1605.16 505 1633.46 497.478 1653.41 482.296L1652.2 480.704ZM1812.68 503C1772.12 503 1738.95 496.514 1713.12 483.605L1712.22 485.395C1738.42 498.486 1771.93 505 1812.68 505V503ZM1713.67 484.5V426H1711.67V484.5H1713.67ZM1712.18 426.871C1726.09 434.719 1741.32 440.651 1757.86 444.672L1758.34 442.728C1741.96 438.749 1726.9 432.881 1713.16 425.129L1712.18 426.871ZM1757.88 444.674C1774.42 448.492 1791.46 450.4 1809.02 450.4V448.4C1791.61 448.4 1774.71 446.508 1758.33 442.726L1757.88 444.674ZM1809.02 450.4C1822.63 450.4 1832.12 449.606 1837.37 447.954L1836.77 446.046C1831.85 447.594 1822.64 448.4 1809.02 448.4V450.4ZM1837.39 447.947C1840.13 447.014 1842.28 445.765 1843.75 444.148C1845.24 442.51 1845.99 440.544 1845.99 438.3H1843.99C1843.99 440.056 1843.42 441.54 1842.27 442.801C1841.1 444.085 1839.29 445.186 1836.74 446.053L1837.39 447.947ZM1845.99 438.3C1845.99 436.159 1845.01 434.258 1843.23 432.615C1841.47 430.99 1838.9 429.584 1835.58 428.362L1834.89 430.238C1838.08 431.416 1840.39 432.71 1841.88 434.085C1843.35 435.442 1843.99 436.841 1843.99 438.3H1845.99ZM1835.58 428.362C1829.01 425.937 1818.9 423.226 1805.27 420.223L1804.84 422.177C1818.45 425.174 1828.45 427.863 1834.89 430.238L1835.58 428.362ZM1805.28 420.227C1786.6 415.831 1770.98 411.539 1758.42 407.351L1757.78 409.249C1770.42 413.461 1786.11 417.769 1804.82 422.173L1805.28 420.227ZM1758.43 407.356C1745.95 403 1734.99 396.469 1725.54 387.764L1724.19 389.236C1733.85 398.131 1745.04 404.8 1757.77 409.244L1758.43 407.356ZM1725.55 387.772C1716.42 379.179 1711.84 368.052 1711.84 354.3H1709.84C1709.84 368.548 1714.61 380.221 1724.18 389.228L1725.55 387.772ZM1711.84 354.3C1711.84 331.383 1720.25 314.42 1737.01 303.232L1735.9 301.568C1718.51 313.18 1709.84 330.817 1709.84 354.3H1711.84ZM1737.01 303.23C1754.06 291.785 1778.32 286 1809.93 286V284C1778.12 284 1753.4 289.815 1735.9 301.57L1737.01 303.23ZM1809.93 286C1827.76 286 1845.08 287.495 1861.89 290.485L1862.24 288.515C1845.31 285.505 1827.87 284 1809.93 284V286ZM1861.9 290.487C1878.72 293.277 1892.86 297.257 1904.34 302.412L1905.16 300.588C1893.48 295.343 1879.16 291.323 1862.23 288.513L1861.9 290.487ZM1903.75 301.5V358.5H1905.75V301.5H1903.75ZM1905.2 357.607C1880.04 344.927 1851.33 338.6 1819.08 338.6V340.6C1851.06 340.6 1879.46 346.873 1904.3 359.393L1905.2 357.607ZM1819.08 338.6C1805.27 338.6 1795.67 339.394 1790.42 341.046L1791.02 342.954C1795.94 341.406 1805.25 340.6 1819.08 340.6V338.6ZM1790.42 341.046C1787.8 341.872 1785.73 342.96 1784.31 344.362C1782.85 345.79 1782.1 347.518 1782.1 349.5H1784.1C1784.1 348.082 1784.62 346.86 1785.71 345.788C1786.82 344.69 1788.57 343.728 1791.02 342.954L1790.42 341.046ZM1782.1 349.5C1782.1 353.996 1785.96 357.322 1792.51 359.738L1793.2 357.862C1786.74 355.478 1784.1 352.604 1784.1 349.5H1782.1ZM1792.51 359.738C1799.08 362.162 1809.81 365.074 1824.65 368.475L1825.09 366.525C1810.26 363.126 1799.64 360.238 1793.2 357.862L1792.51 359.738ZM1824.64 368.473C1843.32 372.868 1858.83 377.259 1871.19 381.642L1871.85 379.758C1859.41 375.341 1843.82 370.932 1825.1 366.527L1824.64 368.473ZM1871.2 381.649C1883.68 385.807 1894.43 392.038 1903.47 400.337L1904.82 398.863C1895.56 390.362 1884.56 383.993 1871.84 379.751L1871.2 381.649ZM1903.48 400.352C1912.61 408.352 1917.17 418.673 1917.17 431.4H1919.17C1919.17 418.127 1914.38 407.248 1904.8 398.848L1903.48 400.352ZM1917.17 431.4C1917.17 457.555 1908.33 475.878 1890.81 486.648L1891.86 488.352C1910.12 477.122 1919.17 458.045 1919.17 431.4H1917.17ZM1890.81 486.651C1873.36 497.507 1847.36 503 1812.68 503V505C1847.51 505 1873.95 499.493 1891.87 488.349L1890.81 486.651ZM822.022 271.2H726.896V273.2H822.022V271.2ZM725.896 272.2V349H727.896V272.2H725.896ZM726.896 348H658.295V350H726.896V348ZM659.295 349V139H657.295V349H659.295ZM658.295 140H726.896V138H658.295V140ZM725.896 139V215.2H727.896V139H725.896ZM726.896 216.2H822.022V214.2H726.896V216.2ZM823.022 215.2V139H821.022V215.2H823.022ZM822.022 140H890.928V138H822.022V140ZM889.928 139V349H891.928V139H889.928ZM890.928 348H822.022V350H890.928V348ZM823.022 349V272.2H821.022V349H823.022ZM1039.96 352.5C1003.7 352.5 975.792 345.023 956.109 330.201L954.906 331.799C975.062 346.977 1003.46 354.5 1039.96 354.5V352.5ZM956.109 330.201C936.524 315.453 926.628 291.309 926.628 257.5H924.628C924.628 291.691 934.651 316.547 954.906 331.799L956.109 330.201ZM926.628 257.5V139H924.628V257.5H926.628ZM925.628 140H994.534V138H925.628V140ZM993.534 139V253.3H995.534V139H993.534ZM993.534 253.3C993.534 269.394 997.001 280.948 1004.22 287.634L1005.58 286.166C998.977 280.052 995.534 269.206 995.534 253.3H993.534ZM1004.23 287.644C1011.42 294.096 1023.42 297.2 1039.96 297.2V295.2C1023.57 295.2 1012.2 292.104 1005.57 286.156L1004.23 287.644ZM1039.96 297.2C1056.5 297.2 1068.5 294.096 1075.69 287.644L1074.36 286.156C1067.73 292.104 1056.35 295.2 1039.96 295.2V297.2ZM1075.7 287.634C1082.92 280.948 1086.39 269.394 1086.39 253.3H1084.39C1084.39 269.206 1080.95 280.052 1074.35 286.166L1075.7 287.634ZM1086.39 253.3V139H1084.39V253.3H1086.39ZM1085.39 140H1153.99V138H1085.39V140ZM1152.99 139V257.5H1154.99V139H1152.99ZM1152.99 257.5C1152.99 291.309 1143.1 315.453 1123.51 330.201L1124.71 331.799C1144.97 316.547 1154.99 291.691 1154.99 257.5H1152.99ZM1123.51 330.204C1104.03 345.022 1076.23 352.5 1039.96 352.5V354.5C1076.47 354.5 1104.76 346.978 1124.72 331.796L1123.51 330.204ZM1189.18 140H1325.46V138H1189.18V140ZM1325.46 140C1350.37 140 1368.93 144.489 1381.29 153.314L1382.45 151.686C1369.6 142.511 1350.55 138 1325.46 138V140ZM1381.3 153.324C1393.8 161.911 1400.08 174.779 1400.08 192.1H1402.08C1402.08 174.221 1395.55 160.689 1382.43 151.676L1381.3 153.324ZM1400.08 192.1C1400.08 202.927 1397.38 212.118 1392.03 219.725L1393.66 220.875C1399.29 212.882 1402.08 203.273 1402.08 192.1H1400.08ZM1392.02 219.739C1386.86 227.342 1379.32 233.025 1369.32 236.763L1370.02 238.637C1380.35 234.775 1388.25 228.858 1393.67 220.861L1392.02 219.739ZM1369.39 238.659C1381.42 242.211 1390.9 248.211 1397.87 256.637L1399.41 255.363C1392.15 246.589 1382.31 240.389 1369.95 236.741L1369.39 238.659ZM1397.87 256.637C1404.8 265.024 1408.31 275.784 1408.31 289H1410.31C1410.31 275.416 1406.7 264.176 1399.41 255.363L1397.87 256.637ZM1408.31 289C1408.31 308.918 1401.01 323.683 1386.49 333.471L1387.61 335.129C1402.76 324.917 1410.31 309.482 1410.31 289H1408.31ZM1386.49 333.469C1372.1 343.111 1350.88 348 1322.72 348V350C1351.06 350 1372.74 345.089 1387.61 335.131L1386.49 333.469ZM1322.72 348H1189.18V350H1322.72V348ZM1190.18 349V139H1188.18V349H1190.18ZM1316.32 301.1C1324.24 301.1 1330.37 299.56 1334.54 296.314C1338.75 293.031 1340.79 288.13 1340.79 281.8H1338.79C1338.79 287.67 1336.92 291.919 1333.31 294.736C1329.65 297.59 1324.04 299.1 1316.32 299.1V301.1ZM1340.79 281.8C1340.79 275.47 1338.75 270.569 1334.54 267.286C1330.37 264.04 1324.24 262.5 1316.32 262.5V264.5C1324.04 264.5 1329.65 266.01 1333.31 268.864C1336.92 271.681 1338.79 275.93 1338.79 281.8H1340.79ZM1316.32 262.5H1257.47V264.5H1316.32V262.5ZM1256.47 263.5V300.1H1258.47V263.5H1256.47ZM1257.47 301.1H1316.32V299.1H1257.47V301.1ZM1312.96 221C1319.59 221 1324.83 219.575 1328.53 216.577L1327.27 215.023C1324.06 217.625 1319.34 219 1312.96 219V221ZM1328.53 216.577C1332.26 213.554 1334.08 209.245 1334.08 203.8H1332.08C1332.08 208.755 1330.45 212.446 1327.27 215.023L1328.53 216.577ZM1334.08 203.8C1334.08 198.541 1332.25 194.338 1328.53 191.323L1327.27 192.877C1330.46 195.462 1332.08 199.059 1332.08 203.8H1334.08ZM1328.56 191.345C1324.86 188.132 1319.61 186.6 1312.96 186.6V188.6C1319.33 188.6 1324.04 190.068 1327.25 192.855L1328.56 191.345ZM1312.96 186.6H1257.47V188.6H1312.96V186.6ZM1256.47 187.6V220H1258.47V187.6H1256.47ZM1257.47 221H1312.96V219H1257.47V221ZM1547.62 352.5C1511.36 352.5 1483.45 345.023 1463.77 330.201L1462.56 331.799C1482.72 346.977 1511.11 354.5 1547.62 354.5V352.5ZM1463.77 330.201C1444.18 315.453 1434.28 291.309 1434.28 257.5H1432.28C1432.28 291.691 1442.31 316.547 1462.56 331.799L1463.77 330.201ZM1434.28 257.5V139H1432.28V257.5H1434.28ZM1433.28 140H1502.19V138H1433.28V140ZM1501.19 139V253.3H1503.19V139H1501.19ZM1501.19 253.3C1501.19 269.394 1504.66 280.948 1511.88 287.634L1513.24 286.166C1506.63 280.052 1503.19 269.206 1503.19 253.3H1501.19ZM1511.89 287.644C1519.08 294.096 1531.08 297.2 1547.62 297.2V295.2C1531.23 295.2 1519.85 292.104 1513.22 286.156L1511.89 287.644ZM1547.62 297.2C1564.16 297.2 1576.16 294.096 1583.35 287.644L1582.01 286.156C1575.38 292.104 1564.01 295.2 1547.62 295.2V297.2ZM1583.36 287.634C1590.58 280.948 1594.05 269.394 1594.05 253.3H1592.05C1592.05 269.206 1588.6 280.052 1582 286.166L1583.36 287.634ZM1594.05 253.3V139H1592.05V253.3H1594.05ZM1593.05 140H1661.65V138H1593.05V140ZM1660.65 139V257.5H1662.65V139H1660.65ZM1660.65 257.5C1660.65 291.309 1650.75 315.453 1631.17 330.201L1632.37 331.799C1652.62 316.547 1662.65 291.691 1662.65 257.5H1660.65ZM1631.16 330.204C1611.69 345.022 1583.88 352.5 1547.62 352.5V354.5C1584.12 354.5 1612.42 346.978 1632.37 331.796L1631.16 330.204ZM1791.64 352.5C1751.08 352.5 1717.92 346.014 1692.08 333.105L1691.19 334.895C1717.39 347.986 1750.89 354.5 1791.64 354.5V352.5ZM1692.63 334V275.5H1690.63V334H1692.63ZM1691.14 276.371C1705.05 284.219 1720.28 290.151 1736.83 294.172L1737.3 292.228C1720.92 288.249 1705.86 282.381 1692.13 274.629L1691.14 276.371ZM1736.84 294.174C1753.38 297.992 1770.43 299.9 1787.98 299.9V297.9C1770.57 297.9 1753.68 296.008 1737.29 292.226L1736.84 294.174ZM1787.98 299.9C1801.59 299.9 1811.08 299.106 1816.33 297.454L1815.73 295.546C1810.81 297.094 1801.61 297.9 1787.98 297.9V299.9ZM1816.35 297.447C1819.09 296.514 1821.24 295.265 1822.71 293.649C1824.21 292.01 1824.96 290.044 1824.96 287.8H1822.96C1822.96 289.556 1822.39 291.04 1821.24 292.302C1820.07 293.585 1818.25 294.686 1815.71 295.553L1816.35 297.447ZM1824.96 287.8C1824.96 285.659 1823.98 283.758 1822.2 282.115C1820.44 280.49 1817.86 279.084 1814.55 277.862L1813.85 279.738C1817.05 280.916 1819.35 282.21 1820.84 283.585C1822.31 284.942 1822.96 286.341 1822.96 287.8H1824.96ZM1814.55 277.862C1807.98 275.437 1797.86 272.726 1784.23 269.723L1783.8 271.677C1797.41 274.674 1807.42 277.363 1813.85 279.738L1814.55 277.862ZM1784.25 269.727C1765.56 265.331 1749.94 261.039 1737.38 256.851L1736.75 258.749C1749.39 262.961 1765.07 267.269 1783.79 271.673L1784.25 269.727ZM1737.39 256.856C1724.92 252.5 1713.96 245.969 1704.51 237.264L1703.15 238.736C1712.81 247.631 1724.01 254.3 1736.73 258.744L1737.39 256.856ZM1704.52 237.272C1695.39 228.679 1690.81 217.552 1690.81 203.8H1688.81C1688.81 218.048 1693.57 229.721 1703.15 238.728L1704.52 237.272ZM1690.81 203.8C1690.81 180.883 1699.22 163.92 1715.97 152.732L1714.86 151.068C1697.47 162.68 1688.81 180.317 1688.81 203.8H1690.81ZM1715.97 152.73C1733.02 141.285 1757.29 135.5 1788.9 135.5V133.5C1757.08 133.5 1732.37 139.315 1714.86 151.07L1715.97 152.73ZM1788.9 135.5C1806.73 135.5 1824.05 136.995 1840.86 139.985L1841.21 138.015C1824.28 135.005 1806.84 133.5 1788.9 133.5V135.5ZM1840.87 139.987C1857.68 142.777 1871.82 146.757 1883.31 151.912L1884.13 150.088C1872.44 144.843 1858.12 140.823 1841.2 138.013L1840.87 139.987ZM1882.72 151V208H1884.72V151H1882.72ZM1884.17 207.107C1859.01 194.427 1830.29 188.1 1798.04 188.1V190.1C1830.02 190.1 1858.42 196.373 1883.27 208.893L1884.17 207.107ZM1798.04 188.1C1784.23 188.1 1774.63 188.894 1769.39 190.546L1769.99 192.454C1774.9 190.906 1784.21 190.1 1798.04 190.1V188.1ZM1769.39 190.546C1766.76 191.372 1764.69 192.46 1763.27 193.862C1761.82 195.29 1761.06 197.018 1761.06 199H1763.06C1763.06 197.582 1763.58 196.36 1764.67 195.288C1765.79 194.19 1767.53 193.228 1769.99 192.454L1769.39 190.546ZM1761.06 199C1761.06 203.496 1764.93 206.822 1771.47 209.238L1772.17 207.362C1765.71 204.978 1763.06 202.104 1763.06 199H1761.06ZM1771.47 209.238C1778.04 211.662 1788.77 214.574 1803.61 217.975L1804.06 216.025C1789.22 212.626 1778.61 209.738 1772.17 207.362L1771.47 209.238ZM1803.61 217.973C1822.28 222.368 1837.8 226.759 1850.15 231.142L1850.82 229.258C1838.37 224.841 1822.78 220.432 1804.06 216.027L1803.61 217.973ZM1850.17 231.149C1862.64 235.307 1873.39 241.538 1882.43 249.837L1883.78 248.363C1874.53 239.862 1863.53 233.493 1850.8 229.251L1850.17 231.149ZM1882.45 249.852C1891.57 257.852 1896.13 268.173 1896.13 280.9H1898.13C1898.13 267.627 1893.34 256.748 1883.77 248.348L1882.45 249.852ZM1896.13 280.9C1896.13 307.055 1887.29 325.378 1869.78 336.148L1870.82 337.852C1889.09 326.622 1898.13 307.545 1898.13 280.9H1896.13ZM1869.77 336.151C1852.32 347.007 1826.32 352.5 1791.64 352.5V354.5C1826.47 354.5 1852.91 348.993 1870.83 337.849L1869.77 336.151ZM138.049 138.2H42.9226V140.2H138.049V138.2ZM41.9226 139.2V216H43.9226V139.2H41.9226ZM42.9226 215H-25.678V217H42.9226V215ZM-24.678 216V6H-26.678V216H-24.678ZM-25.678 7H42.9226V5H-25.678V7ZM41.9226 6V82.2H43.9226V6H41.9226ZM42.9226 83.2H138.049V81.2H42.9226V83.2ZM139.049 82.2V6H137.049V82.2H139.049ZM138.049 7H206.954V5H138.049V7ZM205.954 6V216H207.954V6H205.954ZM206.954 215H138.049V217H206.954V215ZM139.049 216V139.2H137.049V216H139.049ZM355.989 219.5C319.727 219.5 291.818 212.023 272.136 197.201L270.933 198.799C291.089 213.977 319.484 221.5 355.989 221.5V219.5ZM272.136 197.201C252.551 182.453 242.655 158.309 242.655 124.5H240.655C240.655 158.691 250.678 183.547 270.933 198.799L272.136 197.201ZM242.655 124.5V6H240.655V124.5H242.655ZM241.655 7H310.56V5H241.655V7ZM309.56 6V120.3H311.56V6H309.56ZM309.56 120.3C309.56 136.394 313.027 147.948 320.247 154.634L321.606 153.166C315.004 147.052 311.56 136.206 311.56 120.3H309.56ZM320.259 154.644C327.45 161.096 339.451 164.2 355.989 164.2V162.2C339.599 162.2 328.225 159.104 321.594 153.156L320.259 154.644ZM355.989 164.2C372.527 164.2 384.528 161.096 391.719 154.644L390.384 153.156C383.754 159.104 372.379 162.2 355.989 162.2V164.2ZM391.731 154.634C398.951 147.948 402.418 136.394 402.418 120.3H400.418C400.418 136.206 396.974 147.052 390.372 153.166L391.731 154.634ZM402.418 120.3V6H400.418V120.3H402.418ZM401.418 7H470.018V5H401.418V7ZM469.018 6V124.5H471.018V6H469.018ZM469.018 124.5C469.018 158.309 459.122 182.453 439.538 197.201L440.741 198.799C460.995 183.547 471.018 158.691 471.018 124.5H469.018ZM439.534 197.204C420.056 212.022 392.252 219.5 355.989 219.5V221.5C392.493 221.5 420.789 213.978 440.745 198.796L439.534 197.204ZM505.202 7H641.489V5H505.202V7ZM641.489 7C666.399 7 684.956 11.4888 697.313 20.3138L698.475 18.6862C685.628 9.51117 666.581 5 641.489 5V7ZM697.328 20.3242C709.822 28.9106 716.102 41.7785 716.102 59.1H718.102C718.102 41.2215 711.577 27.6895 698.46 18.6758L697.328 20.3242ZM716.102 59.1C716.102 69.9267 713.404 79.1179 708.052 86.7246L709.688 87.8754C715.312 79.8821 718.102 70.2734 718.102 59.1H716.102ZM708.042 86.7391C702.891 94.3422 695.347 100.025 685.348 103.763L686.049 105.637C696.375 101.775 704.28 95.8578 709.698 87.8609L708.042 86.7391ZM685.415 105.659C697.447 109.211 706.922 115.211 713.892 123.637L715.433 122.363C708.175 113.589 698.34 107.389 685.981 103.741L685.415 105.659ZM713.892 123.637C720.83 132.024 724.334 142.784 724.334 156H726.334C726.334 142.416 722.724 131.176 715.433 122.363L713.892 123.637ZM724.334 156C724.334 175.918 717.041 190.683 702.518 200.471L703.636 202.129C718.789 191.917 726.334 176.482 726.334 156H724.334ZM702.521 200.469C688.122 210.111 666.909 215 638.745 215V217C667.087 217 688.762 212.089 703.633 202.131L702.521 200.469ZM638.745 215H505.202V217H638.745V215ZM506.202 216V6H504.202V216H506.202ZM632.342 168.1C640.27 168.1 646.4 166.56 650.564 163.314C654.776 160.031 656.819 155.13 656.819 148.8H654.819C654.819 154.67 652.949 158.919 649.335 161.736C645.674 164.59 640.065 166.1 632.342 166.1V168.1ZM656.819 148.8C656.819 142.47 654.776 137.569 650.564 134.286C646.4 131.04 640.27 129.5 632.342 129.5V131.5C640.065 131.5 645.674 133.01 649.335 135.864C652.949 138.681 654.819 142.93 654.819 148.8H656.819ZM632.342 129.5H573.498V131.5H632.342V129.5ZM572.498 130.5V167.1H574.498V130.5H572.498ZM573.498 168.1H632.342V166.1H573.498V168.1ZM628.988 88C635.619 88 640.858 86.5748 644.558 83.5769L643.299 82.0231C640.087 84.6252 635.366 86 628.988 86V88ZM644.558 83.5769C648.288 80.5539 650.111 76.2446 650.111 70.8H648.111C648.111 75.7554 646.479 79.4461 643.299 82.023L644.558 83.5769ZM650.111 70.8C650.111 65.5408 648.279 61.3381 644.558 58.3231L643.299 59.877C646.489 62.4619 648.111 66.0592 648.111 70.8H650.111ZM644.584 58.3449C640.883 55.1317 635.633 53.6 628.988 53.6V55.6C635.352 55.6 640.063 57.0683 643.273 59.8551L644.584 58.3449ZM628.988 53.6H573.498V55.6H628.988V53.6ZM572.498 54.6V87H574.498V54.6H572.498ZM573.498 88H628.988V86H573.498V88ZM863.645 219.5C827.383 219.5 799.475 212.023 779.792 197.201L778.589 198.799C798.745 213.977 827.14 221.5 863.645 221.5V219.5ZM779.792 197.201C760.207 182.453 750.311 158.309 750.311 124.5H748.311C748.311 158.691 758.334 183.547 778.589 198.799L779.792 197.201ZM750.311 124.5V6H748.311V124.5H750.311ZM749.311 7H818.216V5H749.311V7ZM817.216 6V120.3H819.216V6H817.216ZM817.216 120.3C817.216 136.394 820.684 147.948 827.903 154.634L829.262 153.166C822.66 147.052 819.216 136.206 819.216 120.3H817.216ZM827.915 154.644C835.107 161.096 847.107 164.2 863.645 164.2V162.2C847.255 162.2 835.881 159.104 829.251 153.156L827.915 154.644ZM863.645 164.2C880.183 164.2 892.184 161.096 899.376 154.644L898.04 153.156C891.41 159.104 880.036 162.2 863.645 162.2V164.2ZM899.387 154.634C906.607 147.948 910.074 136.394 910.074 120.3H908.074C908.074 136.206 904.63 147.052 898.028 153.166L899.387 154.634ZM910.074 120.3V6H908.074V120.3H910.074ZM909.074 7H977.675V5H909.074V7ZM976.675 6V124.5H978.675V6H976.675ZM976.675 124.5C976.675 158.309 966.778 182.453 947.194 197.201L948.397 198.799C968.651 183.547 978.675 158.691 978.675 124.5H976.675ZM947.19 197.204C927.712 212.022 899.909 219.5 863.645 219.5V221.5C900.149 221.5 928.446 213.978 948.401 198.796L947.19 197.204ZM1107.67 219.5C1067.11 219.5 1033.94 213.014 1008.11 200.105L1007.21 201.895C1033.41 214.986 1066.92 221.5 1107.67 221.5V219.5ZM1008.66 201V142.5H1006.66V201H1008.66ZM1007.17 143.371C1021.08 151.219 1036.31 157.151 1052.85 161.172L1053.33 159.228C1036.95 155.249 1021.89 149.381 1008.15 141.629L1007.17 143.371ZM1052.87 161.174C1069.41 164.992 1086.45 166.9 1104.01 166.9V164.9C1086.6 164.9 1069.7 163.008 1053.32 159.226L1052.87 161.174ZM1104.01 166.9C1117.62 166.9 1127.11 166.106 1132.36 164.454L1131.76 162.546C1126.84 164.094 1117.63 164.9 1104.01 164.9V166.9ZM1132.38 164.447C1135.12 163.514 1137.27 162.265 1138.74 160.649C1140.23 159.01 1140.98 157.044 1140.98 154.8H1138.98C1138.98 156.556 1138.41 158.04 1137.26 159.301C1136.09 160.585 1134.28 161.686 1131.73 162.553L1132.38 164.447ZM1140.98 154.8C1140.98 152.659 1140 150.758 1138.22 149.115C1136.46 147.49 1133.89 146.084 1130.57 144.862L1129.88 146.738C1133.07 147.916 1135.38 149.21 1136.87 150.585C1138.34 151.942 1138.98 153.341 1138.98 154.8H1140.98ZM1130.57 144.862C1124 142.437 1113.89 139.726 1100.26 136.723L1099.83 138.677C1113.44 141.675 1123.44 144.363 1129.88 146.738L1130.57 144.862ZM1100.27 136.727C1081.59 132.331 1065.97 128.039 1053.41 123.851L1052.77 125.749C1065.41 129.961 1081.1 134.269 1099.81 138.673L1100.27 136.727ZM1053.42 123.856C1040.94 119.5 1029.98 112.969 1020.53 104.264L1019.18 105.736C1028.84 114.631 1040.03 121.3 1052.76 125.744L1053.42 123.856ZM1020.54 104.272C1011.41 95.679 1006.83 84.552 1006.83 70.8H1004.83C1004.83 85.048 1009.6 96.721 1019.17 105.728L1020.54 104.272ZM1006.83 70.8C1006.83 47.8833 1015.24 30.9196 1032 19.7317L1030.89 18.0684C1013.5 29.6804 1004.83 47.3167 1004.83 70.8H1006.83ZM1032 19.7303C1049.05 8.28485 1073.31 2.5 1104.92 2.5V0.5C1073.11 0.5 1048.39 6.31519 1030.89 18.0698L1032 19.7303ZM1104.92 2.5C1122.75 2.5 1140.07 3.99527 1156.88 6.98455L1157.23 5.01545C1140.3 2.00473 1122.86 0.5 1104.92 0.5V2.5ZM1156.89 6.98651C1173.71 9.77696 1187.85 13.7572 1199.33 18.9123L1200.15 17.0877C1188.47 11.8427 1174.15 7.82304 1157.22 5.01349L1156.89 6.98651ZM1198.74 18V75H1200.74V18H1198.74ZM1200.19 74.107C1175.03 61.4269 1146.32 55.1 1114.07 55.1V57.1C1146.05 57.1 1174.45 63.3731 1199.29 75.893L1200.19 74.107ZM1114.07 55.1C1100.26 55.1 1090.66 55.8941 1085.41 57.5462L1086.01 59.4538C1090.93 57.9059 1100.24 57.1 1114.07 57.1V55.1ZM1085.41 57.5462C1082.79 58.3721 1080.72 59.46 1079.3 60.8622C1077.84 62.29 1077.09 64.0179 1077.09 66H1079.09C1079.09 64.5822 1079.61 63.36 1080.7 62.2878C1081.81 61.19 1083.56 60.2279 1086.01 59.4538L1085.41 57.5462ZM1077.09 66C1077.09 70.496 1080.95 73.8215 1087.5 76.2382L1088.19 74.3618C1081.73 71.9784 1079.09 69.104 1079.09 66H1077.09ZM1087.5 76.2382C1094.07 78.662 1104.8 81.5737 1119.64 84.9747L1120.08 83.0253C1105.25 79.6263 1094.63 76.738 1088.19 74.3618L1087.5 76.2382ZM1119.63 84.9734C1138.31 89.3685 1153.82 93.7589 1166.18 98.1424L1166.84 96.2576C1154.4 91.8412 1138.81 87.4315 1120.09 83.0266L1119.63 84.9734ZM1166.19 98.1487C1178.67 102.307 1189.42 108.538 1198.46 116.837L1199.81 115.363C1190.55 106.862 1179.55 100.493 1166.83 96.2513L1166.19 98.1487ZM1198.47 116.852C1207.6 124.852 1212.16 135.173 1212.16 147.9H1214.16C1214.16 134.627 1209.37 123.748 1199.79 115.348L1198.47 116.852ZM1212.16 147.9C1212.16 174.055 1203.32 192.378 1185.8 203.148L1186.85 204.852C1205.11 193.622 1214.16 174.545 1214.16 147.9H1212.16ZM1185.8 203.151C1168.35 214.007 1142.35 219.5 1107.67 219.5V221.5C1142.5 221.5 1168.94 215.993 1186.86 204.849L1185.8 203.151Z" fill="url(#paint0_linear_170_14349)" mask="url(#path-1-outside-1_170_14349)"/>
<defs>
<linearGradient id="paint0_linear_170_14349" x1="946.5" y1="0" x2="946.5" y2="504" gradientUnits="userSpaceOnUse">
<stop stop-color="white"/>
<stop offset="1" stop-color="white" stop-opacity="0.25"/>
</linearGradient>
</defs>
</svg>
