<svg width="192" height="167" viewBox="0 0 192 167" fill="none" xmlns="http://www.w3.org/2000/svg">
<path d="M39.9261 120.804L35.8742 117.875L35.8742 117.875L39.9261 120.804ZM0.155713 158.67C0.0189462 161.428 2.14392 163.775 4.90195 163.912L49.8467 166.14C52.6048 166.277 54.9515 164.152 55.0882 161.394C55.225 158.636 53.1 156.289 50.342 156.153L10.3911 154.172L12.3721 114.221C12.5088 111.463 10.3839 109.116 7.62583 108.979C4.8678 108.842 2.52111 110.967 2.38434 113.725L0.155713 158.67ZM184.807 72.5787L184.008 77.5145L184.008 77.5145L184.807 72.5787ZM119.015 5.75649L119.106 0.757304L119.015 5.75649ZM103.3 5.47288L103.21 10.4721L103.3 5.47288ZM48.962 59.762L43.9627 59.8477L48.962 59.762ZM49.4239 86.6987L54.4232 86.6129L49.4239 86.6987ZM154.475 39.397L159.463 39.0438L154.475 39.397ZM35.8742 117.875C29.1143 127.224 18.2301 140.328 1.79348 155.212L8.50567 162.624C25.4827 147.251 36.8287 133.622 43.978 123.734L35.8742 117.875ZM191.299 68.5639L185.605 67.6429L184.008 77.5145L189.702 78.4356L191.299 68.5639ZM119.106 0.757304L103.39 0.473696L103.21 10.4721L118.925 10.7557L119.106 0.757304ZM43.9627 59.8477L44.4247 86.7844L54.4232 86.6129L53.9612 59.6763L43.9627 59.8477ZM103.39 0.473696C70.3463 -0.122617 43.396 26.8035 43.9627 59.8477L53.9612 59.6763C53.4916 32.292 75.8257 9.9779 103.21 10.4721L103.39 0.473696ZM185.605 67.6429C171.311 65.3303 160.486 53.4878 159.463 39.0438L149.488 39.7502C150.839 58.8231 165.133 74.4608 184.008 77.5145L185.605 67.6429ZM159.463 39.0438C157.955 17.7561 140.443 1.14238 119.106 0.757304L118.925 10.7557C135.084 11.0473 148.346 23.6289 149.488 39.7502L159.463 39.0438ZM43.978 123.734C51.9202 112.749 54.6439 99.4823 54.4232 86.6129L44.4247 86.7844C44.6209 98.2254 42.178 109.156 35.8742 117.875L43.978 123.734Z" fill="white"/>
</svg>
