<svg width="237" height="111" viewBox="0 0 237 111" fill="none" xmlns="http://www.w3.org/2000/svg">
<path opacity="0.75" d="M44.5737 43.3652L42.3655 42.1931L44.5737 43.3652ZM7.60974 109.232C8.01435 110.553 9.4125 111.295 10.7326 110.89L32.2448 104.297C33.5649 103.892 34.307 102.494 33.9024 101.174C33.4978 99.8536 32.0997 99.1114 30.7796 99.516L11.6576 105.377L5.79668 86.255C5.39206 84.9349 3.99391 84.1928 2.67381 84.5974C1.35372 85.002 0.611581 86.4001 1.01619 87.7202L7.60974 109.232ZM120.608 34.5805L119.356 36.7446L120.608 34.5805ZM105.56 25.8782L106.812 23.714L105.56 25.8782ZM188.202 3L188.202 0.5L188.202 3ZM161.614 20.7249L159.307 19.7633L161.614 20.7249ZM42.3655 42.1931L7.79179 107.328L12.2082 109.672L46.7819 44.5373L42.3655 42.1931ZM121.859 32.4163L106.812 23.714L104.308 28.0424L119.356 36.7446L121.859 32.4163ZM237 0.5L188.202 0.5L188.202 5.5L237 5.5L237 0.5ZM188.202 0.5C175.565 0.500003 164.167 8.09839 159.307 19.7633L163.922 21.6864C168.006 11.8847 177.583 5.5 188.202 5.5L188.202 0.5ZM119.356 36.7446C135.712 46.2033 156.655 39.1267 163.922 21.6864L159.307 19.7633C153.201 34.4179 135.602 40.3641 121.859 32.4163L119.356 36.7446ZM46.7819 44.5373C57.8231 23.7365 83.9224 16.2529 104.308 28.0424L106.812 23.714C83.9734 10.5064 54.7348 18.8902 42.3655 42.1931L46.7819 44.5373Z" fill="white"/>
</svg>
