<svg width="507" height="288" viewBox="0 0 507 288" fill="none" xmlns="http://www.w3.org/2000/svg">
<path d="M261.392 183.393L256.392 183.373L261.392 183.393ZM261.608 128.605L266.608 128.625L261.608 128.605ZM506.5 28.9991L456.5 0.131556V57.8666L506.5 28.9991ZM0 10V182.999H10V10H0ZM105 287.999H161.393V277.999H105V287.999ZM266.392 183.412L266.608 128.625L256.608 128.586L256.392 183.373L266.392 183.412ZM361.607 33.9991H461.5V23.9991H361.607V33.9991ZM266.608 128.625C266.814 76.3044 309.286 33.9991 361.607 33.9991V23.9991C303.779 23.9991 256.836 70.7576 256.608 128.586L266.608 128.625ZM161.393 287.999C219.221 287.999 266.164 241.241 266.392 183.412L256.392 183.373C256.186 235.694 213.714 277.999 161.393 277.999V287.999ZM0 182.999C0 240.989 47.0101 287.999 105 287.999V277.999C52.5329 277.999 10 235.466 10 182.999H0Z" fill="white" fill-opacity="0.5"/>
</svg>
