<svg width="990" height="395" viewBox="0 0 990 395" fill="none" xmlns="http://www.w3.org/2000/svg">
<path d="M902.666 379.358C904.521 378.437 905.279 376.187 904.358 374.332L889.357 344.099C888.437 342.244 886.186 341.486 884.331 342.407C882.476 343.327 881.718 345.577 882.639 347.433L895.973 374.306L869.099 387.641C867.244 388.561 866.486 390.811 867.407 392.667C868.327 394.522 870.578 395.28 872.433 394.359L902.666 379.358ZM0.852273 46.2335C429.349 5.85843 681.161 0.367307 822.534 16.2804C893.325 24.2487 935.81 37.5296 958.953 54.0006C970.429 62.1686 976.996 71.0132 980.039 80.2721C983.089 89.5511 982.732 99.6487 979.642 110.538C973.407 132.511 956.324 156.806 935.896 182.028C915.709 206.953 892.172 232.868 874.276 257.19C865.279 269.418 857.54 281.453 852.196 293.05C846.859 304.632 843.802 316.009 844.453 326.846C845.792 349.119 862.497 366.991 899.802 379.553L902.196 372.445C866.001 360.257 853.003 344.098 851.94 326.396C851.39 317.246 853.957 307.149 859.007 296.189C864.051 285.244 871.462 273.67 880.317 261.635C898.124 237.434 921.094 212.22 941.724 186.749C962.113 161.575 980.155 136.206 986.858 112.585C990.236 100.677 990.801 88.9957 987.164 77.9302C983.521 66.8447 975.792 56.7797 963.302 47.8901C938.511 30.2459 894.379 16.82 823.373 8.82747C681.153 -7.18096 428.652 -1.60912 0.148706 38.7665L0.852273 46.2335Z" fill="white"/>
</svg>
