<svg width="904" height="139" viewBox="0 0 904 139" fill="none" xmlns="http://www.w3.org/2000/svg">
<path d="M415.186 9.07689L414.239 11.3906L415.186 9.07689ZM462.99 28.6415L463.937 26.3278L462.99 28.6415ZM526.395 32.7793L525.757 30.3621L526.395 32.7793ZM609.023 10.9636L609.661 13.3807L609.023 10.9636ZM679.249 18.196L678.131 20.4324L679.249 18.196ZM901.791 131.371C903.101 130.935 903.808 129.519 903.372 128.209L896.251 106.865C895.814 105.556 894.398 104.848 893.088 105.285C891.778 105.722 891.071 107.138 891.508 108.448L897.837 127.42L878.865 133.749C877.556 134.186 876.848 135.602 877.285 136.912C877.722 138.222 879.138 138.929 880.448 138.492L901.791 131.371ZM66.2608 17.7624L66.6669 15.2956L66.2608 17.7624ZM252.929 48.4897L252.523 50.9565L252.929 48.4897ZM34.6583 21.9303L35.5702 24.258L34.6583 21.9303ZM37.5712 20.7892L36.6594 18.4614L37.5712 20.7892ZM324.935 26.2015L323.207 24.3955L324.935 26.2015ZM414.239 11.3906L462.043 30.9552L463.937 26.3278L416.133 6.76316L414.239 11.3906ZM527.034 35.1965L609.661 13.3807L608.385 8.54639L525.757 30.3621L527.034 35.1965ZM678.131 20.4324L899.883 131.236L902.117 126.764L680.366 15.9597L678.131 20.4324ZM65.8548 20.2292L252.523 50.9565L253.335 46.0229L66.6669 15.2956L65.8548 20.2292ZM35.5702 24.258L38.4831 23.1169L36.6594 18.4614L33.7464 19.6025L35.5702 24.258ZM5.50077 68.3321C5.50077 48.8532 17.4334 31.3631 35.5702 24.258L33.7464 19.6025C13.6938 27.4581 0.500772 46.7957 0.500772 68.3321L5.50077 68.3321ZM66.6669 15.2956C56.5617 13.6322 46.1949 14.7259 36.6594 18.4614L38.4831 23.1169C47.1811 19.7095 56.6372 18.7119 65.8548 20.2292L66.6669 15.2956ZM609.661 13.3807C632.583 7.3288 656.924 9.83569 678.131 20.4324L680.366 15.9597C658.072 4.81956 632.482 2.1841 608.385 8.54639L609.661 13.3807ZM462.043 30.9552C482.67 39.3969 505.485 40.8858 527.034 35.1965L525.757 30.3621C505.26 35.7739 483.557 34.3576 463.937 26.3278L462.043 30.9552ZM323.207 24.3955C304.613 42.1918 278.731 50.2033 253.335 46.0229L252.523 50.9565C279.47 55.3923 306.935 46.8913 326.664 28.0075L323.207 24.3955ZM326.664 28.0075C350.013 5.65977 384.328 -0.851302 414.239 11.3906L416.133 6.76316C384.394 -6.22677 347.982 0.682152 323.207 24.3955L326.664 28.0075Z" fill="white" fill-opacity="0.5"/>
</svg>
