<svg width="476" height="268" viewBox="0 0 476 268" fill="none" xmlns="http://www.w3.org/2000/svg">
<path d="M130.086 258.24L127.591 253.908L130.086 258.24ZM476 59L447.081 108.97L418.265 58.9408L476 59ZM90.6305 214.138L86.6012 211.177L90.6305 214.138ZM10.5 0.5V125.505H0.5V0.5H10.5ZM45.9951 161H66.2652V171H45.9951V161ZM127.591 253.908L434.51 77.1273L439.501 85.7927L132.582 262.573L127.591 253.908ZM94.6598 217.098C78.491 239.104 103.928 267.537 127.591 253.908L132.582 262.573C99.5425 281.603 64.0251 241.903 86.6012 211.177L94.6598 217.098ZM66.2652 161C95.1413 161 111.758 193.828 94.6598 217.098L86.6012 211.177C98.8465 194.511 86.9461 171 66.2652 171V161ZM10.5 125.505C10.5 145.108 26.3917 161 45.9951 161V171C20.8689 171 0.5 150.631 0.5 125.505H10.5Z" fill="white" fill-opacity="0.7"/>
</svg>
