<svg width="346" height="98" viewBox="0 0 346 98" fill="none" xmlns="http://www.w3.org/2000/svg">
<path d="M309 64.7861L304 64.7861L309 64.7861ZM305.464 96.5356C307.417 98.4882 310.583 98.4882 312.536 96.5355L344.355 64.7157C346.308 62.7631 346.308 59.5973 344.355 57.6447C342.403 55.692 339.237 55.692 337.284 57.6447L309 85.9289L280.716 57.6447C278.763 55.6921 275.597 55.6921 273.645 57.6447C271.692 59.5973 271.692 62.7631 273.645 64.7158L305.464 96.5356ZM30 39.7861L30 44.7861L30 39.7861ZM284 39.7861L284 34.7861L284 39.7861ZM304 64.7861L304 93L314 93L314 64.7861L304 64.7861ZM0 -1.35068e-05L-6.46322e-07 14.7861L10 14.7861L10 -1.30697e-05L0 -1.35068e-05ZM30 44.7861L284 44.7861L284 34.7861L30 34.7861L30 44.7861ZM-6.46322e-07 14.7861C-1.37056e-06 31.3547 13.4315 44.7861 30 44.7861L30 34.7861C18.9543 34.7861 10 25.8318 10 14.7861L-6.46322e-07 14.7861ZM314 64.7861C314 48.2176 300.569 34.7861 284 34.7861L284 44.7861C295.046 44.7861 304 53.7404 304 64.7861L314 64.7861Z" fill="white" fill-opacity="0.5"/>
</svg>
