<svg width="430" height="344" viewBox="0 0 430 344" fill="none" xmlns="http://www.w3.org/2000/svg">
<path d="M204.338 183.159L208.679 185.639L204.338 183.159ZM157.792 264.614L153.451 262.133L157.792 264.614ZM0.5 315L50.5 286.132V343.868L0.5 315ZM310.417 174.405L314.293 171.246L310.417 174.405ZM145 0H343.633V10H145V0ZM430 86.3668V133.627H420V86.3668H430ZM208.679 185.639L162.133 267.095L153.451 262.133L199.997 180.678L208.679 185.639ZM70.9677 320H45.5V310H70.9677V320ZM162.133 267.095C143.439 299.81 108.648 320 70.9677 320V310C105.059 310 136.537 291.733 153.451 262.133L162.133 267.095ZM306.541 177.564C280.13 145.157 229.421 149.341 208.679 185.639L199.997 180.678C224.222 138.284 283.446 133.397 314.293 171.246L306.541 177.564ZM430 133.627C430 199.053 347.874 228.28 306.541 177.564L314.293 171.246C349.683 214.67 420 189.646 420 133.627H430ZM343.633 0C391.332 0 430 38.6677 430 86.3668H420C420 44.1906 385.809 10 343.633 10V0Z" fill="white" fill-opacity="0.7"/>
</svg>
