<svg width="624" height="377" viewBox="0 0 624 377" fill="none" xmlns="http://www.w3.org/2000/svg">
<path d="M13 0C5.8203 0 0 5.8203 0 13C0 20.1797 5.8203 26 13 26L13 0ZM484.667 307C484.667 345.292 515.708 376.333 554 376.333C592.292 376.333 623.333 345.292 623.333 307C623.333 268.708 592.292 237.667 554 237.667C515.708 237.667 484.667 268.708 484.667 307ZM393.779 98.6729L401.397 88.1386L393.779 98.6729ZM13 26H379.147V0H13L13 26ZM386.162 109.207L467.351 167.917L482.586 146.848L401.397 88.1386L386.162 109.207ZM500.521 320H554V294H500.521V320ZM467.351 217.522C422.862 249.692 445.62 320 500.521 320V294C470.836 294 458.531 255.985 482.586 238.59L467.351 217.522ZM467.351 167.917C484.247 180.135 484.247 205.303 467.351 217.522L482.586 238.59C513.836 215.993 513.836 169.446 482.586 146.848L467.351 167.917ZM386.162 47.6702C365.201 62.8276 365.201 94.0498 386.162 109.207L401.397 88.1386C394.789 83.3602 394.789 73.5173 401.397 68.7388L386.162 47.6702ZM379.147 26C390.757 26 395.569 40.8673 386.162 47.6702L401.397 68.7388C431.238 47.1598 415.973 0 379.147 0V26Z" fill="#403f3f" fill-opacity="0.75"/>
</svg>
