<svg width="585" height="169" viewBox="0 0 585 169" fill="none" xmlns="http://www.w3.org/2000/svg">
<g style="mix-blend-mode:luminosity" filter="url(#filter0_f_170_21730)">
<path d="M15 15H74.8102L104.417 74.9686C105.212 76.5571 106.206 78.7414 107.398 81.5214C108.59 84.4338 109.252 86.4195 109.385 87.4786H109.981C110.246 86.4195 110.974 84.4338 112.167 81.5214C113.226 78.609 114.088 76.4248 114.75 74.9686L144.357 15H204.366V154H148.728V123.817C148.728 107.799 149.391 95.7524 150.715 87.6771H150.517L121.705 146.057H97.6613L68.849 87.6771H68.4516C69.9088 96.5467 70.6374 108.593 70.6374 123.817V154H15V15Z" fill="white"/>
<path d="M326.914 135.334H279.821L273.661 154H214.248L273.065 15H333.273L392.089 154H332.676L326.914 135.334ZM316.581 101.379L310.421 81.5214C309.229 77.9471 308.103 74.3067 307.043 70.6C305.851 66.2314 304.924 62.5248 304.262 59.48H303.665C302.076 66.6286 300.023 73.9757 297.506 81.5214L290.948 101.379H316.581Z" fill="white"/>
<path d="M506.017 154L478 114.683L449.187 154H385.204L437.265 84.6986L386.198 15H450.38L477.602 52.9271L504.825 15H569.006L517.741 82.9114L570 154H506.017Z" fill="white"/>
</g>
<defs>
<filter id="filter0_f_170_21730" x="0" y="0" width="585" height="169" filterUnits="userSpaceOnUse" color-interpolation-filters="sRGB">
<feFlood flood-opacity="0" result="BackgroundImageFix"/>
<feBlend mode="normal" in="SourceGraphic" in2="BackgroundImageFix" result="shape"/>
<feGaussianBlur stdDeviation="7.5" result="effect1_foregroundBlur_170_21730"/>
</filter>
</defs>
</svg>
