<svg width="1920" height="124" viewBox="0 0 1920 124" fill="none" xmlns="http://www.w3.org/2000/svg">
<path d="M-50.6914 60.5651L1998.24 0.949455L2000.31 64.3944L-48.6195 124.01L-50.6914 60.5651Z" fill="url(#paint0_linear_170_14367)"/>
<path d="M340.163 64.1974C341.114 58.8934 349.033 58.663 350.328 63.9016C351.042 66.7906 354.255 68.4324 357.18 67.4031C362.484 65.5366 366.656 71.9457 362.535 75.6297C360.263 77.6614 360.376 81.1287 362.777 83.0244C367.13 86.4619 363.384 93.1014 357.968 91.5468C354.981 90.6895 351.882 92.515 351.358 95.44C350.407 100.744 342.488 100.974 341.193 95.7357C340.479 92.8467 337.266 91.2049 334.341 92.2342C329.037 94.1007 324.865 87.6916 328.986 84.0076C331.258 81.9759 331.145 78.5086 328.744 76.6129C324.391 73.1754 328.137 66.536 333.553 68.0905C336.539 68.9479 339.639 67.1224 340.163 64.1974Z" fill="#D9D9D9"/>
<path d="M-0.44685 74.1077C0.50384 68.8038 8.42246 68.5734 9.71743 73.812C10.4316 76.701 13.6444 78.3428 16.5695 77.3135C21.8734 75.447 26.0458 81.8561 21.9251 85.5401C19.6526 87.5718 19.7658 91.0391 22.1666 92.9348C26.5198 96.3723 22.7736 103.012 17.3579 101.457C14.3713 100.6 11.2716 102.425 10.7473 105.35C9.79666 110.654 1.87804 110.885 0.583066 105.646C-0.13108 102.757 -3.34395 101.115 -6.26897 102.145C-11.5729 104.011 -15.7453 97.602 -11.6246 93.918C-9.3521 91.8863 -9.46533 88.419 -11.8661 86.5233C-16.2193 83.0858 -12.4731 76.4463 -7.0574 78.0009C-4.07077 78.8583 -0.971133 77.0328 -0.44685 74.1077Z" fill="#D9D9D9"/>
<path d="M683.031 56.2957C684.125 51.2526 691.612 51.0348 693.033 56.0047L693.125 56.3251C693.843 58.8379 696.618 60.2758 699.225 59.4871L701.48 58.8051C706.102 57.4074 709.325 63.1421 705.535 66.0203C703.257 67.7512 703.365 71.08 705.753 72.6751C709.723 75.3275 706.88 81.2387 702.176 80.1124L699.881 79.5628C697.227 78.9272 694.552 80.5236 693.998 83.0734L693.928 83.3985C692.834 88.4416 685.347 88.6595 683.926 83.6895L683.834 83.3691C683.116 80.8564 680.342 79.4185 677.734 80.2072L675.479 80.8891C670.858 82.2869 667.634 76.5521 671.424 73.6739C673.703 71.9431 673.594 68.6142 671.207 67.0192C667.236 64.3667 670.079 58.4555 674.783 59.5819L677.078 60.1314C679.733 60.767 682.408 59.1706 682.961 56.6209L683.031 56.2957Z" fill="#D9D9D9"/>
<path d="M1001.5 47.0296C1002.59 41.9865 1010.08 41.7686 1011.5 46.7386L1011.59 47.059C1012.31 49.5718 1015.08 51.0096 1017.69 50.2209L1019.95 49.539C1024.57 48.1413 1027.79 53.876 1024 56.7542C1021.72 58.485 1021.83 61.8139 1024.22 63.409C1028.19 66.0614 1025.35 71.9726 1020.64 70.8462L1018.35 70.2967C1015.69 69.6611 1013.02 71.2575 1012.46 73.8073L1012.39 74.1324C1011.3 79.1755 1003.81 79.3934 1002.39 74.4234L1002.3 74.103C1001.58 71.5902 998.807 70.1524 996.199 70.9411L993.944 71.623C989.323 73.0207 986.1 67.286 989.889 64.4078C992.168 62.6769 992.059 59.3481 989.672 57.753C985.702 55.1006 988.544 49.1894 993.249 50.3158L995.544 50.8653C998.198 51.5009 1000.87 49.9045 1001.43 47.3547L1001.5 47.0296Z" fill="#D9D9D9"/>
<path d="M1501.34 32.4863C1502.43 27.4432 1509.92 27.2253 1511.34 32.1953L1511.43 32.5157C1512.15 35.0284 1514.93 36.4663 1517.53 35.6776L1519.79 34.9957C1524.41 33.5979 1527.63 39.3327 1523.84 42.2109C1521.56 43.9417 1521.67 47.2706 1524.06 48.8656C1528.03 51.5181 1525.19 57.4293 1520.48 56.3029L1518.19 55.7534C1515.53 55.1178 1512.86 56.7142 1512.31 59.2639L1512.24 59.5891C1511.14 64.6322 1503.65 64.85 1502.23 59.8801L1502.14 59.5597C1501.42 57.0469 1498.65 55.609 1496.04 56.3977L1493.79 57.0797C1489.17 58.4774 1485.94 52.7427 1489.73 49.8645C1492.01 48.1336 1491.9 44.8048 1489.51 43.2097C1485.54 40.5573 1488.39 34.6461 1493.09 35.7724L1495.39 36.322C1498.04 36.9576 1500.72 35.3612 1501.27 32.8114L1501.34 32.4863Z" fill="#D9D9D9"/>
<path d="M1692.21 26.9327C1693.3 21.8896 1700.79 21.6717 1702.21 26.6417L1702.3 26.9621C1703.02 29.4748 1705.79 30.9127 1708.4 30.124L1710.66 29.4421C1715.28 28.0444 1718.5 33.7791 1714.71 36.6573C1712.43 38.3881 1712.54 41.717 1714.93 43.312C1718.9 45.9645 1716.06 51.8757 1711.35 50.7493L1709.06 50.1998C1706.4 49.5642 1703.73 51.1606 1703.17 53.7103L1703.1 54.0355C1702.01 59.0786 1694.52 59.2964 1693.1 54.3265L1693.01 54.0061C1692.29 51.4933 1689.52 50.0555 1686.91 50.8442L1684.66 51.5261C1680.03 52.9238 1676.81 47.1891 1680.6 44.3109C1682.88 42.58 1682.77 39.2512 1680.38 37.6561C1676.41 35.0037 1679.26 29.0925 1683.96 30.2188L1686.25 30.7684C1688.91 31.404 1691.58 29.8076 1692.14 27.2578L1692.21 26.9327Z" fill="#D9D9D9"/>
<path d="M410.164 88.4808C407.875 90.7968 405.033 92.0043 401.636 92.1031C398.239 92.2019 395.322 91.1621 392.887 88.9835C390.451 86.7836 389.18 84.0784 389.075 80.8681C388.971 77.6577 390.062 74.8945 392.351 72.5785C394.639 70.2411 397.482 69.023 400.879 68.9241C404.276 68.8253 407.192 69.8758 409.628 72.0758C412.064 74.2543 413.334 76.9488 413.439 80.1592C413.544 83.3696 412.452 86.1434 410.164 88.4808ZM394.098 87.7915C396.185 89.6588 398.68 90.5502 401.582 90.4658C404.484 90.3814 406.905 89.3469 408.844 87.3624C410.805 85.3559 411.741 82.9721 411.651 80.2112C411.56 77.4503 410.472 75.1362 408.384 73.2688C406.318 71.3795 403.834 70.477 400.932 70.5614C398.03 70.6459 395.599 71.6914 393.638 73.6979C391.698 75.6824 390.774 78.0551 390.864 80.816C390.954 83.5769 392.032 85.9021 394.098 87.7915Z" fill="white"/>
<path d="M425.196 74.6435C427.198 74.5852 428.803 75.1276 430.011 76.2707C431.241 77.3918 431.888 78.9261 431.952 80.8738L432.278 90.858L430.557 90.9081L430.231 80.9238C430.182 79.4257 429.705 78.2506 428.799 77.3986C427.915 76.546 426.686 76.1426 425.111 76.1884C423.379 76.2388 421.979 76.8258 420.913 77.9494C419.846 79.073 419.347 80.6728 419.414 82.7489L419.691 91.2243L418.004 91.2734L417.48 75.2215L419.167 75.1724L419.267 78.2222C420.407 75.9182 422.384 74.7253 425.196 74.6435Z" fill="white"/>
<path d="M437.051 90.7192L436.286 67.2834L437.973 67.2343L438.738 90.6701L437.051 90.7192Z" fill="white"/>
<path d="M445.064 70.1771C444.802 70.4204 444.491 70.5473 444.131 70.5578C443.771 70.5682 443.452 70.4597 443.175 70.2321C442.896 69.9831 442.751 69.6767 442.739 69.3129C442.728 68.9704 442.854 68.6776 443.116 68.4343C443.378 68.1696 443.688 68.032 444.048 68.0215C444.408 68.0111 444.727 68.1303 445.006 68.3793C445.283 68.6069 445.428 68.8919 445.439 69.2343C445.451 69.5982 445.326 69.9124 445.064 70.1771ZM443.939 90.5188L443.414 74.4669L445.102 74.4178L445.626 90.4697L443.939 90.5188Z" fill="white"/>
<path d="M458.018 73.6885C460.02 73.6302 461.625 74.1727 462.833 75.3158C464.063 76.4368 464.71 77.9711 464.774 79.9188L465.1 89.9031L463.379 89.9531L463.053 79.9688C463.004 78.4707 462.527 77.2956 461.62 76.4436C460.737 75.591 459.508 75.1876 457.933 75.2334C456.201 75.2838 454.801 75.8708 453.735 76.9944C452.668 78.118 452.169 79.7178 452.236 81.7939L452.513 90.2693L450.826 90.3184L450.302 74.2665L451.989 74.2174L452.089 77.2672C453.229 74.9632 455.206 73.7703 458.018 73.6885Z" fill="white"/>
<path d="M484.021 66.8585L485.708 66.8094L486.442 89.2821L484.755 89.3312L484.633 85.6071C483.977 86.8902 483.019 87.9142 481.761 88.6792C480.525 89.4435 479.108 89.8489 477.511 89.8954C475.081 89.9661 472.986 89.2237 471.223 87.6683C469.483 86.0908 468.574 84.1249 468.498 81.7706C468.421 79.4163 469.2 77.4121 470.834 75.7578C472.491 74.0814 474.534 73.2079 476.964 73.1372C478.561 73.0908 480.001 73.413 481.285 74.1041C482.591 74.7945 483.613 75.7609 484.352 77.0033L484.021 66.8585ZM472.401 86.5093C473.84 87.7957 475.56 88.4098 477.562 88.3515C479.564 88.2932 481.23 87.5807 482.559 86.2138C483.91 84.8462 484.555 83.2101 484.493 81.3052C484.43 79.4004 483.68 77.8048 482.242 76.5184C480.826 75.2314 479.118 74.617 477.115 74.6753C475.113 74.7335 473.436 75.4464 472.085 76.814C470.756 78.1809 470.123 79.8167 470.185 81.7215C470.247 83.6264 470.986 85.2223 472.401 86.5093Z" fill="white"/>
<path d="M498.68 72.5054C501.154 72.4334 503.184 73.2098 504.768 74.8347C506.375 76.459 507.215 78.4161 507.29 80.7062C507.293 80.7918 507.286 80.9205 507.269 81.0924C507.275 81.2636 507.279 81.3921 507.282 81.4777L491.995 81.9224C492.256 83.7144 493.058 85.1478 494.399 86.2228C495.762 87.2757 497.41 87.774 499.345 87.7177C500.695 87.6784 501.867 87.3765 502.862 86.812C503.857 86.2475 504.599 85.5189 505.088 84.6264L506.6 85.4179C505.939 86.5511 504.978 87.4681 503.717 88.1689C502.456 88.8483 501.004 89.2119 499.362 89.2597C496.775 89.3349 494.623 88.6156 492.907 87.1016C491.191 85.5663 490.293 83.5787 490.213 81.1388C490.135 78.7417 490.88 76.7277 492.448 75.0968C494.038 73.4438 496.115 72.58 498.68 72.5054ZM498.73 74.0464C496.818 74.102 495.239 74.7157 493.994 75.8873C492.748 77.0589 492.065 78.5463 491.944 80.3493L505.509 79.9546C505.267 78.0551 504.499 76.5885 503.204 75.5551C501.931 74.4995 500.44 73.9966 498.73 74.0464Z" fill="white"/>
<path d="M527.859 88.4626C525.43 88.5333 523.38 87.8324 521.711 86.36C520.041 84.8661 519.166 82.8993 519.086 80.4594C518.999 77.7841 519.336 75.7069 520.099 74.228C520.883 72.727 522.537 71.3399 525.063 70.0668C525.551 69.8383 526.128 69.5752 526.794 69.2773C527.459 68.9795 527.992 68.7497 528.392 68.5881C528.814 68.4045 529.257 68.188 529.722 67.9389C530.209 67.6676 530.594 67.4101 530.879 67.1661C531.164 66.9222 531.413 66.6257 531.627 66.2767C531.84 65.9063 531.973 65.4954 532.026 65.044L533.4 65.7431C533.307 66.3457 533.11 66.8763 532.81 67.3349C532.532 67.7928 532.096 68.2233 531.501 68.6262C530.928 69.0071 530.42 69.3111 529.977 69.5382C529.557 69.7646 528.891 70.0732 527.981 70.4639C527.07 70.8546 526.415 71.1414 526.016 71.3244C524.374 72.0791 523.173 72.8853 522.413 73.7429C521.676 74.5999 521.195 75.7385 520.971 77.159C521.72 75.9589 522.715 75.0516 523.956 74.4371C525.197 73.8226 526.458 73.4967 527.741 73.4594C529.99 73.3939 531.881 74.0459 533.412 75.4152C534.942 76.7846 535.744 78.5608 535.815 80.7439C535.885 82.9055 535.168 84.7152 533.662 86.1729C532.178 87.63 530.244 88.3932 527.859 88.4626ZM527.807 86.8575C529.696 86.8025 531.231 86.2115 532.41 85.0847C533.588 83.9364 534.15 82.5061 534.094 80.7939C534.037 79.0603 533.406 77.6541 532.2 76.5752C530.994 75.4963 529.457 74.984 527.59 75.0383C525.88 75.0881 524.356 75.6466 523.017 76.7138C521.701 77.7804 521.002 79.129 520.92 80.7595C520.98 82.6001 521.659 84.0907 522.957 85.2312C524.256 86.3716 525.872 86.9137 527.807 86.8575Z" fill="white"/>
<path d="M554.092 71.2466L555.813 71.1965L556.337 87.2484L554.616 87.2985L554.497 83.6708C553.818 84.9331 552.86 85.9357 551.623 86.6786C550.386 87.4216 548.969 87.8163 547.372 87.8627C544.965 87.9328 542.881 87.1901 541.118 85.6346C539.356 84.0578 538.436 82.0922 538.359 79.738C538.282 77.3837 539.072 75.3791 540.729 73.7241C542.386 72.0478 544.418 71.1746 546.825 71.1046C548.422 71.0581 549.862 71.3697 551.145 72.0393C552.428 72.7089 553.45 73.6539 554.21 74.8743L554.092 71.2466ZM542.296 84.4757C543.735 85.762 545.455 86.3761 547.457 86.3178C549.459 86.2596 551.125 85.547 552.454 84.1801C553.783 82.8132 554.416 81.1774 554.354 79.2726C554.292 77.3677 553.553 75.7718 552.137 74.4848C550.721 73.1977 549.012 72.5834 547.01 72.6416C545.008 72.6999 543.331 73.4128 541.98 74.7803C540.651 76.1472 540.017 77.783 540.08 79.6879C540.142 81.5927 540.881 83.1886 542.296 84.4757Z" fill="white"/>
<path d="M573.209 70.6904L574.93 70.6403L575.454 86.6922L573.733 86.7423L573.496 79.4868L562.968 79.7931L563.205 87.0486L561.518 87.0977L560.994 71.0458L562.681 70.9967L562.918 78.2522L573.446 77.9458L573.209 70.6904Z" fill="white"/>
<path d="M593.588 86.1646L591.293 86.2314L582.093 78.594L582.351 86.4915L580.664 86.5406L580.14 70.4887L581.827 70.4396L582.065 77.7272L590.364 70.1912L592.726 70.1225L583.901 78.0915L593.588 86.1646Z" fill="white"/>
<path d="M608.903 69.6518L610.388 69.6086L610.912 85.6605L609.192 85.7106L608.759 72.4517L598.461 86.0228L596.976 86.066L596.452 70.0141L598.139 69.965L598.572 83.2239L608.903 69.6518Z" fill="white"/>
<path d="M627.813 69.1016L629.534 69.0515L630.059 85.1034L628.338 85.1535L628.101 77.8981L617.572 78.2044L617.809 85.4598L616.122 85.5089L615.598 69.457L617.285 69.4079L617.522 76.6634L628.05 76.3571L627.813 69.1016Z" fill="white"/>
<path d="M645.306 68.5926L645.357 70.1657L636.483 70.4239L636.955 84.9028L635.268 84.9519L634.744 68.9L645.306 68.5926Z" fill="white"/>
<path d="M64.9706 79.0512L66.759 78.9991L67.4929 101.472L65.7044 101.524L65.3532 90.7691L51.6191 91.1687L51.9704 101.923L50.1819 101.975L49.448 79.5028L51.2365 79.4508L51.5667 89.5635L65.3008 89.1639L64.9706 79.0512Z" fill="white"/>
<path d="M87.3344 84.8273L89.0554 84.7773L89.5796 100.829L87.8586 100.879L87.7401 97.2515C87.0608 98.5138 86.1027 99.5164 84.866 100.259C83.6293 101.002 82.2123 101.397 80.615 101.444C78.2079 101.514 76.1233 100.771 74.3611 99.2154C72.5983 97.6385 71.6784 95.673 71.6015 93.3187C71.5247 90.9644 72.3149 88.9598 73.9722 87.3049C75.6288 85.6285 77.6607 84.7553 80.0678 84.6853C81.665 84.6388 83.1051 84.9504 84.3879 85.62C85.6708 86.2897 86.6925 87.2347 87.4529 88.4551L87.3344 84.8273ZM75.5392 98.0564C76.9774 99.3428 78.6975 99.9568 80.6997 99.8986C82.7019 99.8403 84.3674 99.1278 85.6964 97.7609C87.0253 96.394 87.6587 94.7581 87.5965 92.8533C87.5343 90.9485 86.7954 89.3526 85.3798 88.0655C83.9642 86.7785 82.2553 86.1641 80.2531 86.2224C78.2509 86.2806 76.5741 86.9935 75.2226 88.3611C73.8937 89.7279 73.2603 91.3638 73.3225 93.2686C73.3847 95.1734 74.1236 96.7694 75.5392 98.0564Z" fill="white"/>
<path d="M102.499 100.807C99.9574 100.881 97.8165 100.14 96.0769 98.5835C94.3372 97.0274 93.4286 95.0616 93.351 92.6859C93.2734 90.3102 94.0521 88.2952 95.6869 86.6409C97.3217 84.9866 99.4101 84.1225 101.952 84.0486C103.594 84.0008 105.091 84.3321 106.443 85.0426C107.794 85.7317 108.794 86.6987 109.443 87.9438L108.084 88.7545C107.556 87.7416 106.742 86.9512 105.643 86.3834C104.566 85.8149 103.352 85.5503 102.003 85.5895C99.9779 85.6485 98.3011 86.3613 96.9721 87.7282C95.6425 89.0737 95.0091 90.7096 95.072 92.6358C95.1349 94.562 95.8741 96.1687 97.2898 97.4557C98.7047 98.7213 100.424 99.3247 102.449 99.2658C103.799 99.2265 104.993 98.8918 106.03 98.2618C107.091 97.6311 107.885 96.7939 108.414 95.7502L109.858 96.5116C109.223 97.7726 108.243 98.7972 106.918 99.5856C105.615 100.352 104.142 100.759 102.499 100.807Z" fill="white"/>
<path d="M124.633 83.7421L124.684 85.3152L118.543 85.4939L119.015 99.9727L117.328 100.022L116.855 85.543L110.714 85.7217L110.663 84.1486L124.633 83.7421Z" fill="white"/>
<path d="M141.873 83.2405L143.594 83.1904L144.118 99.2423L142.397 99.2924L142.279 95.6647C141.599 96.927 140.641 97.9296 139.404 98.6725C138.168 99.4155 136.751 99.8102 135.154 99.8566C132.746 99.9267 130.662 99.184 128.9 97.6285C127.137 96.0517 126.217 94.0861 126.14 91.7319C126.063 89.3776 126.853 87.373 128.511 85.718C130.167 84.0417 132.199 83.1685 134.606 83.0985C136.204 83.052 137.644 83.3636 138.926 84.0332C140.209 84.7028 141.231 85.6478 141.991 86.8682L141.873 83.2405ZM130.078 96.4696C131.516 97.7559 133.236 98.37 135.238 98.3117C137.24 98.2535 138.906 97.5409 140.235 96.174C141.564 94.8071 142.197 93.1713 142.135 91.2665C142.073 89.3616 141.334 87.7657 139.918 86.4787C138.503 85.1917 136.794 84.5773 134.792 84.6355C132.789 84.6938 131.113 85.4067 129.761 86.7742C128.432 88.1411 127.799 89.777 127.861 91.6818C127.923 93.5866 128.662 95.1825 130.078 96.4696Z" fill="white"/>
<path d="M159.422 90.5064C161.422 91.0695 162.454 92.3248 162.517 94.2725C162.559 95.5566 162.144 96.6291 161.271 97.49C160.421 98.3502 159.152 98.8049 157.465 98.854L149.299 99.0916L148.775 83.0397L156.3 82.8207C157.897 82.7743 159.147 83.1342 160.05 83.9006C160.954 84.6669 161.425 85.6601 161.465 86.8801C161.521 88.5923 160.84 89.801 159.422 90.5064ZM156.351 84.3938L150.513 84.5637L150.695 90.1177L156.533 89.9478C157.612 89.9164 158.425 89.6463 158.972 89.1377C159.518 88.6291 159.777 87.9253 159.747 87.0264C159.719 86.1703 159.405 85.5154 158.805 85.0615C158.226 84.5856 157.408 84.3631 156.351 84.3938ZM157.414 97.2809C158.539 97.2482 159.396 96.9662 159.987 96.4348C160.578 95.9035 160.858 95.1777 160.828 94.2573C160.798 93.3584 160.461 92.672 159.815 92.1981C159.191 91.7021 158.327 91.4702 157.225 91.5022L150.746 91.6907L150.935 97.4694L157.414 97.2809Z" fill="white"/>
<path d="M178.093 82.1866L179.814 82.1366L180.338 98.1885L178.617 98.2385L178.381 90.9831L167.852 91.2894L168.089 98.5449L166.402 98.594L165.878 82.5421L167.565 82.493L167.802 89.7484L178.33 89.4421L178.093 82.1866Z" fill="white"/>
<path d="M197.476 81.6227L198.96 81.5795L199.485 97.6314L197.764 97.6815L197.331 84.4226L187.033 97.9937L185.548 98.0369L185.024 81.985L186.711 81.9359L187.144 95.1948L197.476 81.6227Z" fill="white"/>
<path d="M215.373 81.1019L217.094 81.0519L217.618 97.1038L215.897 97.1539L215.692 90.8615C214.23 91.611 212.532 92.0139 210.597 92.0702C208.438 92.133 206.758 91.7106 205.557 90.8029C204.356 89.8738 203.725 88.4997 203.666 86.6805L203.495 81.4476L205.182 81.3985L205.353 86.6314C205.441 89.3281 207.15 90.628 210.48 90.5311C212.324 90.4775 214.045 90.0846 215.643 89.3526L215.373 81.1019Z" fill="white"/>
<path d="M229.876 80.3265C232.35 80.2545 234.38 81.031 235.964 82.6558C237.571 84.2801 238.411 86.2372 238.486 88.5273C238.489 88.6129 238.482 88.7417 238.465 88.9135C238.471 89.0847 238.475 89.2132 238.478 89.2988L223.191 89.7436C223.453 91.5355 224.254 92.9689 225.595 94.0439C226.958 95.0968 228.607 95.5951 230.541 95.5388C231.891 95.4995 233.063 95.1976 234.058 94.6331C235.053 94.0686 235.795 93.3401 236.284 92.4475L237.796 93.239C237.135 94.3722 236.174 95.2892 234.913 95.99C233.652 96.6694 232.2 97.033 230.558 97.0808C227.971 97.156 225.819 96.4367 224.104 94.9228C222.387 93.3874 221.489 91.3998 221.409 88.9599C221.331 86.5628 222.076 84.5488 223.644 82.9179C225.234 81.2649 227.311 80.4011 229.876 80.3265ZM229.926 81.8675C228.014 81.9231 226.435 82.5368 225.19 83.7084C223.945 84.8801 223.261 86.3674 223.14 88.1705L236.705 87.7758C236.463 85.8762 235.695 84.4096 234.4 83.3762C233.127 82.3206 231.636 81.8177 229.926 81.8675Z" fill="white"/>
<path d="M250.429 96.5026C247.887 96.5766 245.746 95.8355 244.006 94.2794C242.267 92.7233 241.358 90.7574 241.281 88.3817C241.203 86.006 241.982 83.9911 243.616 82.3368C245.251 80.6825 247.34 79.8184 249.882 79.7444C251.524 79.6966 253.021 80.028 254.373 80.7384C255.724 81.4275 256.724 82.3946 257.372 83.6397L256.014 84.4504C255.485 83.4375 254.671 82.6471 253.572 82.0792C252.495 81.5107 251.282 81.2461 249.932 81.2854C247.907 81.3443 246.231 82.0572 244.902 83.4241C243.572 84.7696 242.939 86.4054 243.001 88.3317C243.064 90.2579 243.804 91.8645 245.219 93.1515C246.634 94.4172 248.354 95.0205 250.379 94.9616C251.728 94.9223 252.922 94.5877 253.96 93.9577C255.02 93.327 255.815 92.4898 256.344 91.4461L257.787 92.2075C257.153 93.4684 256.173 94.4931 254.848 95.2815C253.544 96.0478 252.071 96.4548 250.429 96.5026Z" fill="white"/>
<path d="M272.562 79.438L272.614 81.0111L266.472 81.1898L266.945 95.6686L265.258 95.7177L264.785 81.2389L258.643 81.4175L258.592 79.8445L272.562 79.438Z" fill="white"/>
<path d="M286.261 86.8159C288.261 87.379 289.293 88.6343 289.356 90.582C289.398 91.8661 288.983 92.9386 288.11 93.7995C287.26 94.6597 285.991 95.1144 284.304 95.1635L276.138 95.4011L275.614 79.3492L283.139 79.1302C284.736 79.0838 285.986 79.4437 286.89 80.2101C287.793 80.9765 288.264 81.9696 288.304 83.1895C288.36 84.9018 287.679 86.1105 286.261 86.8159ZM283.19 80.7033L277.352 80.8732L277.534 86.4272L283.372 86.2573C284.451 86.2259 285.265 85.9559 285.811 85.4472C286.357 84.9386 286.616 84.2348 286.586 83.3359C286.558 82.4798 286.244 81.8249 285.644 81.371C285.065 80.8951 284.248 80.6726 283.19 80.7033ZM284.253 93.5904C285.378 93.5577 286.235 93.2757 286.826 92.7443C287.417 92.213 287.697 91.4872 287.667 90.5669C287.638 89.6679 287.3 88.9815 286.654 88.5076C286.03 88.0116 285.166 87.7796 284.064 87.8117L277.585 88.0002L277.774 93.7789L284.253 93.5904Z" fill="white"/>
<path d="M300.98 95.0318C298.505 95.1038 296.376 94.3624 294.591 92.8076C292.828 91.2307 291.908 89.2652 291.832 86.9109C291.755 84.5566 292.545 82.552 294.202 80.8971C295.881 79.2201 297.958 78.3456 300.433 78.2736C302.885 78.2022 304.992 78.955 306.755 80.5318C308.54 82.0866 309.471 84.0412 309.548 86.3954C309.624 88.7497 308.823 90.7654 307.144 92.4424C305.487 94.0973 303.432 94.9604 300.98 95.0318ZM295.769 91.6486C297.207 92.935 298.928 93.549 300.93 93.4908C302.932 93.4325 304.597 92.72 305.926 91.3531C307.255 89.9862 307.889 88.3503 307.827 86.4455C307.764 84.5407 307.025 82.9448 305.61 81.6577C304.194 80.3707 302.485 79.7563 300.483 79.8146C298.481 79.8728 296.804 80.5857 295.453 81.9533C294.124 83.3201 293.49 84.956 293.553 86.8608C293.615 88.7657 294.354 90.3616 295.769 91.6486Z" fill="white"/>
<path d="M749.54 81.627L747.144 81.6968L734.938 70.9656L735.3 82.0414L733.511 82.0934L732.777 59.6208L734.566 59.5687L734.908 70.0346L746.073 59.2339L748.469 59.1642L736.88 70.4271L749.54 81.627Z" fill="white"/>
<path d="M760.891 64.8761C763.321 64.8054 765.406 65.5588 767.146 67.1363C768.908 68.6918 769.828 70.6467 769.905 73.0009C769.982 75.3552 769.192 77.3705 767.535 79.0469C765.9 80.7011 763.868 81.5636 761.439 81.6343C759.841 81.6808 758.39 81.3588 757.084 80.6685C755.8 79.9774 754.789 79.0107 754.05 77.7682L754.382 87.913L752.694 87.9621L751.961 65.4895L753.648 65.4404L753.769 69.1644C754.426 67.8814 755.372 66.8577 756.608 66.0933C757.866 65.3283 759.294 64.9226 760.891 64.8761ZM756.127 78.2541C757.565 79.5405 759.285 80.1545 761.287 80.0963C763.289 80.038 764.955 79.3255 766.284 77.9586C767.635 76.591 768.28 74.9549 768.218 73.05C768.155 71.1452 767.405 69.5496 765.967 68.2632C764.552 66.9762 762.843 66.3618 760.84 66.4201C758.838 66.4783 757.161 67.1912 755.81 68.5588C754.481 69.9256 753.848 71.5615 753.91 73.4663C753.972 75.3712 754.711 76.9671 756.127 78.2541Z" fill="white"/>
<path d="M786.162 64.4943L787.647 64.4511L788.171 80.503L786.45 80.5531L786.017 67.2943L775.719 80.8653L774.234 80.9086L773.71 64.8566L775.397 64.8076L775.83 78.0664L786.162 64.4943Z" fill="white"/>
<path d="M806.793 63.8941L807.317 79.946L805.596 79.9961L805.123 65.5172L794.595 65.8236L795.068 80.3024L793.38 80.3515L792.856 64.2996L806.793 63.8941Z" fill="white"/>
<path d="M823.813 63.3989L823.864 64.9719L817.723 65.1506L818.196 79.6295L816.508 79.6785L816.036 65.1997L809.894 65.3784L809.843 63.8053L823.813 63.3989Z" fill="white"/>
<path d="M834.469 79.5095C831.994 79.5815 829.864 78.8401 828.08 77.2853C826.317 75.7084 825.397 73.7429 825.32 71.3886C825.243 69.0343 826.034 67.0297 827.691 65.3747C829.37 63.6978 831.447 62.8233 833.921 62.7513C836.374 62.6799 838.481 63.4327 840.244 65.0095C842.028 66.5643 842.959 68.5188 843.036 70.8731C843.113 73.2274 842.312 75.243 840.633 76.92C838.975 78.575 836.921 79.4381 834.469 79.5095ZM829.258 76.1263C830.696 77.4127 832.416 78.0267 834.418 77.9685C836.421 77.9102 838.086 77.1976 839.415 75.8308C840.744 74.4639 841.377 72.828 841.315 70.9232C841.253 69.0184 840.514 67.4224 839.098 66.1354C837.683 64.8484 835.974 64.234 833.972 64.2922C831.97 64.3505 830.293 65.0634 828.941 66.4309C827.612 67.7978 826.979 69.4337 827.041 71.3385C827.103 73.2433 827.842 74.8393 829.258 76.1263Z" fill="white"/>
<path d="M857.482 70.1957C859.482 70.7588 860.513 72.0142 860.577 73.9618C860.619 75.2459 860.203 76.3185 859.331 77.1793C858.481 78.0396 857.212 78.4942 855.525 78.5433L847.359 78.7809L846.834 62.729L854.36 62.5101C855.957 62.4636 857.207 62.8235 858.11 63.5899C859.013 64.3563 859.485 65.3494 859.525 66.5694C859.581 68.2816 858.9 69.4904 857.482 70.1957ZM854.411 64.0832L848.573 64.253L848.754 69.807L854.592 69.6371C855.672 69.6057 856.485 69.3357 857.032 68.8271C857.578 68.3184 857.836 67.6147 857.807 66.7158C857.779 65.8597 857.465 65.2047 856.865 64.7509C856.286 64.275 855.468 64.0524 854.411 64.0832ZM855.474 76.9702C856.598 76.9375 857.456 76.6555 858.047 76.1241C858.637 75.5928 858.918 74.867 858.888 73.9467C858.858 73.0478 858.521 72.3613 857.875 71.8874C857.25 71.3914 856.387 71.1595 855.285 71.1916L848.806 71.3801L848.994 77.1587L855.474 76.9702Z" fill="white"/>
<path d="M878.785 61.7994L880.506 61.7493L881.03 77.8012L879.309 77.8513L879.191 74.2236C878.512 75.4859 877.553 76.4885 876.317 77.2314C875.08 77.9743 873.663 78.3691 872.066 78.4155C869.659 78.4856 867.574 77.7429 865.812 76.1874C864.049 74.6106 863.129 72.645 863.052 70.2907C862.975 67.9364 863.766 65.9318 865.423 64.2769C867.08 62.6006 869.111 61.7274 871.518 61.6573C873.116 61.6109 874.556 61.9224 875.839 62.5921C877.122 63.2617 878.143 64.2067 878.904 65.4271L878.785 61.7994ZM866.99 75.0284C868.428 76.3148 870.148 76.9289 872.15 76.8706C874.153 76.8124 875.818 76.0998 877.147 74.7329C878.476 73.366 879.109 71.7302 879.047 69.8253C878.985 67.9205 878.246 66.3246 876.83 65.0376C875.415 63.7505 873.706 63.1361 871.704 63.1944C869.702 63.2526 868.025 63.9655 866.673 65.3331C865.344 66.7 864.711 68.3358 864.773 70.2407C864.835 72.1455 865.574 73.7414 866.99 75.0284Z" fill="white"/>
<path d="M899.387 61.1999L899.911 77.2519L898.224 77.3009L897.751 62.8221L889.248 63.0695L889.5 70.8066C889.586 73.4177 889.139 75.2409 888.159 76.2763C887.18 77.3117 885.81 77.7907 884.052 77.7133L884.002 76.2044C885.355 76.2722 886.345 75.9006 886.972 75.0897C887.598 74.2789 887.879 72.8675 887.813 70.8557L887.509 61.5456L899.387 61.1999Z" fill="white"/>
<path d="M918.764 60.2827C921.217 60.2113 923.324 60.9641 925.087 62.5409C926.872 64.0957 927.802 66.0502 927.879 68.4045C927.956 70.7588 927.155 72.7744 925.476 74.4514C923.819 76.1064 921.764 76.9695 919.312 77.0409C916.995 77.1083 914.98 76.4492 913.269 75.0637C911.579 73.6561 910.597 71.8637 910.323 69.6866L906.544 69.7965L906.781 77.052L905.094 77.1011L904.569 61.0492L906.257 61.0001L906.494 68.2555L910.273 68.1456C910.404 65.9566 911.268 64.1213 912.863 62.6395C914.48 61.1357 916.447 60.3501 918.764 60.2827ZM914.101 73.6577C915.539 74.9441 917.259 75.5581 919.261 75.4999C921.264 75.4416 922.929 74.7291 924.258 73.3622C925.587 71.9953 926.22 70.3594 926.158 68.4546C926.096 66.5498 925.357 64.9538 923.942 63.6668C922.526 62.3798 920.817 61.7654 918.815 61.8236C916.813 61.8819 915.136 62.5948 913.784 63.9624C912.455 65.3292 911.822 66.9651 911.884 68.8699C911.946 70.7747 912.685 72.3707 914.101 73.6577Z" fill="white"/>
<path d="M942.809 59.9365L942.86 61.5096L936.719 61.6883L937.192 76.1671L935.504 76.2162L935.032 61.7374L928.89 61.9161L928.839 60.343L942.809 59.9365Z" fill="white"/>
<path d="M960.049 59.4349L961.77 59.3849L962.294 75.4368L960.573 75.4868L960.455 71.8591C959.775 73.1214 958.817 74.124 957.581 74.867C956.344 75.6099 954.927 76.0046 953.33 76.0511C950.923 76.1211 948.838 75.3784 947.076 73.823C945.313 72.2461 944.393 70.2806 944.316 67.9263C944.239 65.572 945.03 63.5674 946.687 61.9125C948.343 60.2361 950.375 59.3629 952.782 59.2929C954.38 59.2464 955.82 59.558 957.103 60.2276C958.386 60.8973 959.407 61.8423 960.168 63.0627L960.049 59.4349ZM948.254 72.664C949.692 73.9504 951.412 74.5644 953.414 74.5062C955.417 74.4479 957.082 73.7353 958.411 72.3685C959.74 71.0016 960.373 69.3657 960.311 67.4609C960.249 65.5561 959.51 63.9601 958.095 62.6731C956.679 61.3861 954.97 60.7717 952.968 60.8299C950.966 60.8882 949.289 61.6011 947.937 62.9686C946.608 64.3355 945.975 65.9714 946.037 67.8762C946.099 69.781 946.838 71.377 948.254 72.664Z" fill="white"/>
<path d="M1062.92 72.8626C1059.37 72.966 1056.39 71.9385 1054.01 69.78C1051.61 67.6002 1050.37 64.8837 1050.26 61.6305C1050.15 58.3773 1051.22 55.6041 1053.47 53.3108C1055.71 50.9961 1058.61 49.787 1062.16 49.6836C1064.32 49.6208 1066.32 50.0554 1068.15 50.9876C1069.98 51.8983 1071.42 53.1633 1072.46 54.7825L1070.91 55.6955C1070.07 54.3272 1068.88 53.248 1067.32 52.4578C1065.76 51.6462 1064.06 51.2672 1062.22 51.3209C1059.16 51.4099 1056.67 52.4464 1054.75 54.4302C1052.86 56.392 1051.96 58.7747 1052.05 61.5784C1052.14 64.3822 1053.2 66.7187 1055.22 68.588C1057.26 70.4352 1059.81 71.3143 1062.87 71.2253C1064.71 71.1716 1066.4 70.6941 1067.92 69.7929C1069.45 68.8916 1070.58 67.7125 1071.32 66.2557L1072.93 67.0763C1072.02 68.7739 1070.67 70.1521 1068.88 71.211C1067.09 72.2486 1065.1 72.7991 1062.92 72.8626Z" fill="white"/>
<path d="M1084.55 72.2331C1082.08 72.3051 1079.95 71.5637 1078.17 70.0089C1076.4 68.4321 1075.48 66.4665 1075.41 64.1122C1075.33 61.758 1076.12 59.7534 1077.78 58.0984C1079.46 56.4214 1081.53 55.5469 1084.01 55.4749C1086.46 55.4036 1088.57 56.1563 1090.33 57.7332C1092.11 59.288 1093.05 61.2425 1093.12 63.5968C1093.2 65.9511 1092.4 67.9667 1090.72 69.6437C1089.06 71.2986 1087.01 72.1618 1084.55 72.2331ZM1079.34 68.85C1080.78 70.1363 1082.5 70.7504 1084.5 70.6921C1086.51 70.6339 1088.17 69.9213 1089.5 68.5544C1090.83 67.1875 1091.46 65.5517 1091.4 63.6469C1091.34 61.742 1090.6 60.1461 1089.18 58.8591C1087.77 57.572 1086.06 56.9577 1084.06 57.0159C1082.06 57.0742 1080.38 57.7871 1079.03 59.1546C1077.7 60.5215 1077.07 62.1574 1077.13 64.0622C1077.19 65.967 1077.93 67.5629 1079.34 68.85Z" fill="white"/>
<path d="M1104.81 71.6758C1102.38 71.7465 1100.33 71.0456 1098.67 69.5732C1097 68.0793 1096.12 66.1124 1096.04 63.6725C1095.95 60.9972 1096.29 58.9201 1097.05 57.4412C1097.84 55.9402 1099.49 54.5531 1102.02 53.2799C1102.51 53.0515 1103.08 52.7884 1103.75 52.4905C1104.41 52.1926 1104.95 51.9629 1105.35 51.8013C1105.77 51.6176 1106.21 51.4012 1106.68 51.152C1107.16 50.8808 1107.55 50.6232 1107.83 50.3793C1108.12 50.1354 1108.37 49.8389 1108.58 49.4899C1108.79 49.1195 1108.93 48.7086 1108.98 48.2572L1110.35 48.9563C1110.26 49.5589 1110.06 50.0894 1109.76 50.5481C1109.49 51.006 1109.05 51.4365 1108.46 51.8394C1107.88 52.2202 1107.37 52.5242 1106.93 52.7513C1106.51 52.9778 1105.85 53.2864 1104.94 53.6771C1104.02 54.0677 1103.37 54.3546 1102.97 54.5376C1101.33 55.2923 1100.13 56.0985 1099.37 56.9561C1098.63 57.813 1098.15 58.9517 1097.93 60.3721C1098.67 59.1721 1099.67 58.2648 1100.91 57.6503C1102.15 57.0358 1103.41 56.7098 1104.7 56.6725C1106.95 56.6071 1108.84 57.259 1110.37 58.6284C1111.9 59.9978 1112.7 61.774 1112.77 63.957C1112.84 66.1187 1112.12 67.9284 1110.62 69.3861C1109.13 70.8432 1107.2 71.6064 1104.81 71.6758ZM1104.76 70.0706C1106.65 70.0156 1108.19 69.4247 1109.36 68.2978C1110.54 67.1496 1111.1 65.7193 1111.05 64.0071C1110.99 62.2735 1110.36 60.8673 1109.15 59.7884C1107.95 58.7095 1106.41 58.1972 1104.54 58.2515C1102.83 58.3012 1101.31 58.8597 1099.97 59.927C1098.66 60.9936 1097.96 62.3421 1097.87 63.9727C1097.93 65.8133 1098.61 67.3038 1099.91 68.4443C1101.21 69.5848 1102.83 70.1269 1104.76 70.0706Z" fill="white"/>
<path d="M1124.46 71.072C1121.92 71.146 1119.78 70.4049 1118.04 68.8488C1116.3 67.2927 1115.39 65.3268 1115.31 62.9511C1115.24 60.5754 1116.01 58.5605 1117.65 56.9062C1119.28 55.2519 1121.37 54.3878 1123.91 54.3138C1125.56 54.266 1127.05 54.5974 1128.41 55.3078C1129.76 55.9969 1130.76 56.964 1131.41 58.2091L1130.05 59.0198C1129.52 58.0069 1128.7 57.2165 1127.61 56.6486C1126.53 56.0801 1125.31 55.8155 1123.97 55.8548C1121.94 55.9137 1120.26 56.6266 1118.93 57.9935C1117.6 59.339 1116.97 60.9748 1117.03 62.901C1117.1 64.8273 1117.84 66.4339 1119.25 67.7209C1120.67 68.9866 1122.39 69.5899 1124.41 69.531C1125.76 69.4917 1126.96 69.1571 1127.99 68.527C1129.05 67.8964 1129.85 67.0592 1130.38 66.0155L1131.82 66.7768C1131.19 68.0378 1130.21 69.0625 1128.88 69.8509C1127.58 70.6172 1126.1 71.0242 1124.46 71.072Z" fill="white"/>
<path d="M1146.6 54.0074L1146.65 55.5805L1140.51 55.7591L1140.98 70.238L1139.29 70.2871L1138.82 55.8082L1132.68 55.9869L1132.62 54.4138L1146.6 54.0074Z" fill="white"/>
<path d="M1160.29 61.3853C1162.29 61.9484 1163.33 63.2037 1163.39 65.1514C1163.43 66.4355 1163.02 67.508 1162.14 68.3689C1161.29 69.2291 1160.02 69.6838 1158.34 69.7329L1150.17 69.9705L1149.65 53.9186L1157.17 53.6996C1158.77 53.6532 1160.02 54.0131 1160.92 54.7795C1161.83 55.5458 1162.3 56.539 1162.34 57.7589C1162.39 59.4711 1161.71 60.6799 1160.29 61.3853ZM1157.22 55.2727L1151.39 55.4426L1151.57 60.9965L1157.4 60.8267C1158.48 60.7953 1159.3 60.5252 1159.84 60.0166C1160.39 59.508 1160.65 58.8042 1160.62 57.9053C1160.59 57.0492 1160.28 56.3943 1159.68 55.9404C1159.1 55.4645 1158.28 55.242 1157.22 55.2727ZM1158.29 68.1598C1159.41 68.1271 1160.27 67.845 1160.86 67.3137C1161.45 66.7824 1161.73 66.0566 1161.7 65.1362C1161.67 64.2373 1161.33 63.5509 1160.69 63.077C1160.06 62.581 1159.2 62.349 1158.1 62.3811L1151.62 62.5696L1151.81 68.3483L1158.29 68.1598Z" fill="white"/>
<path d="M1174.33 52.8469C1176.81 52.7749 1178.83 53.5513 1180.42 55.1762C1182.03 56.8005 1182.87 58.7576 1182.94 61.0477C1182.94 61.1333 1182.94 61.262 1182.92 61.4339C1182.93 61.6051 1182.93 61.7335 1182.93 61.8192L1167.65 62.2639C1167.91 64.0559 1168.71 65.4893 1170.05 66.5643C1171.41 67.6172 1173.06 68.1155 1175 68.0592C1176.35 68.0199 1177.52 67.718 1178.51 67.1535C1179.51 66.589 1180.25 65.8605 1180.74 64.9679L1182.25 65.7594C1181.59 66.8926 1180.63 67.8096 1179.37 68.5104C1178.11 69.1898 1176.66 69.5534 1175.01 69.6012C1172.43 69.6764 1170.27 68.9571 1168.56 67.4431C1166.84 65.9078 1165.94 63.9202 1165.86 61.4803C1165.79 59.0832 1166.53 57.0692 1168.1 55.4383C1169.69 53.7853 1171.77 52.9215 1174.33 52.8469ZM1174.38 54.3879C1172.47 54.4435 1170.89 55.0572 1169.64 56.2288C1168.4 57.4004 1167.72 58.8878 1167.6 60.6908L1181.16 60.2961C1180.92 58.3966 1180.15 56.93 1178.86 55.8966C1177.58 54.841 1176.09 54.3381 1174.38 54.3879Z" fill="white"/>
<path d="M1198.84 52.4874L1200.56 52.4373L1201.08 68.4892L1199.36 68.5393L1199.12 61.2838L1188.6 61.5901L1188.83 68.8456L1187.15 68.8947L1186.62 52.8428L1188.31 52.7937L1188.55 60.0492L1199.07 59.7428L1198.84 52.4874Z" fill="white"/>
<path d="M1217.98 51.9303L1219.7 51.8802L1220.23 67.9321L1218.51 67.9822L1218.27 60.7267L1207.74 61.0331L1207.98 68.2885L1206.29 68.3376L1205.77 52.2857L1207.45 52.2366L1207.69 59.4921L1218.22 59.1857L1217.98 51.9303Z" fill="white"/>
<path d="M1231.8 57.7624C1233.35 57.7172 1234.68 58.1391 1235.79 59.028C1236.9 59.9169 1237.48 61.0783 1237.53 62.5123C1237.57 63.9462 1237.07 65.1391 1236.02 66.0908C1234.97 67.0425 1233.67 67.541 1232.12 67.5861L1225.44 67.7805L1224.91 51.7286L1226.6 51.6795L1226.8 57.9077L1231.8 57.7624ZM1239.76 51.2966L1241.45 51.2475L1241.97 67.2994L1240.29 67.3485L1239.76 51.2966ZM1232.07 66.0131C1233.15 65.9816 1234.05 65.6448 1234.77 65.0025C1235.49 64.3602 1235.84 63.5468 1235.81 62.5623C1235.77 61.5564 1235.37 60.7646 1234.61 60.1869C1233.87 59.5872 1232.95 59.3034 1231.85 59.3355L1226.86 59.4808L1227.07 66.1584L1232.07 66.0131Z" fill="white"/>
<path d="M1254.21 50.5227C1256.69 50.4507 1258.71 51.2272 1260.3 52.852C1261.91 54.4763 1262.75 56.4334 1262.82 58.7235C1262.82 58.8091 1262.82 58.9379 1262.8 59.1097C1262.81 59.281 1262.81 59.4094 1262.81 59.495L1247.53 59.9398C1247.79 61.7317 1248.59 63.1651 1249.93 64.2401C1251.29 65.293 1252.94 65.7913 1254.88 65.735C1256.23 65.6957 1257.4 65.3939 1258.39 64.8293C1259.39 64.2648 1260.13 63.5363 1260.62 62.6437L1262.13 63.4352C1261.47 64.5684 1260.51 65.4854 1259.25 66.1862C1257.99 66.8656 1256.54 67.2292 1254.89 67.277C1252.31 67.3523 1250.15 66.6329 1248.44 65.119C1246.72 63.5836 1245.82 61.596 1245.74 59.1561C1245.67 56.759 1246.41 54.745 1247.98 53.1141C1249.57 51.4611 1251.65 50.5973 1254.21 50.5227ZM1254.26 52.0637C1252.35 52.1193 1250.77 52.733 1249.52 53.9046C1248.28 55.0763 1247.6 56.5636 1247.48 58.3667L1261.04 57.972C1260.8 56.0724 1260.03 54.6058 1258.74 53.5724C1257.46 52.5168 1255.97 52.014 1254.26 52.0637Z" fill="white"/>
<path d="M1284.43 49.6435C1286.86 49.5728 1288.94 50.3262 1290.68 51.9037C1292.45 53.4592 1293.36 55.414 1293.44 57.7683C1293.52 60.1226 1292.73 62.1379 1291.07 63.8142C1289.44 65.4685 1287.4 66.331 1284.98 66.4017C1283.38 66.4482 1281.93 66.1262 1280.62 65.4359C1279.34 64.7448 1278.33 63.7781 1277.59 62.5356L1277.92 72.6804L1276.23 72.7295L1275.5 50.2568L1277.18 50.2078L1277.31 53.9318C1277.96 52.6488 1278.91 51.6251 1280.14 50.8607C1281.4 50.0957 1282.83 49.69 1284.43 49.6435ZM1279.66 63.0215C1281.1 64.3079 1282.82 64.9219 1284.82 64.8637C1286.83 64.8054 1288.49 64.0928 1289.82 62.726C1291.17 61.3584 1291.82 59.7222 1291.75 57.8174C1291.69 55.9126 1290.94 54.317 1289.5 53.0306C1288.09 51.7436 1286.38 51.1292 1284.38 51.1874C1282.37 51.2457 1280.7 51.9586 1279.35 53.3261C1278.02 54.693 1277.38 56.3289 1277.45 58.2337C1277.51 60.1385 1278.25 61.7345 1279.66 63.0215Z" fill="white"/>
<path d="M1312.09 49.192L1313.82 49.1419L1314.34 65.1939L1312.62 65.2439L1312.5 61.6162C1311.82 62.8785 1310.86 63.8811 1309.63 64.624C1308.39 65.367 1306.97 65.7617 1305.37 65.8082C1302.97 65.8782 1300.88 65.1355 1299.12 63.5801C1297.36 62.0032 1296.44 60.0376 1296.36 57.6834C1296.28 55.3291 1297.07 53.3245 1298.73 51.6695C1300.39 49.9932 1302.42 49.12 1304.83 49.05C1306.42 49.0035 1307.86 49.3151 1309.15 49.9847C1310.43 50.6543 1311.45 51.5993 1312.21 52.8197L1312.09 49.192ZM1300.3 62.4211C1301.74 63.7074 1303.46 64.3215 1305.46 64.2633C1307.46 64.205 1309.13 63.4924 1310.46 62.1255C1311.79 60.7587 1312.42 59.1228 1312.36 57.218C1312.29 55.3131 1311.56 53.7172 1310.14 52.4302C1308.72 51.1432 1307.02 50.5288 1305.01 50.587C1303.01 50.6453 1301.33 51.3582 1299.98 52.7257C1298.65 54.0926 1298.02 55.7285 1298.08 57.6333C1298.14 59.5381 1298.88 61.134 1300.3 62.4211Z" fill="white"/>
<path d="M1327.35 56.5247C1328.37 56.8163 1329.18 57.307 1329.76 57.9969C1330.35 58.6869 1330.65 59.492 1330.68 60.4123C1330.73 61.7178 1330.22 62.8358 1329.17 63.7661C1328.12 64.6964 1326.61 65.1904 1324.63 65.248C1321.25 65.3462 1319.02 64.1472 1317.92 61.6512L1319.35 60.8064C1320.13 62.8187 1321.88 63.7856 1324.58 63.707C1325.97 63.6664 1327.05 63.3457 1327.82 62.745C1328.61 62.1221 1328.99 61.3292 1328.96 60.366C1328.93 59.4885 1328.57 58.7921 1327.88 58.2766C1327.19 57.7398 1326.28 57.4878 1325.15 57.5205L1322.82 57.5882L1322.77 56.0152L1324.46 55.9661C1325.56 55.934 1326.42 55.6413 1327.03 55.0879C1327.64 54.5345 1327.94 53.8083 1327.91 52.9094C1327.88 52.0533 1327.48 51.3578 1326.72 50.823C1325.98 50.266 1325.02 50.0049 1323.83 50.0396C1321.53 50.1064 1320.04 51.0174 1319.36 52.7726L1317.91 52.0433C1318.35 51.0023 1319.07 50.1674 1320.06 49.5386C1321.05 48.8885 1322.29 48.5418 1323.78 48.4986C1325.51 48.4482 1326.9 48.8471 1327.94 49.6951C1329 50.5211 1329.55 51.5548 1329.59 52.7961C1329.65 54.5297 1328.9 55.7726 1327.35 56.5247Z" fill="white"/>
<path d="M1342.95 47.9407C1345.38 47.87 1347.47 48.6234 1349.21 50.2009C1350.97 51.7563 1351.89 53.7112 1351.97 56.0655C1352.04 58.4197 1351.25 60.435 1349.6 62.1114C1347.96 63.7657 1345.93 64.6281 1343.5 64.6988C1341.9 64.7453 1340.45 64.4234 1339.15 63.733C1337.86 63.042 1336.85 62.0752 1336.11 60.8328L1336.44 70.9776L1334.76 71.0266L1334.02 48.554L1335.71 48.5049L1335.83 52.2289C1336.49 50.9459 1337.43 49.9222 1338.67 49.1579C1339.93 48.3929 1341.36 47.9871 1342.95 47.9407ZM1338.19 61.3186C1339.63 62.605 1341.35 63.2191 1343.35 63.1608C1345.35 63.1026 1347.02 62.39 1348.35 61.0231C1349.7 59.6556 1350.34 58.0194 1350.28 56.1145C1350.22 54.2097 1349.47 52.6141 1348.03 51.3277C1346.61 50.0407 1344.91 49.4263 1342.9 49.4846C1340.9 49.5428 1339.22 50.2557 1337.87 51.6233C1336.54 52.9902 1335.91 54.626 1335.97 56.5308C1336.03 58.4357 1336.77 60.0316 1338.19 61.3186Z" fill="white"/>
<path d="M1370.62 47.4892L1372.34 47.4391L1372.87 63.491L1371.14 63.5411L1371.03 59.9133C1370.35 61.1756 1369.39 62.1782 1368.15 62.9212C1366.92 63.6641 1365.5 64.0588 1363.9 64.1053C1361.49 64.1753 1359.41 63.4326 1357.65 61.8772C1355.88 60.3003 1354.96 58.3348 1354.89 55.9805C1354.81 53.6262 1355.6 51.6216 1357.26 49.9667C1358.91 48.2903 1360.95 47.4171 1363.35 47.3471C1364.95 47.3006 1366.39 47.6122 1367.67 48.2818C1368.96 48.9515 1369.98 49.8965 1370.74 51.1169L1370.62 47.4892ZM1358.82 60.7182C1360.26 62.0046 1361.98 62.6186 1363.99 62.5604C1365.99 62.5021 1367.65 61.7896 1368.98 60.4227C1370.31 59.0558 1370.94 57.4199 1370.88 55.5151C1370.82 53.6103 1370.08 52.0143 1368.67 50.7273C1367.25 49.4403 1365.54 48.8259 1363.54 48.8842C1361.54 48.9424 1359.86 49.6553 1358.51 51.0229C1357.18 52.3897 1356.55 54.0256 1356.61 55.9304C1356.67 57.8352 1357.41 59.4312 1358.82 60.7182Z" fill="white"/>
<path d="M1385.42 63.5115C1382.99 63.5821 1380.94 62.8813 1379.27 61.4088C1377.6 59.915 1376.72 57.9481 1376.64 55.5082C1376.55 52.8329 1376.89 50.7557 1377.65 49.2768C1378.44 47.7758 1380.09 46.3887 1382.62 45.1156C1383.11 44.8872 1383.68 44.624 1384.35 44.3261C1385.02 44.0283 1385.55 43.7985 1385.95 43.6369C1386.37 43.4533 1386.81 43.2369 1387.28 42.9877C1387.76 42.7165 1388.15 42.4589 1388.44 42.2149C1388.72 41.971 1388.97 41.6745 1389.18 41.3255C1389.4 40.9552 1389.53 40.5443 1389.58 40.0928L1390.96 40.792C1390.86 41.3945 1390.67 41.9251 1390.37 42.3837C1390.09 42.8417 1389.65 43.2721 1389.06 43.675C1388.48 44.0559 1387.98 44.3599 1387.53 44.587C1387.11 44.8134 1386.45 45.122 1385.54 45.5127C1384.63 45.9034 1383.97 46.1902 1383.57 46.3732C1381.93 47.1279 1380.73 47.9341 1379.97 48.7917C1379.23 49.6487 1378.75 50.7874 1378.53 52.2078C1379.28 51.0077 1380.27 50.1004 1381.51 49.4859C1382.75 48.8714 1384.01 48.5455 1385.3 48.5082C1387.55 48.4427 1389.44 49.0947 1390.97 50.464C1392.5 51.8334 1393.3 53.6096 1393.37 55.7927C1393.44 57.9543 1392.72 59.764 1391.22 61.2218C1389.73 62.6788 1387.8 63.4421 1385.42 63.5115ZM1385.36 61.9063C1387.25 61.8513 1388.79 61.2603 1389.97 60.1335C1391.14 58.9852 1391.71 57.555 1391.65 55.8427C1391.59 54.1091 1390.96 52.7029 1389.76 51.624C1388.55 50.5451 1387.01 50.0328 1385.15 50.0871C1383.44 50.1369 1381.91 50.6954 1380.57 51.7626C1379.26 52.8292 1378.56 54.1778 1378.48 55.8083C1378.54 57.6489 1379.22 59.1395 1380.51 60.28C1381.81 61.4205 1383.43 61.9626 1385.36 61.9063Z" fill="white"/>
<path d="M1405.06 62.9076C1402.59 62.9796 1400.46 62.2382 1398.67 60.6835C1396.91 59.1066 1395.99 57.141 1395.91 54.7868C1395.84 52.4325 1396.63 50.4279 1398.29 48.7729C1399.96 47.0959 1402.04 46.2214 1404.52 46.1494C1406.97 46.0781 1409.08 46.8308 1410.84 48.4077C1412.62 49.9625 1413.55 51.917 1413.63 54.2713C1413.71 56.6256 1412.91 58.6412 1411.23 60.3182C1409.57 61.9731 1407.52 62.8363 1405.06 62.9076ZM1399.85 59.5245C1401.29 60.8109 1403.01 61.4249 1405.01 61.3667C1407.02 61.3084 1408.68 60.5958 1410.01 59.2289C1411.34 57.8621 1411.97 56.2262 1411.91 54.3214C1411.85 52.4165 1411.11 50.8206 1409.69 49.5336C1408.28 48.2466 1406.57 47.6322 1404.57 47.6904C1402.56 47.7487 1400.89 48.4616 1399.54 49.8291C1398.21 51.196 1397.57 52.8319 1397.64 54.7367C1397.7 56.6415 1398.44 58.2374 1399.85 59.5245Z" fill="white"/>
<path d="M1428.58 45.8027L1428.63 47.3758L1422.49 47.5545L1422.96 62.0333L1421.28 62.0824L1420.8 47.6036L1414.66 47.7823L1414.61 46.2092L1428.58 45.8027Z" fill="white"/>
<path d="M1445.08 61.3898L1442.79 61.4566L1433.59 53.8192L1433.84 61.7168L1432.16 61.7659L1431.63 45.714L1433.32 45.6649L1433.56 52.9524L1441.86 45.4165L1444.22 45.3477L1435.39 53.3168L1445.08 61.3898Z" fill="white"/>
<path d="M1460.4 44.877L1461.88 44.8338L1462.41 60.8857L1460.68 60.9358L1460.25 47.6769L1449.95 61.248L1448.47 61.2912L1447.94 45.2393L1449.63 45.1902L1450.06 58.4491L1460.4 44.877Z" fill="white"/>
<path d="M1572.45 35.1898L1573.18 57.6625L1571.39 57.7145L1570.74 37.7459L1562.45 51.8049L1562.15 51.8137L1552.96 38.2634L1553.61 58.2319L1551.82 58.284L1551.09 35.8113L1553.31 35.7465L1562.18 48.792L1570.19 35.2556L1572.45 35.1898Z" fill="white"/>
<path d="M1585.76 40.8758C1588.23 40.8038 1590.26 41.5803 1591.85 43.2052C1593.45 44.8294 1594.29 46.7866 1594.37 49.0766C1594.37 49.1622 1594.37 49.291 1594.35 49.4629C1594.35 49.6341 1594.36 49.7625 1594.36 49.8481L1579.07 50.2929C1579.34 52.0848 1580.14 53.5182 1581.48 54.5932C1582.84 55.6461 1584.49 56.1444 1586.42 56.0881C1587.77 56.0489 1588.95 55.747 1589.94 55.1825C1590.94 54.6179 1591.68 53.8894 1592.17 52.9968L1593.68 53.7883C1593.02 54.9216 1592.06 55.8386 1590.8 56.5394C1589.54 57.2187 1588.08 57.5823 1586.44 57.6301C1583.85 57.7054 1581.7 56.986 1579.99 55.4721C1578.27 53.9367 1577.37 51.9491 1577.29 49.5092C1577.21 47.1122 1577.96 45.0982 1579.53 43.4672C1581.12 41.8143 1583.19 40.9505 1585.76 40.8758ZM1585.81 42.4168C1583.9 42.4725 1582.32 43.0861 1581.07 44.2577C1579.83 45.4294 1579.14 46.9167 1579.02 48.7198L1592.59 48.3251C1592.35 46.4255 1591.58 44.959 1590.28 43.9255C1589.01 42.87 1587.52 42.3671 1585.81 42.4168Z" fill="white"/>
<path d="M1611.7 54.9672L1614.06 54.8984L1614.25 60.7734L1612.53 60.8235L1612.39 56.5216L1597.81 56.9458L1597.95 61.2477L1596.23 61.2977L1596.04 55.4227L1598 55.3658C1599.18 53.7246 1599.73 51.5556 1599.64 48.8589L1599.38 40.833L1611.23 40.4884L1611.7 54.9672ZM1600.09 55.3049L1609.98 55.0172L1609.56 42.1115L1601.12 42.357L1601.33 48.8098C1601.42 51.4424 1601 53.6074 1600.09 55.3049Z" fill="white"/>
<path d="M1629.75 39.9495L1631.23 39.9063L1631.75 55.9582L1630.03 56.0083L1629.6 42.7494L1619.3 56.3205L1617.82 56.3637L1617.29 40.3118L1618.98 40.2627L1619.41 53.5216L1629.75 39.9495Z" fill="white"/>
<path d="M1651.29 39.3227L1653.01 39.2726L1653.53 55.3245L1651.81 55.3746L1651.69 51.7469C1651.01 53.0092 1650.06 54.0118 1648.82 54.7547C1647.58 55.4977 1646.17 55.8924 1644.57 55.9388C1642.16 56.0089 1640.08 55.2662 1638.31 53.7107C1636.55 52.1339 1635.63 50.1683 1635.55 47.814C1635.48 45.4598 1636.27 43.4552 1637.93 41.8002C1639.58 40.1239 1641.61 39.2507 1644.02 39.1806C1645.62 39.1342 1647.06 39.4458 1648.34 40.1154C1649.62 40.785 1650.65 41.73 1651.41 42.9504L1651.29 39.3227ZM1639.49 52.5517C1640.93 53.8381 1642.65 54.4522 1644.65 54.3939C1646.66 54.3357 1648.32 53.6231 1649.65 52.2562C1650.98 50.8893 1651.61 49.2535 1651.55 47.3486C1651.49 45.4438 1650.75 43.8479 1649.33 42.5609C1647.92 41.2738 1646.21 40.6594 1644.21 40.7177C1642.2 40.776 1640.53 41.4889 1639.18 42.8564C1637.85 44.2233 1637.21 45.8591 1637.28 47.764C1637.34 49.6688 1638.08 51.2647 1639.49 52.5517Z" fill="white"/>
<path d="M1758.83 29.767L1759.56 52.2397L1757.74 52.2927L1757.06 31.4252L1743.79 31.8111L1744.48 52.6786L1742.69 52.7306L1741.95 30.258L1758.83 29.767Z" fill="white"/>
<path d="M1773.46 35.4146C1775.89 35.3439 1777.98 36.0973 1779.72 37.6748C1781.48 39.2302 1782.4 41.1851 1782.48 43.5394C1782.55 45.8937 1781.76 47.909 1780.11 49.5853C1778.47 51.2396 1776.44 52.1021 1774.01 52.1728C1772.41 52.2192 1770.96 51.8973 1769.65 51.2069C1768.37 50.5159 1767.36 49.5491 1766.62 48.3067L1766.95 58.4515L1765.26 58.5006L1764.53 36.0279L1766.22 35.9788L1766.34 39.7029C1767 38.4198 1767.94 37.3961 1769.18 36.6318C1770.44 35.8668 1771.86 35.4611 1773.46 35.4146ZM1768.7 48.7926C1770.14 50.0789 1771.86 50.693 1773.86 50.6347C1775.86 50.5765 1777.53 49.8639 1778.85 48.497C1780.21 47.1295 1780.85 45.4933 1780.79 43.5885C1780.73 41.6837 1779.98 40.088 1778.54 38.8017C1777.12 37.5146 1775.41 36.9003 1773.41 36.9585C1771.41 37.0168 1769.73 37.7297 1768.38 39.0972C1767.05 40.4641 1766.42 42.0999 1766.48 44.0048C1766.54 45.9096 1767.28 47.5055 1768.7 48.7926Z" fill="white"/>
<path d="M1794.54 51.5753C1792.07 51.6473 1789.94 50.9059 1788.16 49.3511C1786.39 47.7743 1785.47 45.8087 1785.4 43.4544C1785.32 41.1001 1786.11 39.0955 1787.77 37.4406C1789.45 35.7636 1791.52 34.8891 1794 34.8171C1796.45 34.7458 1798.56 35.4985 1800.32 37.0754C1802.1 38.6301 1803.03 40.5847 1803.11 42.939C1803.19 45.2932 1802.39 47.3089 1800.71 48.9859C1799.05 50.6408 1797 51.5039 1794.54 51.5753ZM1789.33 48.1921C1790.77 49.4785 1792.49 50.0926 1794.49 50.0343C1796.5 49.9761 1798.16 49.2635 1799.49 47.8966C1800.82 46.5297 1801.45 44.8939 1801.39 42.989C1801.33 41.0842 1800.59 39.4883 1799.17 38.2013C1797.76 36.9142 1796.05 36.2998 1794.05 36.3581C1792.04 36.4163 1790.37 37.1292 1789.02 38.4968C1787.69 39.8637 1787.05 41.4995 1787.12 43.4044C1787.18 45.3092 1787.92 46.9051 1789.33 48.1921Z" fill="white"/>
<path d="M1815.17 50.9751C1812.63 51.049 1810.49 50.308 1808.75 48.7519C1807.01 47.1958 1806.1 45.2299 1806.02 42.8542C1805.95 40.4785 1806.73 38.4635 1808.36 36.8093C1810 35.155 1812.08 34.2908 1814.63 34.2169C1816.27 34.1691 1817.76 34.5004 1819.12 35.2109C1820.47 35.9 1821.47 36.8671 1822.12 38.1121L1820.76 38.9229C1820.23 37.91 1819.42 37.1196 1818.32 36.5517C1817.24 35.9832 1816.03 35.7186 1814.68 35.7579C1812.65 35.8168 1810.97 36.5297 1809.65 37.8966C1808.32 39.242 1807.68 40.8779 1807.75 42.8041C1807.81 44.7304 1808.55 46.337 1809.96 47.624C1811.38 48.8896 1813.1 49.493 1815.12 49.4341C1816.47 49.3948 1817.67 49.0602 1818.7 48.4301C1819.76 47.7994 1820.56 46.9623 1821.09 45.9186L1822.53 46.6799C1821.9 47.9409 1820.92 48.9656 1819.59 49.7539C1818.29 50.5202 1816.82 50.9273 1815.17 50.9751Z" fill="white"/>
<path d="M1836.47 41.7112C1838.47 42.2743 1839.5 43.5296 1839.57 45.4773C1839.61 46.7614 1839.19 47.8339 1838.32 48.6948C1837.47 49.5551 1836.2 50.0097 1834.52 50.0588L1826.35 50.2964L1825.83 34.2445L1833.35 34.0256C1834.95 33.9791 1836.2 34.339 1837.1 35.1054C1838 35.8718 1838.48 36.8649 1838.52 38.0849C1838.57 39.7971 1837.89 41.0058 1836.47 41.7112ZM1833.4 35.5986L1827.56 35.7685L1827.75 41.3225L1833.58 41.1526C1834.66 41.1212 1835.48 40.8512 1836.02 40.3425C1836.57 39.8339 1836.83 39.1302 1836.8 38.2312C1836.77 37.3751 1836.46 36.7202 1835.86 36.2663C1835.28 35.7904 1834.46 35.5679 1833.4 35.5986ZM1834.46 48.4857C1835.59 48.453 1836.45 48.171 1837.04 47.6396C1837.63 47.1083 1837.91 46.3825 1837.88 45.4622C1837.85 44.5633 1837.51 43.8768 1836.87 43.4029C1836.24 42.9069 1835.38 42.675 1834.28 42.707L1827.8 42.8955L1827.99 48.6742L1834.46 48.4857Z" fill="white"/>
<path d="M1850.51 33.1728C1852.98 33.1008 1855.01 33.8773 1856.6 35.5022C1858.2 37.1264 1859.05 39.0835 1859.12 41.3736C1859.12 41.4592 1859.12 41.588 1859.1 41.7598C1859.1 41.9311 1859.11 42.0595 1859.11 42.1451L1843.82 42.5899C1844.09 44.3818 1844.89 45.8152 1846.23 46.8902C1847.59 47.9431 1849.24 48.4414 1851.17 48.3851C1852.52 48.3458 1853.7 48.044 1854.69 47.4794C1855.69 46.9149 1856.43 46.1864 1856.92 45.2938L1858.43 46.0853C1857.77 47.2185 1856.81 48.1355 1855.55 48.8363C1854.29 49.5157 1852.83 49.8793 1851.19 49.9271C1848.6 50.0024 1846.45 49.283 1844.74 47.7691C1843.02 46.2337 1842.12 44.2461 1842.04 41.8062C1841.96 39.4091 1842.71 37.3951 1844.28 35.7642C1845.87 34.1112 1847.94 33.2474 1850.51 33.1728ZM1850.56 34.7138C1848.65 34.7694 1847.07 35.3831 1845.82 36.5547C1844.58 37.7264 1843.89 39.2137 1843.77 41.0168L1857.34 40.6221C1857.1 38.7225 1856.33 37.256 1855.03 36.2225C1853.76 35.1669 1852.27 34.6641 1850.56 34.7138Z" fill="white"/>
<path d="M1873.95 32.8442L1874 34.4173L1867.86 34.596L1868.33 49.0748L1866.65 49.1239L1866.17 34.6451L1860.03 34.8238L1859.98 33.2507L1873.95 32.8442Z" fill="white"/>
<path d="M1889.68 32.3866L1890.21 48.4385L1888.52 48.4876L1888.05 34.0087L1879.54 34.2562L1879.79 41.9932C1879.88 44.6043 1879.43 46.4275 1878.45 47.4629C1877.47 48.4983 1876.1 48.9773 1874.35 48.8999L1874.3 47.391C1875.65 47.4588 1876.64 47.0872 1877.27 46.2763C1877.89 45.4655 1878.17 44.0541 1878.11 42.0423L1877.8 32.7322L1889.68 32.3866Z" fill="white"/>
<path d="M1902.44 31.6617C1904.92 31.5897 1906.95 32.3662 1908.53 33.9911C1910.14 35.6153 1910.98 37.5724 1911.06 39.8625C1911.06 39.9481 1911.05 40.0769 1911.03 40.2487C1911.04 40.42 1911.04 40.5484 1911.05 40.634L1895.76 41.0788C1896.02 42.8707 1896.82 44.3041 1898.16 45.3791C1899.53 46.432 1901.18 46.9303 1903.11 46.874C1904.46 46.8347 1905.63 46.5329 1906.63 45.9683C1907.62 45.4038 1908.36 44.6753 1908.85 43.7827L1910.36 44.5742C1909.7 45.7074 1908.74 46.6244 1907.48 47.3252C1906.22 48.0046 1904.77 48.3682 1903.13 48.416C1900.54 48.4913 1898.39 47.7719 1896.67 46.258C1894.96 44.7226 1894.06 42.735 1893.98 40.2951C1893.9 37.898 1894.64 35.884 1896.21 34.2531C1897.8 32.6001 1899.88 31.7363 1902.44 31.6617ZM1902.49 33.2027C1900.58 33.2583 1899 33.872 1897.76 35.0436C1896.51 36.2153 1895.83 37.7026 1895.71 39.5057L1909.27 39.111C1909.03 37.2114 1908.26 35.7448 1906.97 34.7114C1905.7 33.6558 1904.2 33.153 1902.49 33.2027Z" fill="white"/>
<path d="M1926.95 31.3022L1928.67 31.2521L1929.2 47.304L1927.47 47.3541L1927.24 40.0986L1916.71 40.405L1916.95 47.6604L1915.26 47.7095L1914.73 31.6576L1916.42 31.6085L1916.66 38.864L1927.19 38.5576L1926.95 31.3022Z" fill="white"/>
<path d="M1946.33 30.7382L1947.82 30.695L1948.34 46.7469L1946.62 46.797L1946.19 33.5381L1935.89 47.1092L1934.4 47.1524L1933.88 31.1005L1935.57 31.0514L1936 44.3103L1946.33 30.7382Z" fill="white"/>
<path d="M1964.7 30.2037L1965.23 46.2556L1963.54 46.3047L1963.33 40.0445L1959.69 40.1505L1954.6 46.5649L1952.4 46.6287L1957.6 40.1793C1956.22 40.0694 1955.06 39.5891 1954.11 38.7385C1953.15 37.8664 1952.66 36.7776 1952.61 35.472C1952.57 34.0381 1953.07 32.8452 1954.12 31.8935C1955.17 30.9418 1956.47 30.4433 1958.02 30.3981L1964.7 30.2037ZM1958.29 38.6488L1963.28 38.5035L1963.07 31.8259L1958.07 31.9712C1956.99 32.0027 1956.09 32.3395 1955.37 32.9818C1954.65 33.624 1954.3 34.4374 1954.33 35.422C1954.37 36.4279 1954.75 37.2307 1955.49 37.8304C1956.26 38.4081 1957.19 38.6809 1958.29 38.6488Z" fill="white"/>
<defs>
<linearGradient id="paint0_linear_170_14367" x1="975.134" y1="-4.01949" x2="974.488" y2="128.979" gradientUnits="userSpaceOnUse">
<stop stop-color="#4F0D5E"/>
<stop offset="1" stop-color="#4F0D5E" stop-opacity="0"/>
</linearGradient>
</defs>
</svg>
