<svg width="1920" height="283" viewBox="0 0 1920 283" fill="none" xmlns="http://www.w3.org/2000/svg">
<g filter="url(#filter0_d_170_14368)">
<path d="M-42.0118 8.35669L1997.71 211.415L1991.64 274.603L-48.0755 71.5452L-42.0118 8.35669Z" fill="url(#paint0_linear_170_14368)"/>
<path d="M345.165 61.9732C346.786 56.8345 354.67 57.6193 355.284 62.9806C355.622 65.9372 358.598 67.9766 361.631 67.3301C367.13 66.1576 370.448 73.0479 365.89 76.1744C363.376 77.8985 363.045 81.3518 365.183 83.5391C369.061 87.5054 364.496 93.611 359.324 91.3761C356.471 90.1437 353.164 91.5575 352.269 94.3914C350.648 99.5302 342.765 98.7454 342.151 93.3841C341.812 90.4275 338.836 88.388 335.803 89.0346C330.304 90.2071 326.986 83.3168 331.544 80.1903C334.058 78.4661 334.389 75.0128 332.251 72.8255C328.373 68.8592 332.938 62.7537 338.111 64.9885C340.963 66.221 344.271 64.8071 345.165 61.9732Z" fill="#D9D9D9"/>
<path d="M6.0867 28.2174C7.70828 23.0786 15.5913 23.8634 16.2053 29.2247C16.5439 32.1813 19.5202 34.2208 22.5529 33.5742C28.0521 32.4017 31.3701 39.292 26.8118 42.4185C24.2981 44.1427 23.9667 47.596 26.1051 49.7833C29.9827 53.7496 25.4177 59.8551 20.2454 57.6203C17.393 56.3878 14.0853 57.8017 13.191 60.6356C11.5695 65.7743 3.68646 64.9895 3.07248 59.6282C2.73388 56.6716 -0.242492 54.6322 -3.27518 55.2787C-8.77438 56.4512 -12.0923 49.5609 -7.53408 46.4344C-5.02031 44.7103 -4.68892 41.257 -6.82734 39.0696C-10.705 35.1034 -6.13992 28.9978 -0.967684 31.2327C1.88469 32.4651 5.19244 31.0513 6.0867 28.2174Z" fill="#D9D9D9"/>
<path d="M686.225 98.0103C687.956 93.1486 695.409 93.8906 696.182 99.0015L696.232 99.331C696.623 101.915 699.191 103.696 701.878 103.248L704.202 102.86C708.964 102.065 711.427 108.165 707.3 110.535C704.819 111.96 704.5 115.275 706.664 117.162C710.262 120.301 706.686 125.8 702.165 124.081L699.959 123.242C697.408 122.272 694.551 123.513 693.676 125.971L693.564 126.285C691.834 131.146 684.381 130.404 683.607 125.293L683.557 124.964C683.166 122.38 680.599 120.599 677.912 121.047L675.588 121.435C670.826 122.23 668.363 116.13 672.49 113.76C674.971 112.335 675.289 109.02 673.126 107.132C669.528 103.994 673.103 98.4949 677.625 100.214L679.83 101.053C682.382 102.023 685.239 100.782 686.114 98.3237L686.225 98.0103Z" fill="#D9D9D9"/>
<path d="M1003.26 129.571C1004.99 124.71 1012.44 125.452 1013.22 130.563L1013.27 130.892C1013.66 133.476 1016.22 135.257 1018.91 134.809L1021.23 134.421C1026 133.626 1028.46 139.726 1024.33 142.096C1021.85 143.521 1021.53 146.836 1023.7 148.724C1027.29 151.862 1023.72 157.361 1019.2 155.642L1016.99 154.803C1014.44 153.833 1011.58 155.074 1010.71 157.532L1010.6 157.846C1008.87 162.707 1001.41 161.965 1000.64 156.854L1000.59 156.525C1000.2 153.941 997.632 152.16 994.945 152.608L992.621 152.996C987.859 153.791 985.396 147.691 989.522 145.321C992.004 143.896 992.322 140.581 990.159 138.694C986.56 135.555 990.136 130.056 994.657 131.775L996.863 132.614C999.415 133.584 1002.27 132.343 1003.15 129.885L1003.26 129.571Z" fill="#D9D9D9"/>
<path d="M1500.85 179.108C1502.58 174.246 1510.04 174.988 1510.81 180.099L1510.86 180.429C1511.25 183.013 1513.82 184.794 1516.51 184.345L1518.83 183.957C1523.59 183.163 1526.05 189.263 1521.93 191.632C1519.45 193.057 1519.13 196.373 1521.29 198.26C1524.89 201.399 1521.31 206.898 1516.79 205.179L1514.59 204.34C1512.04 203.37 1509.18 204.611 1508.3 207.069L1508.19 207.382C1506.46 212.244 1499.01 211.502 1498.23 206.391L1498.18 206.062C1497.79 203.478 1495.23 201.696 1492.54 202.145L1490.22 202.533C1485.45 203.328 1482.99 197.228 1487.12 194.858C1489.6 193.433 1489.92 190.118 1487.75 188.23C1484.15 185.092 1487.73 179.593 1492.25 181.312L1494.46 182.15C1497.01 183.12 1499.87 181.879 1500.74 179.421L1500.85 179.108Z" fill="#D9D9D9"/>
<path d="M1690.86 198.024C1692.59 193.162 1700.05 193.904 1700.82 199.015L1700.87 199.344C1701.26 201.929 1703.83 203.71 1706.52 203.261L1708.84 202.873C1713.6 202.078 1716.06 208.178 1711.94 210.548C1709.46 211.973 1709.14 215.288 1711.3 217.176C1714.9 220.315 1711.32 225.813 1706.8 224.094L1704.6 223.256C1702.05 222.286 1699.19 223.527 1698.31 225.985L1698.2 226.298C1696.47 231.16 1689.02 230.418 1688.24 225.307L1688.19 224.977C1687.8 222.393 1685.24 220.612 1682.55 221.061L1680.23 221.449C1675.46 222.243 1673 216.143 1677.13 213.774C1679.61 212.349 1679.93 209.033 1677.76 207.146C1674.16 204.007 1677.74 198.508 1682.26 200.227L1684.47 201.066C1687.02 202.036 1689.88 200.795 1690.75 198.337L1690.86 198.024Z" fill="#D9D9D9"/>
<path d="M411.483 95.0145C408.917 97.0186 405.943 97.8523 402.561 97.5156C399.179 97.179 396.42 95.7745 394.283 93.3022C392.149 90.8086 391.235 87.9631 391.542 84.7657C391.848 81.5683 393.285 78.9676 395.851 76.9635C398.42 74.9381 401.395 74.0937 404.776 74.4304C408.158 74.767 410.916 76.1821 413.051 78.6757C415.188 81.148 416.103 83.9829 415.796 87.1803C415.489 90.3777 414.051 92.9891 411.483 95.0145ZM395.637 92.2749C397.468 94.394 399.829 95.5973 402.718 95.8849C405.606 96.1725 408.14 95.4563 410.317 93.7363C412.519 91.9972 413.751 89.7528 414.015 87.003C414.279 84.2532 413.495 81.8188 411.664 79.6997C409.857 77.5615 407.509 76.3486 404.62 76.061C401.731 75.7734 399.185 76.4992 396.984 78.2383C394.807 79.9583 393.586 82.1932 393.322 84.943C393.058 87.6927 393.83 90.1367 395.637 92.2749Z" fill="white"/>
<path d="M428.162 83.2143C430.155 83.4127 431.677 84.1561 432.729 85.4444C433.806 86.7136 434.251 88.3181 434.065 90.2579L433.111 100.202L431.398 100.031L432.352 90.0873C432.495 88.5952 432.172 87.3687 431.382 86.4078C430.615 85.4491 429.448 84.8918 427.88 84.7357C426.156 84.564 424.692 84.9671 423.491 85.945C422.289 86.9228 421.589 88.4456 421.391 90.5133L420.581 98.9544L418.901 98.7872L420.435 82.8002L422.115 82.9674L421.823 86.0049C423.249 83.8658 425.362 82.9356 428.162 83.2143Z" fill="white"/>
<path d="M437.863 100.675L440.102 77.3338L441.782 77.501L439.542 100.842L437.863 100.675Z" fill="white"/>
<path d="M448.439 81.3271C448.147 81.5348 447.822 81.6208 447.464 81.5852C447.106 81.5495 446.804 81.401 446.557 81.1398C446.313 80.8573 446.208 80.5348 446.243 80.1724C446.276 79.8314 446.438 79.557 446.729 79.3493C447.022 79.1202 447.348 79.0235 447.707 79.0592C448.065 79.0949 448.366 79.254 448.61 79.5365C448.857 79.7978 448.963 80.0989 448.931 80.44C448.896 80.8023 448.732 81.098 448.439 81.3271ZM444.719 101.357L446.253 85.3704L447.933 85.5376L446.399 101.525L444.719 101.357Z" fill="white"/>
<path d="M460.836 86.4671C462.829 86.6655 464.352 87.4089 465.404 88.6972C466.48 89.9664 466.925 91.5709 466.739 93.5107L465.785 103.455L464.072 103.284L465.026 93.3401C465.169 91.848 464.846 90.6215 464.057 89.6606C463.289 88.7019 462.122 88.1445 460.554 87.9885C458.83 87.8168 457.367 88.2199 456.165 89.1978C454.963 90.1757 454.263 91.6984 454.065 93.7661L453.255 102.207L451.575 102.04L453.109 86.053L454.789 86.2202L454.498 89.2577C455.924 87.1186 458.037 86.1884 460.836 86.4671Z" fill="white"/>
<path d="M487.499 83.0206L489.179 83.1879L487.031 105.57L485.351 105.402L485.707 101.693C484.892 102.882 483.812 103.775 482.466 104.373C481.142 104.973 479.685 105.193 478.095 105.035C475.676 104.794 473.693 103.79 472.144 102.022C470.62 100.235 469.97 98.1686 470.195 95.8238C470.42 93.479 471.449 91.5909 473.283 90.1594C475.14 88.7088 477.278 88.1039 479.697 88.3447C481.287 88.503 482.674 89.007 483.859 89.8566C485.066 90.7084 485.956 91.7977 486.53 93.1244L487.499 83.0206ZM473.461 101.023C474.723 102.483 476.35 103.312 478.343 103.51C480.336 103.709 482.079 103.215 483.572 102.03C485.088 100.846 485.936 99.3061 486.118 97.409C486.3 95.5118 485.761 93.8334 484.499 92.3735C483.26 90.916 481.643 90.0879 479.65 89.8895C477.657 89.6911 475.903 90.1836 474.388 91.3669C472.895 92.5525 472.057 94.0939 471.875 95.991C471.693 97.8881 472.222 99.5655 473.461 101.023Z" fill="white"/>
<path d="M501.315 90.4969C503.778 90.7421 505.692 91.7718 507.055 93.5861C508.441 95.4026 509.024 97.4512 508.805 99.7321C508.797 99.8173 508.774 99.9441 508.735 100.112C508.719 100.283 508.706 100.411 508.698 100.496L493.481 98.9811C493.51 100.792 494.121 102.316 495.314 103.554C496.531 104.772 498.102 105.478 500.028 105.669C501.372 105.803 502.574 105.654 503.632 105.221C504.691 104.788 505.52 104.161 506.119 103.338L507.518 104.317C506.717 105.356 505.647 106.142 504.307 106.676C502.969 107.189 501.482 107.363 499.848 107.201C497.272 106.944 495.23 105.956 493.723 104.235C492.217 102.492 491.58 100.406 491.814 97.9759C492.043 95.5885 493.039 93.6864 494.803 92.2695C496.591 90.8336 498.762 90.2427 501.315 90.4969ZM501.168 92.0316C499.264 91.8421 497.62 92.2487 496.235 93.2514C494.85 94.254 493.982 95.6417 493.631 97.4144L507.135 98.7588C507.138 96.8438 506.564 95.291 505.412 94.1004C504.284 92.8906 502.87 92.2011 501.168 92.0316Z" fill="white"/>
<path d="M528.213 110.057C525.794 109.816 523.851 108.859 522.384 107.185C520.919 105.489 520.303 103.427 520.536 100.997C520.792 98.3322 521.392 96.3153 522.337 94.9461C523.307 93.5578 525.126 92.3938 527.793 91.4543C528.307 91.2902 528.912 91.103 529.611 90.8928C530.309 90.6826 530.867 90.5229 531.285 90.4138C531.726 90.2857 532.194 90.1278 532.687 89.9401C533.204 89.7334 533.619 89.5273 533.933 89.3218C534.247 89.1163 534.532 88.8541 534.788 88.5354C535.047 88.1953 535.232 87.8048 535.342 87.3638L536.615 88.233C536.446 88.8187 536.183 89.3198 535.826 89.7362C535.492 90.1548 535.004 90.5259 534.363 90.8494C533.746 91.1538 533.203 91.3903 532.735 91.5589C532.289 91.7297 531.589 91.9506 530.636 92.2215C529.683 92.4925 528.997 92.6932 528.578 92.8236C526.853 93.362 525.559 94.0079 524.695 94.7612C523.854 95.5167 523.231 96.5845 522.828 97.9646C523.724 96.8703 524.827 96.0978 526.136 95.6471C527.446 95.1964 528.739 95.0346 530.015 95.1617C532.255 95.3846 534.046 96.2731 535.389 97.8271C536.732 99.3811 537.299 101.245 537.091 103.419C536.884 105.572 535.941 107.275 534.26 108.528C532.602 109.784 530.587 110.293 528.213 110.057ZM528.366 108.458C530.247 108.645 531.845 108.256 533.158 107.289C534.474 106.301 535.214 104.954 535.377 103.249C535.543 101.522 535.097 100.047 534.039 98.8225C532.981 97.5981 531.522 96.8934 529.663 96.7083C527.961 96.5389 526.378 96.8978 524.914 97.7849C523.472 98.6743 522.606 99.9223 522.316 101.529C522.14 103.362 522.623 104.927 523.765 106.225C524.906 107.522 526.44 108.266 528.366 108.458Z" fill="white"/>
<path d="M556.433 96.339L558.146 96.5095L556.612 112.497L554.898 112.326L555.245 108.713C554.41 109.878 553.331 110.75 552.01 111.328C550.688 111.907 549.232 112.117 547.642 111.959C545.246 111.72 543.273 110.717 541.725 108.949C540.178 107.159 539.517 105.092 539.742 102.747C539.967 100.403 541.008 98.5156 542.863 97.0863C544.721 95.6357 546.848 95.0297 549.244 95.2683C550.834 95.4266 552.222 95.9199 553.409 96.7481C554.595 97.5764 555.488 98.6444 556.086 99.9521L556.433 96.339ZM543.042 107.95C544.303 109.41 545.931 110.239 547.924 110.437C549.917 110.636 551.66 110.142 553.153 108.957C554.646 107.771 555.483 106.23 555.665 104.333C555.847 102.435 555.319 100.758 554.08 99.3004C552.84 97.8428 551.224 97.0148 549.231 96.8164C547.238 96.618 545.483 97.1104 543.968 98.2938C542.475 99.4794 541.638 101.021 541.456 102.918C541.274 104.815 541.802 106.492 543.042 107.95Z" fill="white"/>
<path d="M575.464 98.2336L577.177 98.4042L575.643 114.391L573.93 114.221L574.623 106.994L564.142 105.951L563.449 113.177L561.769 113.01L563.303 97.023L564.983 97.1902L564.29 104.416L574.771 105.46L575.464 98.2336Z" fill="white"/>
<path d="M593.695 116.188L591.411 115.961L583.264 107.209L582.509 115.075L580.829 114.907L582.363 98.9205L584.043 99.0877L583.346 106.346L592.542 99.9338L594.893 100.168L585.121 106.942L593.695 116.188Z" fill="white"/>
<path d="M610.998 101.771L612.476 101.918L610.942 117.905L609.229 117.735L610.496 104.529L598.546 116.671L597.068 116.524L598.602 100.537L600.282 100.704L599.015 113.91L610.998 101.771Z" fill="white"/>
<path d="M629.823 103.645L631.536 103.816L630.002 119.803L628.289 119.632L628.982 112.406L618.501 111.363L617.808 118.589L616.128 118.422L617.662 102.435L619.342 102.602L618.648 109.828L629.129 110.871L629.823 103.645Z" fill="white"/>
<path d="M647.237 105.379L647.086 106.945L638.251 106.066L636.868 120.486L635.188 120.319L636.722 104.332L647.237 105.379Z" fill="white"/>
<path d="M70.3338 41.491L72.1142 41.6683L69.9664 64.0501L68.186 63.8729L69.2138 53.1616L55.5415 51.8005L54.5137 62.5118L52.7332 62.3345L54.881 39.9527L56.6615 40.1299L55.695 50.2018L69.3673 51.5629L70.3338 41.491Z" fill="white"/>
<path d="M91.7746 50.0814L93.4879 50.252L91.9537 66.239L90.2405 66.0684L90.5872 62.4554C89.7519 63.6204 88.6735 64.4921 87.3518 65.0707C86.0302 65.6493 84.5743 65.8594 82.9843 65.7012C80.588 65.4626 78.6155 64.4592 77.0669 62.6911C75.5203 60.9016 74.8595 58.8345 75.0845 56.4898C75.3095 54.145 76.3498 52.258 78.2052 50.8287C80.0627 49.3782 82.1896 48.7721 84.5859 49.0107C86.176 49.169 87.5643 49.6623 88.7509 50.4906C89.9376 51.3188 90.8299 52.3868 91.4279 53.6945L91.7746 50.0814ZM78.3836 61.6924C79.6453 63.1522 81.2727 63.9813 83.2659 64.1798C85.2591 64.3782 87.0022 63.8846 88.4951 62.699C89.988 61.5134 90.8255 59.9721 91.0076 58.0749C91.1896 56.1778 90.661 54.5004 89.4217 53.0429C88.1824 51.5853 86.5662 50.7573 84.573 50.5588C82.5798 50.3604 80.8256 50.8529 79.3102 52.0362C77.8173 53.2218 76.9798 54.7632 76.7978 56.6603C76.6157 58.5574 77.1443 60.2348 78.3836 61.6924Z" fill="white"/>
<path d="M104.77 67.87C102.24 67.6181 100.211 66.6091 98.685 64.8432C97.1587 63.0773 96.5091 61.0113 96.7362 58.6452C96.9632 56.2791 97.9933 54.3804 99.8264 52.9489C101.659 51.5174 103.841 50.9276 106.372 51.1795C108.007 51.3423 109.449 51.8625 110.699 52.7401C111.951 53.5964 112.818 54.6834 113.302 56.0013L111.852 56.6315C111.457 55.5593 110.751 54.6713 109.733 53.9674C108.738 53.2658 107.568 52.8481 106.225 52.7143C104.209 52.5136 102.455 53.0061 100.962 54.1917C99.471 55.356 98.6335 56.8973 98.4494 58.8158C98.2653 60.7342 98.7929 62.4222 100.032 63.8798C101.274 65.3161 102.902 66.1346 104.918 66.3352C106.261 66.469 107.488 66.2899 108.598 65.7978C109.73 65.308 110.625 64.5793 111.283 63.6119L112.618 64.5517C111.827 65.7212 110.724 66.612 109.309 67.2243C107.918 67.8175 106.405 68.0327 104.77 67.87Z" fill="white"/>
<path d="M128.905 53.7778L128.755 55.3446L122.641 54.7359L121.257 69.1562L119.578 68.989L120.961 54.5687L114.847 53.9601L114.998 52.3933L128.905 53.7778Z" fill="white"/>
<path d="M146.068 55.4864L147.781 55.657L146.247 71.644L144.534 71.4734L144.88 67.8604C144.045 69.0254 142.967 69.8971 141.645 70.4757C140.323 71.0543 138.868 71.2644 137.277 71.1061C134.881 70.8676 132.909 69.8642 131.36 68.0961C129.814 66.3066 129.153 64.2395 129.378 61.8948C129.603 59.55 130.643 57.663 132.498 56.2337C134.356 54.7831 136.483 54.1771 138.879 54.4157C140.469 54.574 141.858 55.0673 143.044 55.8956C144.231 56.7238 145.123 57.7918 145.721 59.0995L146.068 55.4864ZM132.677 67.0974C133.939 68.5572 135.566 69.3863 137.559 69.5848C139.552 69.7832 141.295 69.2896 142.788 68.104C144.281 66.9184 145.119 65.377 145.301 63.4799C145.483 61.5828 144.954 59.9054 143.715 58.4478C142.476 56.9903 140.859 56.1623 138.866 55.9638C136.873 55.7654 135.119 56.2579 133.603 57.4412C132.11 58.6268 131.273 60.1682 131.091 62.0653C130.909 63.9624 131.438 65.6398 132.677 67.0974Z" fill="white"/>
<path d="M162.543 64.9382C164.454 65.7525 165.317 67.1296 165.131 69.0693C165.008 70.3483 164.459 71.3589 163.483 72.101C162.53 72.8454 161.214 73.134 159.534 72.9667L151.404 72.1574L152.939 56.1704L160.43 56.9162C162.02 57.0745 163.214 57.5914 164.012 58.4671C164.809 59.3427 165.15 60.3881 165.033 61.6031C164.87 63.3084 164.039 64.4201 162.543 64.9382ZM160.279 58.4829L154.468 57.9044L153.937 63.4359L159.749 64.0144C160.824 64.1214 161.665 63.9577 162.272 63.5231C162.878 63.0886 163.225 62.4237 163.311 61.5284C163.393 60.6758 163.165 59.986 162.628 59.4591C162.115 58.9131 161.332 58.5877 160.279 58.4829ZM159.684 71.4C160.804 71.5115 161.691 71.3415 162.345 70.8901C162.998 70.4388 163.369 69.7548 163.457 68.8382C163.543 67.9429 163.296 67.2189 162.716 66.6662C162.16 66.0944 161.334 65.7539 160.237 65.6447L153.787 65.0026L153.234 70.7579L159.684 71.4Z" fill="white"/>
<path d="M182.125 59.076L183.839 59.2466L182.304 75.2336L180.591 75.063L181.285 67.8369L170.804 66.7935L170.11 74.0196L168.431 73.8524L169.965 57.8654L171.644 58.0326L170.951 65.2587L181.432 66.3021L182.125 59.076Z" fill="white"/>
<path d="M201.421 60.9969L202.899 61.144L201.364 77.131L199.651 76.9605L200.918 63.7552L188.969 75.897L187.491 75.7499L189.025 59.7629L190.704 59.9301L189.437 73.1354L201.421 60.9969Z" fill="white"/>
<path d="M219.238 62.7706L220.951 62.9412L219.417 78.9282L217.703 78.7576L218.305 72.4907C216.759 73.047 215.023 73.2293 213.097 73.0375C210.948 72.8235 209.335 72.1896 208.261 71.1357C207.188 70.0606 206.739 68.6171 206.913 66.8052L207.413 61.5934L209.093 61.7606L208.592 66.9724C208.335 69.6582 209.863 71.1661 213.178 71.4961C215.014 71.6789 216.771 71.5095 218.449 70.9879L219.238 62.7706Z" fill="white"/>
<path d="M233.72 63.8573C236.183 64.1025 238.097 65.1323 239.46 66.9465C240.846 68.763 241.429 70.8117 241.21 73.0925C241.202 73.1777 241.179 73.3045 241.14 73.4728C241.124 73.6434 241.111 73.7713 241.103 73.8565L225.886 72.3416C225.915 74.1522 226.527 75.6764 227.719 76.9141C228.936 78.1328 230.508 78.838 232.434 79.0297C233.777 79.1635 234.979 79.0141 236.038 78.5815C237.096 78.1489 237.925 77.5213 238.524 76.6986L239.923 77.6771C239.122 78.7164 238.052 79.5029 236.712 80.0366C235.374 80.549 233.888 80.7239 232.253 80.5611C229.677 80.3047 227.636 79.316 226.128 77.5949C224.622 75.8526 223.985 73.7664 224.219 71.3364C224.448 68.949 225.444 67.0468 227.208 65.63C228.996 64.194 231.167 63.6031 233.72 63.8573ZM233.573 65.392C231.669 65.2025 230.025 65.6091 228.64 66.6118C227.255 67.6144 226.387 69.0021 226.036 70.7748L239.54 72.1192C239.543 70.2043 238.969 68.6515 237.817 67.4608C236.689 66.2511 235.275 65.5615 233.573 65.392Z" fill="white"/>
<path d="M252.034 82.5304C249.504 82.2785 247.475 81.2696 245.949 79.5037C244.423 77.7377 243.773 75.6717 244 73.3057C244.227 70.9396 245.257 69.0408 247.091 67.6093C248.924 66.1778 251.105 65.588 253.636 65.84C255.271 66.0027 256.713 66.5229 257.963 67.4005C259.215 68.2568 260.083 69.3439 260.567 70.6617L259.116 71.292C258.721 70.2197 258.015 69.3317 256.997 68.6278C256.002 67.9262 254.833 67.5085 253.489 67.3747C251.473 67.1741 249.719 67.6665 248.226 68.8521C246.735 70.0164 245.898 71.5578 245.714 73.4762C245.529 75.3947 246.057 77.0827 247.296 78.5403C248.538 79.9765 250.166 80.795 252.182 80.9957C253.525 81.1294 254.752 80.9503 255.862 80.4582C256.994 79.9684 257.889 79.2398 258.548 78.2723L259.882 79.2121C259.091 80.3816 257.988 81.2724 256.573 81.8847C255.182 82.4779 253.669 82.6932 252.034 82.5304Z" fill="white"/>
<path d="M276.169 68.4383L276.019 70.005L269.905 69.3964L268.521 83.8167L266.842 83.6494L268.226 69.2291L262.112 68.6205L262.262 67.0538L276.169 68.4383Z" fill="white"/>
<path d="M288.811 77.5084C290.723 78.3228 291.585 79.6999 291.399 81.6396C291.277 82.9186 290.727 83.9291 289.752 84.6713C288.799 85.4157 287.482 85.7042 285.803 85.537L277.673 84.7277L279.207 68.7407L286.698 69.4865C288.288 69.6448 289.482 70.1617 290.28 71.0374C291.078 71.913 291.418 72.9583 291.302 74.1733C291.138 75.8786 290.308 76.9903 288.811 77.5084ZM286.548 71.0532L280.737 70.4746L280.206 76.0061L286.017 76.5847C287.092 76.6917 287.933 76.528 288.54 76.0934C289.147 75.6589 289.493 74.994 289.579 74.0987C289.661 73.2461 289.433 72.5563 288.896 72.0294C288.383 71.4834 287.601 71.158 286.548 71.0532ZM285.953 83.9703C287.073 84.0818 287.959 83.9118 288.613 83.4604C289.267 83.009 289.638 82.325 289.726 81.4085C289.812 80.5132 289.565 79.7892 288.985 79.2365C288.429 78.6647 287.603 78.3242 286.505 78.215L280.055 77.5729L279.503 83.3282L285.953 83.9703Z" fill="white"/>
<path d="M302.358 87.5402C299.895 87.295 297.877 86.2872 296.306 84.5168C294.76 82.7274 294.099 80.6602 294.324 78.3155C294.549 75.9707 295.589 74.0837 297.445 72.6544C299.325 71.2061 301.496 70.6045 303.96 70.8498C306.401 71.0928 308.395 72.109 309.941 73.8985C311.512 75.6689 312.185 77.7264 311.96 80.0712C311.735 82.416 310.683 84.3125 308.803 85.7609C306.948 87.1901 304.799 87.7833 302.358 87.5402ZM297.623 83.5181C298.885 84.9779 300.512 85.8071 302.505 86.0055C304.499 86.2039 306.242 85.7103 307.735 84.5247C309.228 83.3391 310.065 81.7978 310.247 79.9007C310.429 78.0035 309.901 76.3262 308.661 74.8686C307.422 73.411 305.806 72.583 303.813 72.3845C301.819 72.1861 300.065 72.6786 298.55 73.862C297.057 75.0476 296.219 76.5889 296.037 78.486C295.855 80.3832 296.384 82.0605 297.623 83.5181Z" fill="white"/>
<path d="M748.946 131.644L746.561 131.406L735.828 119.202L734.77 130.233L732.989 130.055L735.137 107.674L736.917 107.851L735.917 118.274L748.373 108.991L750.758 109.229L737.823 118.916L748.946 131.644Z" fill="white"/>
<path d="M762.347 116.483C764.766 116.724 766.737 117.738 768.262 119.525C769.81 121.293 770.472 123.35 770.247 125.695C770.022 128.039 768.981 129.937 767.123 131.388C765.29 132.819 763.164 133.414 760.746 133.174C759.156 133.015 757.757 132.51 756.55 131.658C755.366 130.809 754.486 129.721 753.913 128.394L752.943 138.498L751.264 138.33L753.411 115.949L755.091 116.116L754.735 119.825C755.55 118.636 756.619 117.742 757.943 117.142C759.289 116.545 760.757 116.325 762.347 116.483ZM755.91 129.141C757.172 130.601 758.799 131.43 760.792 131.629C762.785 131.827 764.528 131.334 766.021 130.148C767.537 128.965 768.385 127.424 768.567 125.527C768.75 123.63 768.21 121.952 766.948 120.492C765.709 119.034 764.092 118.206 762.099 118.008C760.106 117.809 758.352 118.302 756.837 119.485C755.344 120.671 754.506 122.212 754.324 124.109C754.142 126.007 754.671 127.684 755.91 129.141Z" fill="white"/>
<path d="M787.459 119.338L788.937 119.485L787.403 135.472L785.69 135.302L786.957 122.096L775.007 134.238L773.529 134.091L775.063 118.104L776.743 118.271L775.476 131.477L787.459 119.338Z" fill="white"/>
<path d="M807.997 121.383L806.463 137.37L804.75 137.199L806.133 122.779L795.652 121.736L794.269 136.156L792.589 135.989L794.123 120.002L807.997 121.383Z" fill="white"/>
<path d="M824.941 123.07L824.79 124.636L818.676 124.028L817.293 138.448L815.613 138.281L816.997 123.86L810.883 123.252L811.033 121.685L824.941 123.07Z" fill="white"/>
<path d="M833.447 140.411C830.984 140.166 828.967 139.158 827.396 137.388C825.849 135.598 825.188 133.531 825.413 131.186C825.638 128.842 826.678 126.955 828.534 125.525C830.414 124.077 832.585 123.476 835.049 123.721C837.49 123.964 839.484 124.98 841.03 126.769C842.601 128.54 843.274 130.597 843.049 132.942C842.824 135.287 841.772 137.183 839.892 138.632C838.037 140.061 835.888 140.654 833.447 140.411ZM828.712 136.389C829.974 137.849 831.601 138.678 833.595 138.876C835.588 139.075 837.331 138.581 838.824 137.396C840.317 136.21 841.154 134.669 841.336 132.772C841.518 130.874 840.99 129.197 839.75 127.74C838.511 126.282 836.895 125.454 834.902 125.256C832.909 125.057 831.154 125.55 829.639 126.733C828.146 127.919 827.308 129.46 827.126 131.357C826.944 133.254 827.473 134.931 828.712 136.389Z" fill="white"/>
<path d="M857.463 134.119C859.374 134.933 860.237 136.31 860.051 138.25C859.928 139.529 859.379 140.539 858.403 141.282C857.45 142.026 856.134 142.315 854.454 142.147L846.325 141.338L847.859 125.351L855.35 126.097C856.94 126.255 858.134 126.772 858.932 127.648C859.729 128.523 860.07 129.569 859.953 130.784C859.79 132.489 858.959 133.601 857.463 134.119ZM855.2 127.664L849.388 127.085L848.857 132.617L854.669 133.195C855.744 133.302 856.585 133.138 857.192 132.704C857.798 132.269 858.145 131.604 858.231 130.709C858.313 129.856 858.085 129.167 857.548 128.64C857.035 128.094 856.252 127.768 855.2 127.664ZM854.604 140.581C855.724 140.692 856.611 140.522 857.265 140.071C857.918 139.619 858.289 138.935 858.377 138.019C858.463 137.124 858.216 136.4 857.636 135.847C857.081 135.275 856.254 134.935 855.157 134.825L848.707 134.183L848.154 139.939L854.604 140.581Z" fill="white"/>
<path d="M879.666 128.518L881.379 128.688L879.845 144.675L878.132 144.505L878.478 140.891C877.643 142.056 876.564 142.928 875.243 143.507C873.921 144.085 872.465 144.296 870.875 144.137C868.479 143.899 866.506 142.895 864.958 141.127C863.411 139.338 862.751 137.271 862.976 134.926C863.201 132.581 864.241 130.694 866.096 129.265C867.954 127.814 870.081 127.208 872.477 127.447C874.067 127.605 875.455 128.098 876.642 128.927C877.829 129.755 878.721 130.823 879.319 132.131L879.666 128.518ZM866.275 140.128C867.536 141.588 869.164 142.417 871.157 142.616C873.15 142.814 874.893 142.321 876.386 141.135C877.879 139.95 878.716 138.408 878.899 136.511C879.081 134.614 878.552 132.937 877.313 131.479C876.073 130.021 874.457 129.193 872.464 128.995C870.471 128.796 868.717 129.289 867.201 130.472C865.708 131.658 864.871 133.199 864.689 135.096C864.507 136.994 865.035 138.671 866.275 140.128Z" fill="white"/>
<path d="M900.175 130.559L898.641 146.546L896.961 146.379L898.345 131.959L889.88 131.116L889.14 138.822C888.891 141.422 888.214 143.173 887.11 144.075C886.006 144.976 884.587 145.276 882.852 144.975L882.997 143.472C884.33 143.712 885.359 143.47 886.084 142.746C886.81 142.022 887.268 140.658 887.461 138.655L888.35 129.382L900.175 130.559Z" fill="white"/>
<path d="M919.51 132.129C921.951 132.372 923.945 133.388 925.492 135.178C927.063 136.948 927.736 139.006 927.511 141.35C927.286 143.695 926.233 145.592 924.354 147.04C922.498 148.469 920.35 149.063 917.909 148.82C915.602 148.59 913.689 147.678 912.168 146.085C910.673 144.473 909.928 142.57 909.935 140.376L906.173 140.001L905.48 147.227L903.8 147.06L905.334 131.073L907.014 131.24L906.32 138.466L910.083 138.841C910.493 136.687 911.584 134.977 913.356 133.711C915.152 132.427 917.204 131.899 919.51 132.129ZM913.174 144.797C914.435 146.257 916.063 147.086 918.056 147.285C920.049 147.483 921.792 146.99 923.285 145.804C924.778 144.618 925.616 143.077 925.798 141.18C925.98 139.283 925.451 137.605 924.212 136.148C922.973 134.69 921.356 133.862 919.363 133.664C917.37 133.465 915.616 133.958 914.1 135.141C912.607 136.327 911.77 137.868 911.588 139.765C911.406 141.662 911.934 143.34 913.174 144.797Z" fill="white"/>
<path d="M943.402 134.863L943.251 136.429L937.137 135.821L935.754 150.241L934.074 150.074L935.458 135.653L929.344 135.045L929.494 133.478L943.402 134.863Z" fill="white"/>
<path d="M960.564 136.571L962.277 136.742L960.743 152.729L959.03 152.558L959.377 148.945C958.541 150.11 957.463 150.982 956.141 151.56C954.82 152.139 953.364 152.349 951.774 152.191C949.378 151.952 947.405 150.949 945.856 149.181C944.31 147.391 943.649 145.324 943.874 142.979C944.099 140.635 945.139 138.748 946.995 137.318C948.852 135.868 950.979 135.262 953.375 135.5C954.965 135.659 956.354 136.152 957.54 136.98C958.727 137.809 959.619 138.877 960.217 140.184L960.564 136.571ZM947.173 148.182C948.435 149.642 950.062 150.471 952.055 150.669C954.049 150.868 955.792 150.374 957.285 149.189C958.778 148.003 959.615 146.462 959.797 144.565C959.979 142.667 959.451 140.99 958.211 139.533C956.972 138.075 955.356 137.247 953.362 137.049C951.369 136.85 949.615 137.343 948.1 138.526C946.607 139.712 945.769 141.253 945.587 143.15C945.405 145.047 945.934 146.724 947.173 148.182Z" fill="white"/>
<path d="M1060.87 163.052C1057.33 162.7 1054.52 161.3 1052.42 158.854C1050.33 156.386 1049.44 153.532 1049.75 150.292C1050.06 147.052 1051.48 144.438 1054 142.451C1056.52 140.443 1059.55 139.614 1063.09 139.967C1065.24 140.181 1067.16 140.867 1068.86 142.026C1070.56 143.164 1071.82 144.602 1072.65 146.342L1070.99 147.048C1070.34 145.584 1069.29 144.361 1067.85 143.378C1066.41 142.374 1064.77 141.78 1062.93 141.597C1059.89 141.294 1057.29 142.004 1055.13 143.726C1053 145.429 1051.8 147.677 1051.53 150.469C1051.26 153.262 1052.01 155.714 1053.78 157.827C1055.57 159.92 1057.98 161.118 1061.03 161.421C1062.87 161.604 1064.6 161.346 1066.22 160.647C1067.85 159.949 1069.13 158.924 1070.05 157.574L1071.54 158.594C1070.42 160.161 1068.9 161.355 1066.99 162.176C1065.09 162.976 1063.04 163.268 1060.87 163.052Z" fill="white"/>
<path d="M1082.41 165.196C1079.95 164.951 1077.93 163.943 1076.36 162.173C1074.81 160.383 1074.15 158.316 1074.37 155.971C1074.6 153.626 1075.64 151.739 1077.5 150.31C1079.38 148.862 1081.55 148.26 1084.01 148.506C1086.45 148.749 1088.45 149.765 1089.99 151.554C1091.56 153.325 1092.24 155.382 1092.01 157.727C1091.79 160.072 1090.73 161.968 1088.85 163.417C1087 164.846 1084.85 165.439 1082.41 165.196ZM1077.67 161.174C1078.94 162.634 1080.56 163.463 1082.56 163.661C1084.55 163.86 1086.29 163.366 1087.79 162.18C1089.28 160.995 1090.12 159.454 1090.3 157.556C1090.48 155.659 1089.95 153.982 1088.71 152.524C1087.47 151.067 1085.86 150.239 1083.86 150.04C1081.87 149.842 1080.12 150.334 1078.6 151.518C1077.11 152.703 1076.27 154.245 1076.09 156.142C1075.91 158.039 1076.43 159.716 1077.67 161.174Z" fill="white"/>
<path d="M1102.57 167.236C1100.15 166.995 1098.21 166.037 1096.74 164.363C1095.28 162.668 1094.66 160.606 1094.9 158.175C1095.15 155.511 1095.75 153.494 1096.7 152.125C1097.67 150.737 1099.49 149.573 1102.15 148.633C1102.67 148.469 1103.27 148.282 1103.97 148.072C1104.67 147.861 1105.23 147.702 1105.64 147.593C1106.09 147.464 1106.55 147.307 1107.05 147.119C1107.56 146.912 1107.98 146.706 1108.29 146.501C1108.61 146.295 1108.89 146.033 1109.15 145.714C1109.41 145.374 1109.59 144.984 1109.7 144.543L1110.97 145.412C1110.81 145.998 1110.54 146.499 1110.19 146.915C1109.85 147.334 1109.36 147.705 1108.72 148.028C1108.11 148.333 1107.56 148.569 1107.09 148.738C1106.65 148.908 1105.95 149.129 1105 149.4C1104.04 149.671 1103.36 149.872 1102.94 150.002C1101.21 150.541 1099.92 151.187 1099.05 151.94C1098.21 152.696 1097.59 153.763 1097.19 155.143C1098.08 154.049 1099.19 153.277 1100.5 152.826C1101.81 152.375 1103.1 152.213 1104.37 152.34C1106.61 152.563 1108.41 153.452 1109.75 155.006C1111.09 156.56 1111.66 158.424 1111.45 160.598C1111.24 162.751 1110.3 164.454 1108.62 165.707C1106.96 166.962 1104.95 167.472 1102.57 167.236ZM1102.73 165.637C1104.61 165.824 1106.2 165.434 1107.52 164.468C1108.83 163.48 1109.57 162.133 1109.74 160.428C1109.9 158.701 1109.46 157.226 1108.4 156.001C1107.34 154.777 1105.88 154.072 1104.02 153.887C1102.32 153.718 1100.74 154.077 1099.27 154.964C1097.83 155.853 1096.97 157.101 1096.68 158.708C1096.5 160.541 1096.98 162.106 1098.12 163.403C1099.27 164.701 1100.8 165.445 1102.73 165.637Z" fill="white"/>
<path d="M1122.14 169.151C1119.61 168.899 1117.58 167.89 1116.05 166.124C1114.52 164.358 1113.88 162.292 1114.1 159.926C1114.33 157.56 1115.36 155.661 1117.19 154.23C1119.03 152.798 1121.21 152.209 1123.74 152.46C1125.37 152.623 1126.81 153.143 1128.06 154.021C1129.32 154.877 1130.18 155.964 1130.67 157.282L1129.22 157.912C1128.82 156.84 1128.12 155.952 1127.1 155.248C1126.1 154.547 1124.93 154.129 1123.59 153.995C1121.58 153.795 1119.82 154.287 1118.33 155.473C1116.84 156.637 1116 158.178 1115.82 160.097C1115.63 162.015 1116.16 163.703 1117.4 165.161C1118.64 166.597 1120.27 167.416 1122.28 167.616C1123.63 167.75 1124.85 167.571 1125.96 167.079C1127.1 166.589 1127.99 165.86 1128.65 164.893L1129.98 165.833C1129.19 167.002 1128.09 167.893 1126.67 168.505C1125.28 169.098 1123.77 169.314 1122.14 169.151Z" fill="white"/>
<path d="M1146.27 155.059L1146.12 156.626L1140.01 156.017L1138.62 170.437L1136.94 170.27L1138.33 155.85L1132.21 155.241L1132.36 153.674L1146.27 155.059Z" fill="white"/>
<path d="M1158.91 164.129C1160.82 164.943 1161.69 166.32 1161.5 168.26C1161.38 169.539 1160.83 170.55 1159.85 171.292C1158.9 172.036 1157.58 172.325 1155.9 172.157L1147.77 171.348L1149.31 155.361L1156.8 156.107C1158.39 156.265 1159.58 156.782 1160.38 157.658C1161.18 158.534 1161.52 159.579 1161.4 160.794C1161.24 162.499 1160.41 163.611 1158.91 164.129ZM1156.65 157.674L1150.84 157.095L1150.31 162.627L1156.12 163.205C1157.19 163.312 1158.04 163.148 1158.64 162.714C1159.25 162.279 1159.6 161.614 1159.68 160.719C1159.76 159.867 1159.54 159.177 1159 158.65C1158.49 158.104 1157.7 157.778 1156.65 157.674ZM1156.05 170.591C1157.17 170.702 1158.06 170.532 1158.71 170.081C1159.37 169.63 1159.74 168.946 1159.83 168.029C1159.91 167.134 1159.67 166.41 1159.09 165.857C1158.53 165.285 1157.7 164.945 1156.61 164.835L1150.16 164.193L1149.6 169.949L1156.05 170.591Z" fill="white"/>
<path d="M1173.93 157.457C1176.39 157.702 1178.3 158.732 1179.67 160.546C1181.05 162.363 1181.64 164.411 1181.42 166.692C1181.41 166.777 1181.39 166.904 1181.35 167.072C1181.33 167.243 1181.32 167.371 1181.31 167.456L1166.09 165.941C1166.12 167.752 1166.73 169.276 1167.93 170.514C1169.14 171.732 1170.71 172.438 1172.64 172.629C1173.98 172.763 1175.19 172.614 1176.24 172.181C1177.3 171.749 1178.13 171.121 1178.73 170.298L1180.13 171.277C1179.33 172.316 1178.26 173.103 1176.92 173.636C1175.58 174.149 1174.09 174.323 1172.46 174.161C1169.88 173.904 1167.84 172.916 1166.33 171.195C1164.83 169.452 1164.19 167.366 1164.43 164.936C1164.65 162.549 1165.65 160.646 1167.42 159.23C1169.2 157.794 1171.37 157.203 1173.93 157.457ZM1173.78 158.992C1171.88 158.802 1170.23 159.209 1168.85 160.211C1167.46 161.214 1166.59 162.602 1166.24 164.374L1179.75 165.719C1179.75 163.804 1179.18 162.251 1178.02 161.06C1176.9 159.851 1175.48 159.161 1173.78 158.992Z" fill="white"/>
<path d="M1198.28 160.236L1199.99 160.407L1198.46 176.394L1196.74 176.223L1197.44 168.997L1186.96 167.954L1186.26 175.18L1184.58 175.012L1186.12 159.025L1187.8 159.193L1187.1 166.419L1197.58 167.462L1198.28 160.236Z" fill="white"/>
<path d="M1217.34 162.134L1219.05 162.304L1217.52 178.291L1215.8 178.121L1216.5 170.894L1206.02 169.851L1205.32 177.077L1203.64 176.91L1205.18 160.923L1206.86 161.09L1206.16 168.316L1216.64 169.36L1217.34 162.134Z" fill="white"/>
<path d="M1230.29 169.686C1231.84 169.839 1233.1 170.428 1234.09 171.452C1235.08 172.475 1235.5 173.701 1235.37 175.129C1235.23 176.558 1234.58 177.676 1233.42 178.486C1232.25 179.296 1230.9 179.623 1229.35 179.47L1222.7 178.807L1224.24 162.82L1225.92 162.988L1225.32 169.191L1230.29 169.686ZM1239.02 164.292L1240.7 164.459L1239.16 180.446L1237.48 180.279L1239.02 164.292ZM1229.5 177.903C1230.58 178.01 1231.52 177.791 1232.31 177.246C1233.11 176.702 1233.56 175.939 1233.65 174.959C1233.75 173.957 1233.46 173.121 1232.77 172.45C1232.12 171.761 1231.24 171.362 1230.14 171.252L1225.17 170.757L1224.53 177.408L1229.5 177.903Z" fill="white"/>
<path d="M1253.45 165.373C1255.91 165.619 1257.82 166.648 1259.19 168.463C1260.57 170.279 1261.16 172.328 1260.94 174.609C1260.93 174.694 1260.91 174.821 1260.87 174.989C1260.85 175.159 1260.84 175.287 1260.83 175.373L1245.61 173.858C1245.64 175.668 1246.25 177.192 1247.45 178.43C1248.66 179.649 1250.24 180.354 1252.16 180.546C1253.51 180.68 1254.71 180.53 1255.77 180.098C1256.82 179.665 1257.65 179.037 1258.25 178.215L1259.65 179.193C1258.85 180.232 1257.78 181.019 1256.44 181.553C1255.1 182.065 1253.62 182.24 1251.98 182.077C1249.41 181.821 1247.36 180.832 1245.86 179.111C1244.35 177.369 1243.71 175.282 1243.95 172.852C1244.18 170.465 1245.17 168.563 1246.94 167.146C1248.72 165.71 1250.89 165.119 1253.45 165.373ZM1253.3 166.908C1251.4 166.719 1249.75 167.125 1248.37 168.128C1246.98 169.131 1246.11 170.518 1245.76 172.291L1259.27 173.635C1259.27 171.72 1258.7 170.168 1257.54 168.977C1256.42 167.767 1255 167.078 1253.3 166.908Z" fill="white"/>
<path d="M1283.53 168.368C1285.95 168.609 1287.92 169.623 1289.44 171.41C1290.99 173.178 1291.65 175.235 1291.43 177.579C1291.2 179.924 1290.16 181.822 1288.31 183.272C1286.47 184.704 1284.35 185.299 1281.93 185.058C1280.34 184.9 1278.94 184.395 1277.73 183.543C1276.55 182.694 1275.67 181.605 1275.09 180.279L1274.13 190.383L1272.45 190.215L1274.59 167.833L1276.27 168.001L1275.92 171.71C1276.73 170.521 1277.8 169.627 1279.12 169.027C1280.47 168.429 1281.94 168.21 1283.53 168.368ZM1277.09 181.026C1278.35 182.486 1279.98 183.315 1281.97 183.514C1283.97 183.712 1285.71 183.219 1287.2 182.033C1288.72 180.85 1289.57 179.309 1289.75 177.412C1289.93 175.515 1289.39 173.837 1288.13 172.377C1286.89 170.919 1285.27 170.091 1283.28 169.893C1281.29 169.694 1279.53 170.187 1278.02 171.37C1276.53 172.556 1275.69 174.097 1275.51 175.994C1275.32 177.891 1275.85 179.569 1277.09 181.026Z" fill="white"/>
<path d="M1311.03 171.46L1312.74 171.631L1311.2 187.618L1309.49 187.447L1309.84 183.834C1309 184.999 1307.92 185.871 1306.6 186.45C1305.28 187.028 1303.83 187.238 1302.24 187.08C1299.84 186.842 1297.87 185.838 1296.32 184.07C1294.77 182.281 1294.11 180.214 1294.34 177.869C1294.56 175.524 1295.6 173.637 1297.46 172.208C1299.31 170.757 1301.44 170.151 1303.84 170.39C1305.43 170.548 1306.82 171.041 1308 171.87C1309.19 172.698 1310.08 173.766 1310.68 175.073L1311.03 171.46ZM1297.63 183.071C1298.9 184.531 1300.52 185.36 1302.52 185.559C1304.51 185.757 1306.25 185.264 1307.75 184.078C1309.24 182.892 1310.08 181.351 1310.26 179.454C1310.44 177.557 1309.91 175.879 1308.67 174.422C1307.43 172.964 1305.82 172.136 1303.82 171.938C1301.83 171.739 1300.08 172.232 1298.56 173.415C1297.07 174.601 1296.23 176.142 1296.05 178.039C1295.87 179.936 1296.4 181.614 1297.63 183.071Z" fill="white"/>
<path d="M1325.22 180.685C1326.19 181.105 1326.93 181.694 1327.42 182.454C1327.91 183.213 1328.12 184.051 1328.03 184.967C1327.9 186.268 1327.26 187.312 1326.1 188.1C1324.94 188.888 1323.37 189.184 1321.4 188.988C1318.04 188.654 1315.98 187.179 1315.21 184.563L1316.73 183.908C1317.26 186.004 1318.86 187.186 1321.55 187.453C1322.94 187.592 1324.05 187.412 1324.89 186.914C1325.75 186.398 1326.23 185.66 1326.32 184.701C1326.41 183.827 1326.14 183.09 1325.52 182.49C1324.9 181.869 1324.03 181.503 1322.91 181.391L1320.59 181.161L1320.74 179.594L1322.42 179.761C1323.52 179.87 1324.41 179.69 1325.09 179.219C1325.76 178.749 1326.15 178.066 1326.23 177.171C1326.31 176.318 1326.01 175.578 1325.33 174.95C1324.66 174.303 1323.74 173.921 1322.55 173.802C1320.27 173.575 1318.67 174.288 1317.77 175.941L1316.43 175.033C1317 174.057 1317.82 173.32 1318.88 172.824C1319.95 172.306 1321.22 172.12 1322.7 172.268C1324.43 172.439 1325.75 173.012 1326.67 173.987C1327.62 174.942 1328.04 176.037 1327.92 177.274C1327.75 179 1326.85 180.137 1325.22 180.685Z" fill="white"/>
<path d="M1341.79 174.168C1344.21 174.409 1346.18 175.423 1347.71 177.21C1349.25 178.978 1349.92 181.035 1349.69 183.38C1349.47 185.724 1348.43 187.622 1346.57 189.073C1344.73 190.504 1342.61 191.099 1340.19 190.859C1338.6 190.7 1337.2 190.195 1335.99 189.343C1334.81 188.494 1333.93 187.406 1333.36 186.079L1332.39 196.183L1330.71 196.015L1332.86 173.634L1334.54 173.801L1334.18 177.51C1334.99 176.321 1336.06 175.427 1337.39 174.827C1338.73 174.23 1340.2 174.01 1341.79 174.168ZM1335.35 186.826C1336.62 188.286 1338.24 189.115 1340.24 189.314C1342.23 189.512 1343.97 189.019 1345.47 187.833C1346.98 186.65 1347.83 185.109 1348.01 183.212C1348.19 181.315 1347.65 179.637 1346.39 178.177C1345.15 176.719 1343.54 175.891 1341.54 175.693C1339.55 175.494 1337.8 175.987 1336.28 177.17C1334.79 178.356 1333.95 179.897 1333.77 181.794C1333.59 183.692 1334.12 185.369 1335.35 186.826Z" fill="white"/>
<path d="M1369.29 177.261L1371 177.431L1369.47 193.418L1367.75 193.248L1368.1 189.635C1367.27 190.8 1366.19 191.671 1364.87 192.25C1363.54 192.828 1362.09 193.039 1360.5 192.88C1358.1 192.642 1356.13 191.638 1354.58 189.87C1353.03 188.081 1352.37 186.014 1352.6 183.669C1352.82 181.324 1353.86 179.437 1355.72 178.008C1357.58 176.557 1359.7 175.951 1362.1 176.19C1363.69 176.348 1365.08 176.841 1366.26 177.67C1367.45 178.498 1368.34 179.566 1368.94 180.874L1369.29 177.261ZM1355.9 188.872C1357.16 190.331 1358.79 191.161 1360.78 191.359C1362.77 191.557 1364.52 191.064 1366.01 189.878C1367.5 188.693 1368.34 187.151 1368.52 185.254C1368.7 183.357 1368.17 181.68 1366.94 180.222C1365.7 178.764 1364.08 177.936 1362.09 177.738C1360.09 177.54 1358.34 178.032 1356.82 179.215C1355.33 180.401 1354.49 181.942 1354.31 183.839C1354.13 185.737 1354.66 187.414 1355.9 188.872Z" fill="white"/>
<path d="M1381.91 195.044C1379.49 194.804 1377.55 193.846 1376.08 192.172C1374.62 190.477 1374 188.414 1374.23 185.984C1374.49 183.32 1375.09 181.303 1376.04 179.934C1377.01 178.545 1378.82 177.381 1381.49 176.442C1382.01 176.278 1382.61 176.091 1383.31 175.88C1384.01 175.67 1384.57 175.511 1384.98 175.401C1385.43 175.273 1385.89 175.115 1386.39 174.928C1386.9 174.721 1387.32 174.515 1387.63 174.309C1387.95 174.104 1388.23 173.842 1388.49 173.523C1388.75 173.183 1388.93 172.792 1389.04 172.351L1390.31 173.221C1390.14 173.806 1389.88 174.307 1389.53 174.724C1389.19 175.142 1388.7 175.514 1388.06 175.837C1387.44 176.141 1386.9 176.378 1386.43 176.546C1385.99 176.717 1385.29 176.938 1384.34 177.209C1383.38 177.48 1382.7 177.681 1382.28 177.811C1380.55 178.35 1379.26 178.995 1378.39 179.749C1377.55 180.504 1376.93 181.572 1376.53 182.952C1377.42 181.858 1378.53 181.085 1379.84 180.635C1381.14 180.184 1382.44 180.022 1383.71 180.149C1385.95 180.372 1387.74 181.261 1389.09 182.815C1390.43 184.369 1391 186.233 1390.79 188.407C1390.58 190.56 1389.64 192.263 1387.96 193.516C1386.3 194.771 1384.29 195.281 1381.91 195.044ZM1382.07 193.446C1383.95 193.633 1385.54 193.243 1386.86 192.276C1388.17 191.288 1388.91 189.942 1389.08 188.236C1389.24 186.51 1388.8 185.034 1387.74 183.81C1386.68 182.586 1385.22 181.881 1383.36 181.696C1381.66 181.526 1380.08 181.885 1378.61 182.773C1377.17 183.662 1376.3 184.91 1376.02 186.517C1375.84 188.35 1376.32 189.915 1377.46 191.212C1378.61 192.509 1380.14 193.254 1382.07 193.446Z" fill="white"/>
<path d="M1401.48 196.96C1399.01 196.714 1396.99 195.707 1395.42 193.936C1393.88 192.147 1393.22 190.08 1393.44 187.735C1393.67 185.39 1394.71 183.503 1396.56 182.074C1398.44 180.626 1400.61 180.024 1403.08 180.269C1405.52 180.512 1407.51 181.528 1409.06 183.318C1410.63 185.088 1411.3 187.146 1411.08 189.491C1410.85 191.835 1409.8 193.732 1407.92 195.18C1406.06 196.61 1403.92 197.203 1401.48 196.96ZM1396.74 192.938C1398 194.397 1399.63 195.227 1401.62 195.425C1403.62 195.623 1405.36 195.13 1406.85 193.944C1408.34 192.759 1409.18 191.217 1409.36 189.32C1409.55 187.423 1409.02 185.746 1407.78 184.288C1406.54 182.83 1404.92 182.002 1402.93 181.804C1400.94 181.606 1399.18 182.098 1397.67 183.281C1396.17 184.467 1395.34 186.008 1395.15 187.905C1394.97 189.803 1395.5 191.48 1396.74 192.938Z" fill="white"/>
<path d="M1426.99 183.005L1426.84 184.571L1420.72 183.963L1419.34 198.383L1417.66 198.216L1419.04 183.796L1412.93 183.187L1413.08 181.62L1426.99 183.005Z" fill="white"/>
<path d="M1441.36 200.575L1439.07 200.348L1430.93 191.596L1430.17 199.461L1428.49 199.294L1430.03 183.307L1431.71 183.474L1431.01 190.732L1440.2 184.32L1442.56 184.555L1432.78 191.329L1441.36 200.575Z" fill="white"/>
<path d="M1458.66 186.158L1460.14 186.305L1458.6 202.292L1456.89 202.121L1458.16 188.916L1446.21 201.058L1444.73 200.911L1446.26 184.924L1447.94 185.091L1446.68 198.296L1458.66 186.158Z" fill="white"/>
<path d="M1571.03 190.888L1568.88 213.27L1567.1 213.093L1569.01 193.205L1558.99 206.088L1558.69 206.057L1551.31 191.442L1549.4 211.33L1547.62 211.153L1549.76 188.771L1551.98 188.992L1559.11 203.065L1568.78 190.664L1571.03 190.888Z" fill="white"/>
<path d="M1583.5 198.231C1585.97 198.476 1587.88 199.506 1589.24 201.32C1590.63 203.137 1591.21 205.185 1591 207.466C1590.99 207.551 1590.96 207.678 1590.92 207.846C1590.91 208.017 1590.9 208.145 1590.89 208.23L1575.67 206.715C1575.7 208.526 1576.31 210.05 1577.5 211.288C1578.72 212.506 1580.29 213.212 1582.22 213.403C1583.56 213.537 1584.76 213.388 1585.82 212.955C1586.88 212.523 1587.71 211.895 1588.31 211.072L1589.71 212.051C1588.91 213.09 1587.84 213.877 1586.5 214.41C1585.16 214.923 1583.67 215.098 1582.04 214.935C1579.46 214.678 1577.42 213.69 1575.91 211.969C1574.41 210.226 1573.77 208.14 1574 205.71C1574.23 203.323 1575.23 201.421 1576.99 200.004C1578.78 198.568 1580.95 197.977 1583.5 198.231ZM1583.36 199.766C1581.45 199.576 1579.81 199.983 1578.42 200.985C1577.04 201.988 1576.17 203.376 1575.82 205.148L1589.32 206.493C1589.33 204.578 1588.75 203.025 1587.6 201.834C1586.47 200.625 1585.06 199.935 1583.36 199.766Z" fill="white"/>
<path d="M1607.43 215.526L1609.78 215.76L1609.22 221.611L1607.5 221.44L1607.92 217.156L1593.4 215.711L1592.99 219.996L1591.28 219.825L1591.84 213.974L1593.79 214.168C1595.17 212.692 1596 210.611 1596.25 207.925L1597.02 199.932L1608.81 201.105L1607.43 215.526ZM1595.87 214.375L1605.71 215.355L1606.95 202.502L1598.55 201.665L1597.93 208.092C1597.68 210.714 1596.99 212.808 1595.87 214.375Z" fill="white"/>
<path d="M1627.25 202.941L1628.73 203.088L1627.19 219.075L1625.48 218.904L1626.75 205.699L1614.8 217.841L1613.32 217.694L1614.85 201.707L1616.53 201.874L1615.27 215.079L1627.25 202.941Z" fill="white"/>
<path d="M1648.69 205.076L1650.41 205.246L1648.87 221.233L1647.16 221.063L1647.51 217.45C1646.67 218.615 1645.59 219.486 1644.27 220.065C1642.95 220.644 1641.49 220.854 1639.9 220.695C1637.51 220.457 1635.53 219.454 1633.99 217.685C1632.44 215.896 1631.78 213.829 1632 211.484C1632.23 209.139 1633.27 207.252 1635.12 205.823C1636.98 204.372 1639.11 203.766 1641.5 204.005C1643.09 204.163 1644.48 204.657 1645.67 205.485C1646.86 206.313 1647.75 207.381 1648.35 208.689L1648.69 205.076ZM1635.3 216.687C1636.56 218.146 1638.19 218.976 1640.18 219.174C1642.18 219.372 1643.92 218.879 1645.41 217.693C1646.91 216.508 1647.74 214.966 1647.93 213.069C1648.11 211.172 1647.58 209.495 1646.34 208.037C1645.1 206.58 1643.49 205.752 1641.49 205.553C1639.5 205.355 1637.74 205.847 1636.23 207.031C1634.74 208.216 1633.9 209.757 1633.72 211.655C1633.53 213.552 1634.06 215.229 1635.3 216.687Z" fill="white"/>
<path d="M1756.57 209.359L1754.42 231.741L1752.61 231.561L1754.6 210.777L1741.4 209.463L1739.41 230.246L1737.63 230.069L1739.77 207.687L1756.57 209.359Z" fill="white"/>
<path d="M1770.36 216.833C1772.78 217.074 1774.75 218.088 1776.28 219.875C1777.83 221.643 1778.49 223.7 1778.26 226.045C1778.04 228.389 1777 230.287 1775.14 231.738C1773.31 233.169 1771.18 233.765 1768.76 233.524C1767.17 233.365 1765.77 232.86 1764.57 232.009C1763.38 231.159 1762.5 230.071 1761.93 228.744L1760.96 238.848L1759.28 238.681L1761.43 216.299L1763.11 216.466L1762.75 220.175C1763.57 218.986 1764.64 218.092 1765.96 217.492C1767.31 216.895 1768.77 216.675 1770.36 216.833ZM1763.93 229.492C1765.19 230.951 1766.82 231.781 1768.81 231.979C1770.8 232.177 1772.54 231.684 1774.04 230.498C1775.55 229.315 1776.4 227.775 1776.58 225.877C1776.77 223.98 1776.23 222.302 1774.96 220.842C1773.73 219.384 1772.11 218.556 1770.12 218.358C1768.12 218.16 1766.37 218.652 1764.85 219.835C1763.36 221.021 1762.52 222.562 1762.34 224.459C1762.16 226.357 1762.69 228.034 1763.93 229.492Z" fill="white"/>
<path d="M1789.2 235.559C1786.74 235.314 1784.72 234.306 1783.15 232.535C1781.61 230.746 1780.95 228.679 1781.17 226.334C1781.4 223.989 1782.44 222.102 1784.29 220.673C1786.17 219.225 1788.34 218.623 1790.81 218.868C1793.25 219.111 1795.24 220.128 1796.79 221.917C1798.36 223.687 1799.03 225.745 1798.81 228.09C1798.58 230.435 1797.53 232.331 1795.65 233.779C1793.79 235.209 1791.65 235.802 1789.2 235.559ZM1784.47 231.537C1785.73 232.996 1787.36 233.826 1789.35 234.024C1791.34 234.222 1793.09 233.729 1794.58 232.543C1796.07 231.358 1796.91 229.816 1797.09 227.919C1797.28 226.022 1796.75 224.345 1795.51 222.887C1794.27 221.43 1792.65 220.602 1790.66 220.403C1788.67 220.205 1786.91 220.697 1785.4 221.881C1783.9 223.066 1783.07 224.607 1782.88 226.505C1782.7 228.402 1783.23 230.079 1784.47 231.537Z" fill="white"/>
<path d="M1809.74 237.603C1807.21 237.351 1805.18 236.342 1803.66 234.576C1802.13 232.811 1801.48 230.745 1801.71 228.378C1801.93 226.012 1802.96 224.114 1804.8 222.682C1806.63 221.251 1808.81 220.661 1811.34 220.913C1812.98 221.076 1814.42 221.596 1815.67 222.473C1816.92 223.33 1817.79 224.417 1818.27 225.734L1816.82 226.365C1816.43 225.293 1815.72 224.404 1814.7 223.701C1813.71 222.999 1812.54 222.581 1811.2 222.448C1809.18 222.247 1807.43 222.739 1805.93 223.925C1804.44 225.089 1803.6 226.631 1803.42 228.549C1803.24 230.467 1803.76 232.155 1805 233.613C1806.24 235.049 1807.87 235.868 1809.89 236.068C1811.23 236.202 1812.46 236.023 1813.57 235.531C1814.7 235.041 1815.6 234.313 1816.25 233.345L1817.59 234.285C1816.8 235.454 1815.69 236.345 1814.28 236.958C1812.89 237.551 1811.38 237.766 1809.74 237.603Z" fill="white"/>
<path d="M1832.05 231.141C1833.96 231.955 1834.82 233.332 1834.64 235.272C1834.52 236.551 1833.97 237.562 1832.99 238.304C1832.04 239.048 1830.72 239.337 1829.04 239.17L1820.91 238.36L1822.45 222.373L1829.94 223.119C1831.53 223.277 1832.72 223.794 1833.52 224.67C1834.32 225.546 1834.66 226.591 1834.54 227.806C1834.38 229.511 1833.55 230.623 1832.05 231.141ZM1829.79 224.686L1823.98 224.107L1823.44 229.639L1829.26 230.217C1830.33 230.324 1831.17 230.16 1831.78 229.726C1832.39 229.291 1832.73 228.627 1832.82 227.731C1832.9 226.879 1832.67 226.189 1832.14 225.662C1831.62 225.116 1830.84 224.791 1829.79 224.686ZM1829.19 237.603C1830.31 237.714 1831.2 237.544 1831.85 237.093C1832.51 236.642 1832.88 235.958 1832.96 235.041C1833.05 234.146 1832.8 233.422 1832.22 232.869C1831.67 232.297 1830.84 231.957 1829.74 231.848L1823.29 231.205L1822.74 236.961L1829.19 237.603Z" fill="white"/>
<path d="M1847.06 224.469C1849.53 224.714 1851.44 225.744 1852.8 227.558C1854.19 229.375 1854.77 231.423 1854.55 233.704C1854.55 233.789 1854.52 233.916 1854.48 234.085C1854.47 234.255 1854.46 234.383 1854.45 234.468L1839.23 232.953C1839.26 234.764 1839.87 236.288 1841.06 237.526C1842.28 238.744 1843.85 239.45 1845.78 239.641C1847.12 239.775 1848.32 239.626 1849.38 239.193C1850.44 238.761 1851.27 238.133 1851.87 237.31L1853.27 238.289C1852.47 239.328 1851.4 240.115 1850.06 240.648C1848.72 241.161 1847.23 241.336 1845.6 241.173C1843.02 240.916 1840.98 239.928 1839.47 238.207C1837.97 236.464 1837.33 234.378 1837.56 231.948C1837.79 229.561 1838.79 227.658 1840.55 226.242C1842.34 224.806 1844.51 224.215 1847.06 224.469ZM1846.92 226.004C1845.01 225.814 1843.37 226.221 1841.98 227.223C1840.6 228.226 1839.73 229.614 1839.38 231.387L1852.88 232.731C1852.89 230.816 1852.31 229.263 1851.16 228.072C1850.03 226.863 1848.62 226.173 1846.92 226.004Z" fill="white"/>
<path d="M1870.36 227.143L1870.21 228.709L1864.09 228.101L1862.71 242.521L1861.03 242.354L1862.41 227.934L1856.3 227.325L1856.45 225.758L1870.36 227.143Z" fill="white"/>
<path d="M1886.01 228.702L1884.48 244.689L1882.8 244.521L1884.18 230.101L1875.72 229.258L1874.98 236.964C1874.73 239.565 1874.05 241.316 1872.95 242.217C1871.85 243.119 1870.43 243.419 1868.69 243.117L1868.84 241.614C1870.17 241.854 1871.2 241.613 1871.92 240.889C1872.65 240.165 1873.11 238.801 1873.3 236.797L1874.19 227.524L1886.01 228.702Z" fill="white"/>
<path d="M1898.77 229.616C1901.23 229.861 1903.14 230.891 1904.51 232.705C1905.89 234.522 1906.48 236.57 1906.26 238.851C1906.25 238.936 1906.22 239.063 1906.19 239.231C1906.17 239.402 1906.16 239.53 1906.15 239.615L1890.93 238.1C1890.96 239.911 1891.57 241.435 1892.77 242.673C1893.98 243.891 1895.55 244.597 1897.48 244.788C1898.82 244.922 1900.02 244.773 1901.08 244.34C1902.14 243.908 1902.97 243.28 1903.57 242.457L1904.97 243.436C1904.17 244.475 1903.1 245.262 1901.76 245.795C1900.42 246.308 1898.93 246.483 1897.3 246.32C1894.72 246.063 1892.68 245.075 1891.17 243.354C1889.67 241.611 1889.03 239.525 1889.26 237.095C1889.49 234.708 1890.49 232.806 1892.25 231.389C1894.04 229.953 1896.21 229.362 1898.77 229.616ZM1898.62 231.151C1896.72 230.961 1895.07 231.368 1893.69 232.37C1892.3 233.373 1891.43 234.761 1891.08 236.534L1904.59 237.878C1904.59 235.963 1904.01 234.41 1902.86 233.219C1901.74 232.01 1900.32 231.32 1898.62 231.151Z" fill="white"/>
<path d="M1923.12 232.395L1924.83 232.566L1923.3 248.553L1921.58 248.382L1922.28 241.156L1911.79 240.113L1911.1 247.339L1909.42 247.172L1910.96 231.185L1912.64 231.352L1911.94 238.578L1922.42 239.621L1923.12 232.395Z" fill="white"/>
<path d="M1942.41 234.316L1943.89 234.463L1942.36 250.45L1940.64 250.28L1941.91 237.074L1929.96 249.216L1928.48 249.069L1930.02 233.082L1931.7 233.249L1930.43 246.454L1942.41 234.316Z" fill="white"/>
<path d="M1960.7 236.137L1959.16 252.124L1957.48 251.956L1958.08 245.721L1954.46 245.36L1948.58 251.07L1946.4 250.853L1952.38 245.121C1951.02 244.836 1949.93 244.21 1949.1 243.245C1948.26 242.258 1947.91 241.115 1948.03 239.815C1948.17 238.386 1948.82 237.268 1949.99 236.458C1951.15 235.648 1952.5 235.321 1954.05 235.474L1960.7 236.137ZM1953.26 243.692L1958.23 244.187L1958.87 237.536L1953.9 237.041C1952.82 236.934 1951.89 237.153 1951.09 237.698C1950.29 238.242 1949.84 239.005 1949.75 239.985C1949.65 240.987 1949.93 241.833 1950.59 242.522C1951.27 243.193 1952.16 243.582 1953.26 243.692Z" fill="white"/>
</g>
<defs>
<filter id="filter0_d_170_14368" x="-55.6754" y="0.75669" width="2060.98" height="281.446" filterUnits="userSpaceOnUse" color-interpolation-filters="sRGB">
<feFlood flood-opacity="0" result="BackgroundImageFix"/>
<feColorMatrix in="SourceAlpha" type="matrix" values="0 0 0 0 0 0 0 0 0 0 0 0 0 0 0 0 0 0 127 0" result="hardAlpha"/>
<feOffset/>
<feGaussianBlur stdDeviation="3.8"/>
<feComposite in2="hardAlpha" operator="out"/>
<feColorMatrix type="matrix" values="0 0 0 0 0 0 0 0 0 0 0 0 0 0 0 0 0 0 0.7 0"/>
<feBlend mode="normal" in2="BackgroundImageFix" result="effect1_dropShadow_170_14368"/>
<feBlend mode="normal" in="SourceGraphic" in2="effect1_dropShadow_170_14368" result="shape"/>
</filter>
<linearGradient id="paint0_linear_170_14368" x1="983.645" y1="75.5687" x2="965.986" y2="207.391" gradientUnits="userSpaceOnUse">
<stop stop-color="#4F0D5E"/>
<stop offset="1" stop-color="#4F0D5E" stop-opacity="0"/>
</linearGradient>
</defs>
</svg>
